G04 #@! TF.GenerationSoftware,KiCad,Pcbnew,(5.1.9-1-g591a07d2d9)-1*
G04 #@! TF.CreationDate,2021-05-31T00:50:00-06:00*
G04 #@! TF.ProjectId,keyboard-layout,6b657962-6f61-4726-942d-6c61796f7574,rev?*
G04 #@! TF.SameCoordinates,Original*
G04 #@! TF.FileFunction,Soldermask,Bot*
G04 #@! TF.FilePolarity,Negative*
%FSLAX46Y46*%
G04 Gerber Fmt 4.6, Leading zero omitted, Abs format (unit mm)*
G04 Created by KiCad (PCBNEW (5.1.9-1-g591a07d2d9)-1) date 2021-05-31 00:50:00*
%MOMM*%
%LPD*%
G01*
G04 APERTURE LIST*
%ADD10C,1.851600*%
%ADD11C,2.351600*%
%ADD12C,4.089400*%
%ADD13C,3.149600*%
%ADD14C,5.601600*%
%ADD15C,0.751600*%
%ADD16O,1.801600X1.801600*%
G04 APERTURE END LIST*
D10*
X41748750Y-67625000D03*
X31588750Y-67625000D03*
D11*
X32858750Y-65085000D03*
D12*
X36668750Y-67625000D03*
D11*
X39208750Y-62545000D03*
X60640000Y-43495000D03*
D12*
X58100000Y-48575000D03*
D11*
X54290000Y-46035000D03*
D10*
X53020000Y-48575000D03*
X63180000Y-48575000D03*
D11*
X36827500Y-43495000D03*
D12*
X34287500Y-48575000D03*
D11*
X30477500Y-46035000D03*
D10*
X29207500Y-48575000D03*
X39367500Y-48575000D03*
G36*
G01*
X43237100Y-67849200D02*
X43762900Y-67849200D01*
G75*
G02*
X44025800Y-68112100I0J-262900D01*
G01*
X44025800Y-68737900D01*
G75*
G02*
X43762900Y-69000800I-262900J0D01*
G01*
X43237100Y-69000800D01*
G75*
G02*
X42974200Y-68737900I0J262900D01*
G01*
X42974200Y-68112100D01*
G75*
G02*
X43237100Y-67849200I262900J0D01*
G01*
G37*
G36*
G01*
X43237100Y-66099200D02*
X43762900Y-66099200D01*
G75*
G02*
X44025800Y-66362100I0J-262900D01*
G01*
X44025800Y-66987900D01*
G75*
G02*
X43762900Y-67250800I-262900J0D01*
G01*
X43237100Y-67250800D01*
G75*
G02*
X42974200Y-66987900I0J262900D01*
G01*
X42974200Y-66362100D01*
G75*
G02*
X43237100Y-66099200I262900J0D01*
G01*
G37*
G36*
G01*
X55362900Y-58650800D02*
X54837100Y-58650800D01*
G75*
G02*
X54574200Y-58387900I0J262900D01*
G01*
X54574200Y-57762100D01*
G75*
G02*
X54837100Y-57499200I262900J0D01*
G01*
X55362900Y-57499200D01*
G75*
G02*
X55625800Y-57762100I0J-262900D01*
G01*
X55625800Y-58387900D01*
G75*
G02*
X55362900Y-58650800I-262900J0D01*
G01*
G37*
G36*
G01*
X55362900Y-60400800D02*
X54837100Y-60400800D01*
G75*
G02*
X54574200Y-60137900I0J262900D01*
G01*
X54574200Y-59512100D01*
G75*
G02*
X54837100Y-59249200I262900J0D01*
G01*
X55362900Y-59249200D01*
G75*
G02*
X55625800Y-59512100I0J-262900D01*
G01*
X55625800Y-60137900D01*
G75*
G02*
X55362900Y-60400800I-262900J0D01*
G01*
G37*
G36*
G01*
X52475800Y-69087100D02*
X52475800Y-69612900D01*
G75*
G02*
X52212900Y-69875800I-262900J0D01*
G01*
X51587100Y-69875800D01*
G75*
G02*
X51324200Y-69612900I0J262900D01*
G01*
X51324200Y-69087100D01*
G75*
G02*
X51587100Y-68824200I262900J0D01*
G01*
X52212900Y-68824200D01*
G75*
G02*
X52475800Y-69087100I0J-262900D01*
G01*
G37*
G36*
G01*
X54225800Y-69087100D02*
X54225800Y-69612900D01*
G75*
G02*
X53962900Y-69875800I-262900J0D01*
G01*
X53337100Y-69875800D01*
G75*
G02*
X53074200Y-69612900I0J262900D01*
G01*
X53074200Y-69087100D01*
G75*
G02*
X53337100Y-68824200I262900J0D01*
G01*
X53962900Y-68824200D01*
G75*
G02*
X54225800Y-69087100I0J-262900D01*
G01*
G37*
G36*
G01*
X53137900Y-53750800D02*
X52612100Y-53750800D01*
G75*
G02*
X52349200Y-53487900I0J262900D01*
G01*
X52349200Y-52862100D01*
G75*
G02*
X52612100Y-52599200I262900J0D01*
G01*
X53137900Y-52599200D01*
G75*
G02*
X53400800Y-52862100I0J-262900D01*
G01*
X53400800Y-53487900D01*
G75*
G02*
X53137900Y-53750800I-262900J0D01*
G01*
G37*
G36*
G01*
X53137900Y-55500800D02*
X52612100Y-55500800D01*
G75*
G02*
X52349200Y-55237900I0J262900D01*
G01*
X52349200Y-54612100D01*
G75*
G02*
X52612100Y-54349200I262900J0D01*
G01*
X53137900Y-54349200D01*
G75*
G02*
X53400800Y-54612100I0J-262900D01*
G01*
X53400800Y-55237900D01*
G75*
G02*
X53137900Y-55500800I-262900J0D01*
G01*
G37*
G36*
G01*
X42512100Y-63149200D02*
X43037900Y-63149200D01*
G75*
G02*
X43300800Y-63412100I0J-262900D01*
G01*
X43300800Y-64037900D01*
G75*
G02*
X43037900Y-64300800I-262900J0D01*
G01*
X42512100Y-64300800D01*
G75*
G02*
X42249200Y-64037900I0J262900D01*
G01*
X42249200Y-63412100D01*
G75*
G02*
X42512100Y-63149200I262900J0D01*
G01*
G37*
G36*
G01*
X42512100Y-61399200D02*
X43037900Y-61399200D01*
G75*
G02*
X43300800Y-61662100I0J-262900D01*
G01*
X43300800Y-62287900D01*
G75*
G02*
X43037900Y-62550800I-262900J0D01*
G01*
X42512100Y-62550800D01*
G75*
G02*
X42249200Y-62287900I0J262900D01*
G01*
X42249200Y-61662100D01*
G75*
G02*
X42512100Y-61399200I262900J0D01*
G01*
G37*
G36*
G01*
X44862100Y-54349200D02*
X45387900Y-54349200D01*
G75*
G02*
X45650800Y-54612100I0J-262900D01*
G01*
X45650800Y-55237900D01*
G75*
G02*
X45387900Y-55500800I-262900J0D01*
G01*
X44862100Y-55500800D01*
G75*
G02*
X44599200Y-55237900I0J262900D01*
G01*
X44599200Y-54612100D01*
G75*
G02*
X44862100Y-54349200I262900J0D01*
G01*
G37*
G36*
G01*
X44862100Y-52599200D02*
X45387900Y-52599200D01*
G75*
G02*
X45650800Y-52862100I0J-262900D01*
G01*
X45650800Y-53487900D01*
G75*
G02*
X45387900Y-53750800I-262900J0D01*
G01*
X44862100Y-53750800D01*
G75*
G02*
X44599200Y-53487900I0J262900D01*
G01*
X44599200Y-52862100D01*
G75*
G02*
X44862100Y-52599200I262900J0D01*
G01*
G37*
G36*
G01*
X43752900Y-59520800D02*
X43227100Y-59520800D01*
G75*
G02*
X42964200Y-59257900I0J262900D01*
G01*
X42964200Y-58632100D01*
G75*
G02*
X43227100Y-58369200I262900J0D01*
G01*
X43752900Y-58369200D01*
G75*
G02*
X44015800Y-58632100I0J-262900D01*
G01*
X44015800Y-59257900D01*
G75*
G02*
X43752900Y-59520800I-262900J0D01*
G01*
G37*
G36*
G01*
X43752900Y-57770800D02*
X43227100Y-57770800D01*
G75*
G02*
X42964200Y-57507900I0J262900D01*
G01*
X42964200Y-56882100D01*
G75*
G02*
X43227100Y-56619200I262900J0D01*
G01*
X43752900Y-56619200D01*
G75*
G02*
X44015800Y-56882100I0J-262900D01*
G01*
X44015800Y-57507900D01*
G75*
G02*
X43752900Y-57770800I-262900J0D01*
G01*
G37*
D11*
X65402500Y-62545000D03*
D12*
X62862500Y-67625000D03*
D11*
X59052500Y-65085000D03*
D10*
X57782500Y-67625000D03*
X67942500Y-67625000D03*
G36*
G01*
X58675800Y-69771285D02*
X58675800Y-70728715D01*
G75*
G02*
X58403715Y-71000800I-272085J0D01*
G01*
X57696285Y-71000800D01*
G75*
G02*
X57424200Y-70728715I0J272085D01*
G01*
X57424200Y-69771285D01*
G75*
G02*
X57696285Y-69499200I272085J0D01*
G01*
X58403715Y-69499200D01*
G75*
G02*
X58675800Y-69771285I0J-272085D01*
G01*
G37*
G36*
G01*
X60725800Y-69771285D02*
X60725800Y-70728715D01*
G75*
G02*
X60453715Y-71000800I-272085J0D01*
G01*
X59746285Y-71000800D01*
G75*
G02*
X59474200Y-70728715I0J272085D01*
G01*
X59474200Y-69771285D01*
G75*
G02*
X59746285Y-69499200I272085J0D01*
G01*
X60453715Y-69499200D01*
G75*
G02*
X60725800Y-69771285I0J-272085D01*
G01*
G37*
G36*
G01*
X142763600Y-69694550D02*
X141563600Y-69694550D01*
G75*
G02*
X141512800Y-69643750I0J50800D01*
G01*
X141512800Y-68443750D01*
G75*
G02*
X141563600Y-68392950I50800J0D01*
G01*
X142763600Y-68392950D01*
G75*
G02*
X142814400Y-68443750I0J-50800D01*
G01*
X142814400Y-69643750D01*
G75*
G02*
X142763600Y-69694550I-50800J0D01*
G01*
G37*
G36*
G01*
X142763600Y-66544550D02*
X141563600Y-66544550D01*
G75*
G02*
X141512800Y-66493750I0J50800D01*
G01*
X141512800Y-65293750D01*
G75*
G02*
X141563600Y-65242950I50800J0D01*
G01*
X142763600Y-65242950D01*
G75*
G02*
X142814400Y-65293750I0J-50800D01*
G01*
X142814400Y-66493750D01*
G75*
G02*
X142763600Y-66544550I-50800J0D01*
G01*
G37*
D11*
X170177500Y-81595000D03*
D12*
X167637500Y-86675000D03*
D11*
X163827500Y-84135000D03*
D10*
X162557500Y-86675000D03*
X172717500Y-86675000D03*
G36*
G01*
X228489750Y-88744550D02*
X227289750Y-88744550D01*
G75*
G02*
X227238950Y-88693750I0J50800D01*
G01*
X227238950Y-87493750D01*
G75*
G02*
X227289750Y-87442950I50800J0D01*
G01*
X228489750Y-87442950D01*
G75*
G02*
X228540550Y-87493750I0J-50800D01*
G01*
X228540550Y-88693750D01*
G75*
G02*
X228489750Y-88744550I-50800J0D01*
G01*
G37*
G36*
G01*
X228489750Y-85594550D02*
X227289750Y-85594550D01*
G75*
G02*
X227238950Y-85543750I0J50800D01*
G01*
X227238950Y-84343750D01*
G75*
G02*
X227289750Y-84292950I50800J0D01*
G01*
X228489750Y-84292950D01*
G75*
G02*
X228540550Y-84343750I0J-50800D01*
G01*
X228540550Y-85543750D01*
G75*
G02*
X228489750Y-85594550I-50800J0D01*
G01*
G37*
G36*
G01*
X273733500Y-88744550D02*
X272533500Y-88744550D01*
G75*
G02*
X272482700Y-88693750I0J50800D01*
G01*
X272482700Y-87493750D01*
G75*
G02*
X272533500Y-87442950I50800J0D01*
G01*
X273733500Y-87442950D01*
G75*
G02*
X273784300Y-87493750I0J-50800D01*
G01*
X273784300Y-88693750D01*
G75*
G02*
X273733500Y-88744550I-50800J0D01*
G01*
G37*
G36*
G01*
X273733500Y-85594550D02*
X272533500Y-85594550D01*
G75*
G02*
X272482700Y-85543750I0J50800D01*
G01*
X272482700Y-84343750D01*
G75*
G02*
X272533500Y-84292950I50800J0D01*
G01*
X273733500Y-84292950D01*
G75*
G02*
X273784300Y-84343750I0J-50800D01*
G01*
X273784300Y-85543750D01*
G75*
G02*
X273733500Y-85594550I-50800J0D01*
G01*
G37*
G36*
G01*
X247539750Y-88744550D02*
X246339750Y-88744550D01*
G75*
G02*
X246288950Y-88693750I0J50800D01*
G01*
X246288950Y-87493750D01*
G75*
G02*
X246339750Y-87442950I50800J0D01*
G01*
X247539750Y-87442950D01*
G75*
G02*
X247590550Y-87493750I0J-50800D01*
G01*
X247590550Y-88693750D01*
G75*
G02*
X247539750Y-88744550I-50800J0D01*
G01*
G37*
G36*
G01*
X247539750Y-85594550D02*
X246339750Y-85594550D01*
G75*
G02*
X246288950Y-85543750I0J50800D01*
G01*
X246288950Y-84343750D01*
G75*
G02*
X246339750Y-84292950I50800J0D01*
G01*
X247539750Y-84292950D01*
G75*
G02*
X247590550Y-84343750I0J-50800D01*
G01*
X247590550Y-85543750D01*
G75*
G02*
X247539750Y-85594550I-50800J0D01*
G01*
G37*
G36*
G01*
X299927250Y-88744550D02*
X298727250Y-88744550D01*
G75*
G02*
X298676450Y-88693750I0J50800D01*
G01*
X298676450Y-87493750D01*
G75*
G02*
X298727250Y-87442950I50800J0D01*
G01*
X299927250Y-87442950D01*
G75*
G02*
X299978050Y-87493750I0J-50800D01*
G01*
X299978050Y-88693750D01*
G75*
G02*
X299927250Y-88744550I-50800J0D01*
G01*
G37*
G36*
G01*
X299927250Y-85594550D02*
X298727250Y-85594550D01*
G75*
G02*
X298676450Y-85543750I0J50800D01*
G01*
X298676450Y-84343750D01*
G75*
G02*
X298727250Y-84292950I50800J0D01*
G01*
X299927250Y-84292950D01*
G75*
G02*
X299978050Y-84343750I0J-50800D01*
G01*
X299978050Y-85543750D01*
G75*
G02*
X299927250Y-85594550I-50800J0D01*
G01*
G37*
G36*
G01*
X199914750Y-69694550D02*
X198714750Y-69694550D01*
G75*
G02*
X198663950Y-69643750I0J50800D01*
G01*
X198663950Y-68443750D01*
G75*
G02*
X198714750Y-68392950I50800J0D01*
G01*
X199914750Y-68392950D01*
G75*
G02*
X199965550Y-68443750I0J-50800D01*
G01*
X199965550Y-69643750D01*
G75*
G02*
X199914750Y-69694550I-50800J0D01*
G01*
G37*
G36*
G01*
X199914750Y-66544550D02*
X198714750Y-66544550D01*
G75*
G02*
X198663950Y-66493750I0J50800D01*
G01*
X198663950Y-65293750D01*
G75*
G02*
X198714750Y-65242950I50800J0D01*
G01*
X199914750Y-65242950D01*
G75*
G02*
X199965550Y-65293750I0J-50800D01*
G01*
X199965550Y-66493750D01*
G75*
G02*
X199914750Y-66544550I-50800J0D01*
G01*
G37*
G36*
G01*
X257064750Y-69694550D02*
X255864750Y-69694550D01*
G75*
G02*
X255813950Y-69643750I0J50800D01*
G01*
X255813950Y-68443750D01*
G75*
G02*
X255864750Y-68392950I50800J0D01*
G01*
X257064750Y-68392950D01*
G75*
G02*
X257115550Y-68443750I0J-50800D01*
G01*
X257115550Y-69643750D01*
G75*
G02*
X257064750Y-69694550I-50800J0D01*
G01*
G37*
G36*
G01*
X257064750Y-66544550D02*
X255864750Y-66544550D01*
G75*
G02*
X255813950Y-66493750I0J50800D01*
G01*
X255813950Y-65293750D01*
G75*
G02*
X255864750Y-65242950I50800J0D01*
G01*
X257064750Y-65242950D01*
G75*
G02*
X257115550Y-65293750I0J-50800D01*
G01*
X257115550Y-66493750D01*
G75*
G02*
X257064750Y-66544550I-50800J0D01*
G01*
G37*
G36*
G01*
X180864750Y-69694550D02*
X179664750Y-69694550D01*
G75*
G02*
X179613950Y-69643750I0J50800D01*
G01*
X179613950Y-68443750D01*
G75*
G02*
X179664750Y-68392950I50800J0D01*
G01*
X180864750Y-68392950D01*
G75*
G02*
X180915550Y-68443750I0J-50800D01*
G01*
X180915550Y-69643750D01*
G75*
G02*
X180864750Y-69694550I-50800J0D01*
G01*
G37*
G36*
G01*
X180864750Y-66544550D02*
X179664750Y-66544550D01*
G75*
G02*
X179613950Y-66493750I0J50800D01*
G01*
X179613950Y-65293750D01*
G75*
G02*
X179664750Y-65242950I50800J0D01*
G01*
X180864750Y-65242950D01*
G75*
G02*
X180915550Y-65293750I0J-50800D01*
G01*
X180915550Y-66493750D01*
G75*
G02*
X180864750Y-66544550I-50800J0D01*
G01*
G37*
G36*
G01*
X161814750Y-69694550D02*
X160614750Y-69694550D01*
G75*
G02*
X160563950Y-69643750I0J50800D01*
G01*
X160563950Y-68443750D01*
G75*
G02*
X160614750Y-68392950I50800J0D01*
G01*
X161814750Y-68392950D01*
G75*
G02*
X161865550Y-68443750I0J-50800D01*
G01*
X161865550Y-69643750D01*
G75*
G02*
X161814750Y-69694550I-50800J0D01*
G01*
G37*
G36*
G01*
X161814750Y-66544550D02*
X160614750Y-66544550D01*
G75*
G02*
X160563950Y-66493750I0J50800D01*
G01*
X160563950Y-65293750D01*
G75*
G02*
X160614750Y-65242950I50800J0D01*
G01*
X161814750Y-65242950D01*
G75*
G02*
X161865550Y-65293750I0J-50800D01*
G01*
X161865550Y-66493750D01*
G75*
G02*
X161814750Y-66544550I-50800J0D01*
G01*
G37*
G36*
G01*
X218964750Y-69694550D02*
X217764750Y-69694550D01*
G75*
G02*
X217713950Y-69643750I0J50800D01*
G01*
X217713950Y-68443750D01*
G75*
G02*
X217764750Y-68392950I50800J0D01*
G01*
X218964750Y-68392950D01*
G75*
G02*
X219015550Y-68443750I0J-50800D01*
G01*
X219015550Y-69643750D01*
G75*
G02*
X218964750Y-69694550I-50800J0D01*
G01*
G37*
G36*
G01*
X218964750Y-66544550D02*
X217764750Y-66544550D01*
G75*
G02*
X217713950Y-66493750I0J50800D01*
G01*
X217713950Y-65293750D01*
G75*
G02*
X217764750Y-65242950I50800J0D01*
G01*
X218964750Y-65242950D01*
G75*
G02*
X219015550Y-65293750I0J-50800D01*
G01*
X219015550Y-66493750D01*
G75*
G02*
X218964750Y-66544550I-50800J0D01*
G01*
G37*
G36*
G01*
X288021000Y-69694550D02*
X286821000Y-69694550D01*
G75*
G02*
X286770200Y-69643750I0J50800D01*
G01*
X286770200Y-68443750D01*
G75*
G02*
X286821000Y-68392950I50800J0D01*
G01*
X288021000Y-68392950D01*
G75*
G02*
X288071800Y-68443750I0J-50800D01*
G01*
X288071800Y-69643750D01*
G75*
G02*
X288021000Y-69694550I-50800J0D01*
G01*
G37*
G36*
G01*
X288021000Y-66544550D02*
X286821000Y-66544550D01*
G75*
G02*
X286770200Y-66493750I0J50800D01*
G01*
X286770200Y-65293750D01*
G75*
G02*
X286821000Y-65242950I50800J0D01*
G01*
X288021000Y-65242950D01*
G75*
G02*
X288071800Y-65293750I0J-50800D01*
G01*
X288071800Y-66493750D01*
G75*
G02*
X288021000Y-66544550I-50800J0D01*
G01*
G37*
G36*
G01*
X238014750Y-69694550D02*
X236814750Y-69694550D01*
G75*
G02*
X236763950Y-69643750I0J50800D01*
G01*
X236763950Y-68443750D01*
G75*
G02*
X236814750Y-68392950I50800J0D01*
G01*
X238014750Y-68392950D01*
G75*
G02*
X238065550Y-68443750I0J-50800D01*
G01*
X238065550Y-69643750D01*
G75*
G02*
X238014750Y-69694550I-50800J0D01*
G01*
G37*
G36*
G01*
X238014750Y-66544550D02*
X236814750Y-66544550D01*
G75*
G02*
X236763950Y-66493750I0J50800D01*
G01*
X236763950Y-65293750D01*
G75*
G02*
X236814750Y-65242950I50800J0D01*
G01*
X238014750Y-65242950D01*
G75*
G02*
X238065550Y-65293750I0J-50800D01*
G01*
X238065550Y-66493750D01*
G75*
G02*
X238014750Y-66544550I-50800J0D01*
G01*
G37*
D11*
X213040000Y-43495000D03*
D12*
X210500000Y-48575000D03*
D11*
X206690000Y-46035000D03*
D10*
X205420000Y-48575000D03*
X215580000Y-48575000D03*
G36*
G01*
X38929200Y-72780000D02*
X38929200Y-71780000D01*
G75*
G02*
X38980000Y-71729200I50800J0D01*
G01*
X40680000Y-71729200D01*
G75*
G02*
X40730800Y-71780000I0J-50800D01*
G01*
X40730800Y-72780000D01*
G75*
G02*
X40680000Y-72830800I-50800J0D01*
G01*
X38980000Y-72830800D01*
G75*
G02*
X38929200Y-72780000I0J50800D01*
G01*
G37*
G36*
G01*
X32629200Y-72780000D02*
X32629200Y-71780000D01*
G75*
G02*
X32680000Y-71729200I50800J0D01*
G01*
X34380000Y-71729200D01*
G75*
G02*
X34430800Y-71780000I0J-50800D01*
G01*
X34430800Y-72780000D01*
G75*
G02*
X34380000Y-72830800I-50800J0D01*
G01*
X32680000Y-72830800D01*
G75*
G02*
X32629200Y-72780000I0J50800D01*
G01*
G37*
G36*
G01*
X38929200Y-76580000D02*
X38929200Y-75580000D01*
G75*
G02*
X38980000Y-75529200I50800J0D01*
G01*
X40680000Y-75529200D01*
G75*
G02*
X40730800Y-75580000I0J-50800D01*
G01*
X40730800Y-76580000D01*
G75*
G02*
X40680000Y-76630800I-50800J0D01*
G01*
X38980000Y-76630800D01*
G75*
G02*
X38929200Y-76580000I0J50800D01*
G01*
G37*
G36*
G01*
X32629200Y-76580000D02*
X32629200Y-75580000D01*
G75*
G02*
X32680000Y-75529200I50800J0D01*
G01*
X34380000Y-75529200D01*
G75*
G02*
X34430800Y-75580000I0J-50800D01*
G01*
X34430800Y-76580000D01*
G75*
G02*
X34380000Y-76630800I-50800J0D01*
G01*
X32680000Y-76630800D01*
G75*
G02*
X32629200Y-76580000I0J50800D01*
G01*
G37*
G36*
G01*
X47201700Y-53845000D02*
X47201700Y-52645000D01*
G75*
G02*
X47252500Y-52594200I50800J0D01*
G01*
X48652500Y-52594200D01*
G75*
G02*
X48703300Y-52645000I0J-50800D01*
G01*
X48703300Y-53845000D01*
G75*
G02*
X48652500Y-53895800I-50800J0D01*
G01*
X47252500Y-53895800D01*
G75*
G02*
X47201700Y-53845000I0J50800D01*
G01*
G37*
G36*
G01*
X49401700Y-53845000D02*
X49401700Y-52645000D01*
G75*
G02*
X49452500Y-52594200I50800J0D01*
G01*
X50852500Y-52594200D01*
G75*
G02*
X50903300Y-52645000I0J-50800D01*
G01*
X50903300Y-53845000D01*
G75*
G02*
X50852500Y-53895800I-50800J0D01*
G01*
X49452500Y-53895800D01*
G75*
G02*
X49401700Y-53845000I0J50800D01*
G01*
G37*
G36*
G01*
X47201700Y-55445000D02*
X47201700Y-54245000D01*
G75*
G02*
X47252500Y-54194200I50800J0D01*
G01*
X48652500Y-54194200D01*
G75*
G02*
X48703300Y-54245000I0J-50800D01*
G01*
X48703300Y-55445000D01*
G75*
G02*
X48652500Y-55495800I-50800J0D01*
G01*
X47252500Y-55495800D01*
G75*
G02*
X47201700Y-55445000I0J50800D01*
G01*
G37*
G36*
G01*
X49401700Y-55445000D02*
X49401700Y-54245000D01*
G75*
G02*
X49452500Y-54194200I50800J0D01*
G01*
X50852500Y-54194200D01*
G75*
G02*
X50903300Y-54245000I0J-50800D01*
G01*
X50903300Y-55445000D01*
G75*
G02*
X50852500Y-55495800I-50800J0D01*
G01*
X49452500Y-55495800D01*
G75*
G02*
X49401700Y-55445000I0J50800D01*
G01*
G37*
X251299146Y-105725001D03*
X241139146Y-105725001D03*
D11*
X242409146Y-103185001D03*
D12*
X246219146Y-105725001D03*
D11*
X248759146Y-100645001D03*
G36*
G01*
X83233500Y-107794550D02*
X82033500Y-107794550D01*
G75*
G02*
X81982700Y-107743750I0J50800D01*
G01*
X81982700Y-106543750D01*
G75*
G02*
X82033500Y-106492950I50800J0D01*
G01*
X83233500Y-106492950D01*
G75*
G02*
X83284300Y-106543750I0J-50800D01*
G01*
X83284300Y-107743750D01*
G75*
G02*
X83233500Y-107794550I-50800J0D01*
G01*
G37*
G36*
G01*
X83233500Y-104644550D02*
X82033500Y-104644550D01*
G75*
G02*
X81982700Y-104593750I0J50800D01*
G01*
X81982700Y-103393750D01*
G75*
G02*
X82033500Y-103342950I50800J0D01*
G01*
X83233500Y-103342950D01*
G75*
G02*
X83284300Y-103393750I0J-50800D01*
G01*
X83284300Y-104593750D01*
G75*
G02*
X83233500Y-104644550I-50800J0D01*
G01*
G37*
G36*
G01*
X76089750Y-88744550D02*
X74889750Y-88744550D01*
G75*
G02*
X74838950Y-88693750I0J50800D01*
G01*
X74838950Y-87493750D01*
G75*
G02*
X74889750Y-87442950I50800J0D01*
G01*
X76089750Y-87442950D01*
G75*
G02*
X76140550Y-87493750I0J-50800D01*
G01*
X76140550Y-88693750D01*
G75*
G02*
X76089750Y-88744550I-50800J0D01*
G01*
G37*
G36*
G01*
X76089750Y-85594550D02*
X74889750Y-85594550D01*
G75*
G02*
X74838950Y-85543750I0J50800D01*
G01*
X74838950Y-84343750D01*
G75*
G02*
X74889750Y-84292950I50800J0D01*
G01*
X76089750Y-84292950D01*
G75*
G02*
X76140550Y-84343750I0J-50800D01*
G01*
X76140550Y-85543750D01*
G75*
G02*
X76089750Y-85594550I-50800J0D01*
G01*
G37*
G36*
G01*
X157052250Y-50644550D02*
X155852250Y-50644550D01*
G75*
G02*
X155801450Y-50593750I0J50800D01*
G01*
X155801450Y-49393750D01*
G75*
G02*
X155852250Y-49342950I50800J0D01*
G01*
X157052250Y-49342950D01*
G75*
G02*
X157103050Y-49393750I0J-50800D01*
G01*
X157103050Y-50593750D01*
G75*
G02*
X157052250Y-50644550I-50800J0D01*
G01*
G37*
G36*
G01*
X157052250Y-47494550D02*
X155852250Y-47494550D01*
G75*
G02*
X155801450Y-47443750I0J50800D01*
G01*
X155801450Y-46243750D01*
G75*
G02*
X155852250Y-46192950I50800J0D01*
G01*
X157052250Y-46192950D01*
G75*
G02*
X157103050Y-46243750I0J-50800D01*
G01*
X157103050Y-47443750D01*
G75*
G02*
X157052250Y-47494550I-50800J0D01*
G01*
G37*
G36*
G01*
X95139750Y-88744550D02*
X93939750Y-88744550D01*
G75*
G02*
X93888950Y-88693750I0J50800D01*
G01*
X93888950Y-87493750D01*
G75*
G02*
X93939750Y-87442950I50800J0D01*
G01*
X95139750Y-87442950D01*
G75*
G02*
X95190550Y-87493750I0J-50800D01*
G01*
X95190550Y-88693750D01*
G75*
G02*
X95139750Y-88744550I-50800J0D01*
G01*
G37*
G36*
G01*
X95139750Y-85594550D02*
X93939750Y-85594550D01*
G75*
G02*
X93888950Y-85543750I0J50800D01*
G01*
X93888950Y-84343750D01*
G75*
G02*
X93939750Y-84292950I50800J0D01*
G01*
X95139750Y-84292950D01*
G75*
G02*
X95190550Y-84343750I0J-50800D01*
G01*
X95190550Y-85543750D01*
G75*
G02*
X95139750Y-85594550I-50800J0D01*
G01*
G37*
G36*
G01*
X59421000Y-107794550D02*
X58221000Y-107794550D01*
G75*
G02*
X58170200Y-107743750I0J50800D01*
G01*
X58170200Y-106543750D01*
G75*
G02*
X58221000Y-106492950I50800J0D01*
G01*
X59421000Y-106492950D01*
G75*
G02*
X59471800Y-106543750I0J-50800D01*
G01*
X59471800Y-107743750D01*
G75*
G02*
X59421000Y-107794550I-50800J0D01*
G01*
G37*
G36*
G01*
X59421000Y-104644550D02*
X58221000Y-104644550D01*
G75*
G02*
X58170200Y-104593750I0J50800D01*
G01*
X58170200Y-103393750D01*
G75*
G02*
X58221000Y-103342950I50800J0D01*
G01*
X59421000Y-103342950D01*
G75*
G02*
X59471800Y-103393750I0J-50800D01*
G01*
X59471800Y-104593750D01*
G75*
G02*
X59421000Y-104644550I-50800J0D01*
G01*
G37*
G36*
G01*
X80852250Y-50644550D02*
X79652250Y-50644550D01*
G75*
G02*
X79601450Y-50593750I0J50800D01*
G01*
X79601450Y-49393750D01*
G75*
G02*
X79652250Y-49342950I50800J0D01*
G01*
X80852250Y-49342950D01*
G75*
G02*
X80903050Y-49393750I0J-50800D01*
G01*
X80903050Y-50593750D01*
G75*
G02*
X80852250Y-50644550I-50800J0D01*
G01*
G37*
G36*
G01*
X80852250Y-47494550D02*
X79652250Y-47494550D01*
G75*
G02*
X79601450Y-47443750I0J50800D01*
G01*
X79601450Y-46243750D01*
G75*
G02*
X79652250Y-46192950I50800J0D01*
G01*
X80852250Y-46192950D01*
G75*
G02*
X80903050Y-46243750I0J-50800D01*
G01*
X80903050Y-47443750D01*
G75*
G02*
X80852250Y-47494550I-50800J0D01*
G01*
G37*
G36*
G01*
X133239750Y-88744550D02*
X132039750Y-88744550D01*
G75*
G02*
X131988950Y-88693750I0J50800D01*
G01*
X131988950Y-87493750D01*
G75*
G02*
X132039750Y-87442950I50800J0D01*
G01*
X133239750Y-87442950D01*
G75*
G02*
X133290550Y-87493750I0J-50800D01*
G01*
X133290550Y-88693750D01*
G75*
G02*
X133239750Y-88744550I-50800J0D01*
G01*
G37*
G36*
G01*
X133239750Y-85594550D02*
X132039750Y-85594550D01*
G75*
G02*
X131988950Y-85543750I0J50800D01*
G01*
X131988950Y-84343750D01*
G75*
G02*
X132039750Y-84292950I50800J0D01*
G01*
X133239750Y-84292950D01*
G75*
G02*
X133290550Y-84343750I0J-50800D01*
G01*
X133290550Y-85543750D01*
G75*
G02*
X133239750Y-85594550I-50800J0D01*
G01*
G37*
G36*
G01*
X176102250Y-50644550D02*
X174902250Y-50644550D01*
G75*
G02*
X174851450Y-50593750I0J50800D01*
G01*
X174851450Y-49393750D01*
G75*
G02*
X174902250Y-49342950I50800J0D01*
G01*
X176102250Y-49342950D01*
G75*
G02*
X176153050Y-49393750I0J-50800D01*
G01*
X176153050Y-50593750D01*
G75*
G02*
X176102250Y-50644550I-50800J0D01*
G01*
G37*
G36*
G01*
X176102250Y-47494550D02*
X174902250Y-47494550D01*
G75*
G02*
X174851450Y-47443750I0J50800D01*
G01*
X174851450Y-46243750D01*
G75*
G02*
X174902250Y-46192950I50800J0D01*
G01*
X176102250Y-46192950D01*
G75*
G02*
X176153050Y-46243750I0J-50800D01*
G01*
X176153050Y-47443750D01*
G75*
G02*
X176102250Y-47494550I-50800J0D01*
G01*
G37*
G36*
G01*
X27830000Y-50644550D02*
X26630000Y-50644550D01*
G75*
G02*
X26579200Y-50593750I0J50800D01*
G01*
X26579200Y-49393750D01*
G75*
G02*
X26630000Y-49342950I50800J0D01*
G01*
X27830000Y-49342950D01*
G75*
G02*
X27880800Y-49393750I0J-50800D01*
G01*
X27880800Y-50593750D01*
G75*
G02*
X27830000Y-50644550I-50800J0D01*
G01*
G37*
G36*
G01*
X27830000Y-47494550D02*
X26630000Y-47494550D01*
G75*
G02*
X26579200Y-47443750I0J50800D01*
G01*
X26579200Y-46243750D01*
G75*
G02*
X26630000Y-46192950I50800J0D01*
G01*
X27830000Y-46192950D01*
G75*
G02*
X27880800Y-46243750I0J-50800D01*
G01*
X27880800Y-47443750D01*
G75*
G02*
X27830000Y-47494550I-50800J0D01*
G01*
G37*
G36*
G01*
X138002250Y-50644550D02*
X136802250Y-50644550D01*
G75*
G02*
X136751450Y-50593750I0J50800D01*
G01*
X136751450Y-49393750D01*
G75*
G02*
X136802250Y-49342950I50800J0D01*
G01*
X138002250Y-49342950D01*
G75*
G02*
X138053050Y-49393750I0J-50800D01*
G01*
X138053050Y-50593750D01*
G75*
G02*
X138002250Y-50644550I-50800J0D01*
G01*
G37*
G36*
G01*
X138002250Y-47494550D02*
X136802250Y-47494550D01*
G75*
G02*
X136751450Y-47443750I0J50800D01*
G01*
X136751450Y-46243750D01*
G75*
G02*
X136802250Y-46192950I50800J0D01*
G01*
X138002250Y-46192950D01*
G75*
G02*
X138053050Y-46243750I0J-50800D01*
G01*
X138053050Y-47443750D01*
G75*
G02*
X138002250Y-47494550I-50800J0D01*
G01*
G37*
G36*
G01*
X45133500Y-88744550D02*
X43933500Y-88744550D01*
G75*
G02*
X43882700Y-88693750I0J50800D01*
G01*
X43882700Y-87493750D01*
G75*
G02*
X43933500Y-87442950I50800J0D01*
G01*
X45133500Y-87442950D01*
G75*
G02*
X45184300Y-87493750I0J-50800D01*
G01*
X45184300Y-88693750D01*
G75*
G02*
X45133500Y-88744550I-50800J0D01*
G01*
G37*
G36*
G01*
X45133500Y-85594550D02*
X43933500Y-85594550D01*
G75*
G02*
X43882700Y-85543750I0J50800D01*
G01*
X43882700Y-84343750D01*
G75*
G02*
X43933500Y-84292950I50800J0D01*
G01*
X45133500Y-84292950D01*
G75*
G02*
X45184300Y-84343750I0J-50800D01*
G01*
X45184300Y-85543750D01*
G75*
G02*
X45133500Y-85594550I-50800J0D01*
G01*
G37*
G36*
G01*
X85614750Y-69694550D02*
X84414750Y-69694550D01*
G75*
G02*
X84363950Y-69643750I0J50800D01*
G01*
X84363950Y-68443750D01*
G75*
G02*
X84414750Y-68392950I50800J0D01*
G01*
X85614750Y-68392950D01*
G75*
G02*
X85665550Y-68443750I0J-50800D01*
G01*
X85665550Y-69643750D01*
G75*
G02*
X85614750Y-69694550I-50800J0D01*
G01*
G37*
G36*
G01*
X85614750Y-66544550D02*
X84414750Y-66544550D01*
G75*
G02*
X84363950Y-66493750I0J50800D01*
G01*
X84363950Y-65293750D01*
G75*
G02*
X84414750Y-65242950I50800J0D01*
G01*
X85614750Y-65242950D01*
G75*
G02*
X85665550Y-65293750I0J-50800D01*
G01*
X85665550Y-66493750D01*
G75*
G02*
X85614750Y-66544550I-50800J0D01*
G01*
G37*
G36*
G01*
X318976100Y-107794550D02*
X317776100Y-107794550D01*
G75*
G02*
X317725300Y-107743750I0J50800D01*
G01*
X317725300Y-106543750D01*
G75*
G02*
X317776100Y-106492950I50800J0D01*
G01*
X318976100Y-106492950D01*
G75*
G02*
X319026900Y-106543750I0J-50800D01*
G01*
X319026900Y-107743750D01*
G75*
G02*
X318976100Y-107794550I-50800J0D01*
G01*
G37*
G36*
G01*
X318976100Y-104644550D02*
X317776100Y-104644550D01*
G75*
G02*
X317725300Y-104593750I0J50800D01*
G01*
X317725300Y-103393750D01*
G75*
G02*
X317776100Y-103342950I50800J0D01*
G01*
X318976100Y-103342950D01*
G75*
G02*
X319026900Y-103393750I0J-50800D01*
G01*
X319026900Y-104593750D01*
G75*
G02*
X318976100Y-104644550I-50800J0D01*
G01*
G37*
G36*
G01*
X118952250Y-50644550D02*
X117752250Y-50644550D01*
G75*
G02*
X117701450Y-50593750I0J50800D01*
G01*
X117701450Y-49393750D01*
G75*
G02*
X117752250Y-49342950I50800J0D01*
G01*
X118952250Y-49342950D01*
G75*
G02*
X119003050Y-49393750I0J-50800D01*
G01*
X119003050Y-50593750D01*
G75*
G02*
X118952250Y-50644550I-50800J0D01*
G01*
G37*
G36*
G01*
X118952250Y-47494550D02*
X117752250Y-47494550D01*
G75*
G02*
X117701450Y-47443750I0J50800D01*
G01*
X117701450Y-46243750D01*
G75*
G02*
X117752250Y-46192950I50800J0D01*
G01*
X118952250Y-46192950D01*
G75*
G02*
X119003050Y-46243750I0J-50800D01*
G01*
X119003050Y-47443750D01*
G75*
G02*
X118952250Y-47494550I-50800J0D01*
G01*
G37*
G36*
G01*
X61802250Y-50644550D02*
X60602250Y-50644550D01*
G75*
G02*
X60551450Y-50593750I0J50800D01*
G01*
X60551450Y-49393750D01*
G75*
G02*
X60602250Y-49342950I50800J0D01*
G01*
X61802250Y-49342950D01*
G75*
G02*
X61853050Y-49393750I0J-50800D01*
G01*
X61853050Y-50593750D01*
G75*
G02*
X61802250Y-50644550I-50800J0D01*
G01*
G37*
G36*
G01*
X61802250Y-47494550D02*
X60602250Y-47494550D01*
G75*
G02*
X60551450Y-47443750I0J50800D01*
G01*
X60551450Y-46243750D01*
G75*
G02*
X60602250Y-46192950I50800J0D01*
G01*
X61802250Y-46192950D01*
G75*
G02*
X61853050Y-46243750I0J-50800D01*
G01*
X61853050Y-47443750D01*
G75*
G02*
X61802250Y-47494550I-50800J0D01*
G01*
G37*
G36*
G01*
X318976100Y-69694550D02*
X317776100Y-69694550D01*
G75*
G02*
X317725300Y-69643750I0J50800D01*
G01*
X317725300Y-68443750D01*
G75*
G02*
X317776100Y-68392950I50800J0D01*
G01*
X318976100Y-68392950D01*
G75*
G02*
X319026900Y-68443750I0J-50800D01*
G01*
X319026900Y-69643750D01*
G75*
G02*
X318976100Y-69694550I-50800J0D01*
G01*
G37*
G36*
G01*
X318976100Y-66544550D02*
X317776100Y-66544550D01*
G75*
G02*
X317725300Y-66493750I0J50800D01*
G01*
X317725300Y-65293750D01*
G75*
G02*
X317776100Y-65242950I50800J0D01*
G01*
X318976100Y-65242950D01*
G75*
G02*
X319026900Y-65293750I0J-50800D01*
G01*
X319026900Y-66493750D01*
G75*
G02*
X318976100Y-66544550I-50800J0D01*
G01*
G37*
G36*
G01*
X318976100Y-88744550D02*
X317776100Y-88744550D01*
G75*
G02*
X317725300Y-88693750I0J50800D01*
G01*
X317725300Y-87493750D01*
G75*
G02*
X317776100Y-87442950I50800J0D01*
G01*
X318976100Y-87442950D01*
G75*
G02*
X319026900Y-87493750I0J-50800D01*
G01*
X319026900Y-88693750D01*
G75*
G02*
X318976100Y-88744550I-50800J0D01*
G01*
G37*
G36*
G01*
X318976100Y-85594550D02*
X317776100Y-85594550D01*
G75*
G02*
X317725300Y-85543750I0J50800D01*
G01*
X317725300Y-84343750D01*
G75*
G02*
X317776100Y-84292950I50800J0D01*
G01*
X318976100Y-84292950D01*
G75*
G02*
X319026900Y-84343750I0J-50800D01*
G01*
X319026900Y-85543750D01*
G75*
G02*
X318976100Y-85594550I-50800J0D01*
G01*
G37*
G36*
G01*
X233252250Y-50644550D02*
X232052250Y-50644550D01*
G75*
G02*
X232001450Y-50593750I0J50800D01*
G01*
X232001450Y-49393750D01*
G75*
G02*
X232052250Y-49342950I50800J0D01*
G01*
X233252250Y-49342950D01*
G75*
G02*
X233303050Y-49393750I0J-50800D01*
G01*
X233303050Y-50593750D01*
G75*
G02*
X233252250Y-50644550I-50800J0D01*
G01*
G37*
G36*
G01*
X233252250Y-47494550D02*
X232052250Y-47494550D01*
G75*
G02*
X232001450Y-47443750I0J50800D01*
G01*
X232001450Y-46243750D01*
G75*
G02*
X232052250Y-46192950I50800J0D01*
G01*
X233252250Y-46192950D01*
G75*
G02*
X233303050Y-46243750I0J-50800D01*
G01*
X233303050Y-47443750D01*
G75*
G02*
X233252250Y-47494550I-50800J0D01*
G01*
G37*
G36*
G01*
X214202250Y-50644550D02*
X213002250Y-50644550D01*
G75*
G02*
X212951450Y-50593750I0J50800D01*
G01*
X212951450Y-49393750D01*
G75*
G02*
X213002250Y-49342950I50800J0D01*
G01*
X214202250Y-49342950D01*
G75*
G02*
X214253050Y-49393750I0J-50800D01*
G01*
X214253050Y-50593750D01*
G75*
G02*
X214202250Y-50644550I-50800J0D01*
G01*
G37*
G36*
G01*
X214202250Y-47494550D02*
X213002250Y-47494550D01*
G75*
G02*
X212951450Y-47443750I0J50800D01*
G01*
X212951450Y-46243750D01*
G75*
G02*
X213002250Y-46192950I50800J0D01*
G01*
X214202250Y-46192950D01*
G75*
G02*
X214253050Y-46243750I0J-50800D01*
G01*
X214253050Y-47443750D01*
G75*
G02*
X214202250Y-47494550I-50800J0D01*
G01*
G37*
G36*
G01*
X171339750Y-88744550D02*
X170139750Y-88744550D01*
G75*
G02*
X170088950Y-88693750I0J50800D01*
G01*
X170088950Y-87493750D01*
G75*
G02*
X170139750Y-87442950I50800J0D01*
G01*
X171339750Y-87442950D01*
G75*
G02*
X171390550Y-87493750I0J-50800D01*
G01*
X171390550Y-88693750D01*
G75*
G02*
X171339750Y-88744550I-50800J0D01*
G01*
G37*
G36*
G01*
X171339750Y-85594550D02*
X170139750Y-85594550D01*
G75*
G02*
X170088950Y-85543750I0J50800D01*
G01*
X170088950Y-84343750D01*
G75*
G02*
X170139750Y-84292950I50800J0D01*
G01*
X171339750Y-84292950D01*
G75*
G02*
X171390550Y-84343750I0J-50800D01*
G01*
X171390550Y-85543750D01*
G75*
G02*
X171339750Y-85594550I-50800J0D01*
G01*
G37*
G36*
G01*
X242777250Y-31594550D02*
X241577250Y-31594550D01*
G75*
G02*
X241526450Y-31543750I0J50800D01*
G01*
X241526450Y-30343750D01*
G75*
G02*
X241577250Y-30292950I50800J0D01*
G01*
X242777250Y-30292950D01*
G75*
G02*
X242828050Y-30343750I0J-50800D01*
G01*
X242828050Y-31543750D01*
G75*
G02*
X242777250Y-31594550I-50800J0D01*
G01*
G37*
G36*
G01*
X242777250Y-28444550D02*
X241577250Y-28444550D01*
G75*
G02*
X241526450Y-28393750I0J50800D01*
G01*
X241526450Y-27193750D01*
G75*
G02*
X241577250Y-27142950I50800J0D01*
G01*
X242777250Y-27142950D01*
G75*
G02*
X242828050Y-27193750I0J-50800D01*
G01*
X242828050Y-28393750D01*
G75*
G02*
X242777250Y-28444550I-50800J0D01*
G01*
G37*
G36*
G01*
X190389750Y-88744550D02*
X189189750Y-88744550D01*
G75*
G02*
X189138950Y-88693750I0J50800D01*
G01*
X189138950Y-87493750D01*
G75*
G02*
X189189750Y-87442950I50800J0D01*
G01*
X190389750Y-87442950D01*
G75*
G02*
X190440550Y-87493750I0J-50800D01*
G01*
X190440550Y-88693750D01*
G75*
G02*
X190389750Y-88744550I-50800J0D01*
G01*
G37*
G36*
G01*
X190389750Y-85594550D02*
X189189750Y-85594550D01*
G75*
G02*
X189138950Y-85543750I0J50800D01*
G01*
X189138950Y-84343750D01*
G75*
G02*
X189189750Y-84292950I50800J0D01*
G01*
X190389750Y-84292950D01*
G75*
G02*
X190440550Y-84343750I0J-50800D01*
G01*
X190440550Y-85543750D01*
G75*
G02*
X190389750Y-85594550I-50800J0D01*
G01*
G37*
G36*
G01*
X280876100Y-107794550D02*
X279676100Y-107794550D01*
G75*
G02*
X279625300Y-107743750I0J50800D01*
G01*
X279625300Y-106543750D01*
G75*
G02*
X279676100Y-106492950I50800J0D01*
G01*
X280876100Y-106492950D01*
G75*
G02*
X280926900Y-106543750I0J-50800D01*
G01*
X280926900Y-107743750D01*
G75*
G02*
X280876100Y-107794550I-50800J0D01*
G01*
G37*
G36*
G01*
X280876100Y-104644550D02*
X279676100Y-104644550D01*
G75*
G02*
X279625300Y-104593750I0J50800D01*
G01*
X279625300Y-103393750D01*
G75*
G02*
X279676100Y-103342950I50800J0D01*
G01*
X280876100Y-103342950D01*
G75*
G02*
X280926900Y-103393750I0J-50800D01*
G01*
X280926900Y-104593750D01*
G75*
G02*
X280876100Y-104644550I-50800J0D01*
G01*
G37*
G36*
G01*
X195152250Y-50644550D02*
X193952250Y-50644550D01*
G75*
G02*
X193901450Y-50593750I0J50800D01*
G01*
X193901450Y-49393750D01*
G75*
G02*
X193952250Y-49342950I50800J0D01*
G01*
X195152250Y-49342950D01*
G75*
G02*
X195203050Y-49393750I0J-50800D01*
G01*
X195203050Y-50593750D01*
G75*
G02*
X195152250Y-50644550I-50800J0D01*
G01*
G37*
G36*
G01*
X195152250Y-47494550D02*
X193952250Y-47494550D01*
G75*
G02*
X193901450Y-47443750I0J50800D01*
G01*
X193901450Y-46243750D01*
G75*
G02*
X193952250Y-46192950I50800J0D01*
G01*
X195152250Y-46192950D01*
G75*
G02*
X195203050Y-46243750I0J-50800D01*
G01*
X195203050Y-47443750D01*
G75*
G02*
X195152250Y-47494550I-50800J0D01*
G01*
G37*
G36*
G01*
X231898100Y-107794550D02*
X230698100Y-107794550D01*
G75*
G02*
X230647300Y-107743750I0J50800D01*
G01*
X230647300Y-106543750D01*
G75*
G02*
X230698100Y-106492950I50800J0D01*
G01*
X231898100Y-106492950D01*
G75*
G02*
X231948900Y-106543750I0J-50800D01*
G01*
X231948900Y-107743750D01*
G75*
G02*
X231898100Y-107794550I-50800J0D01*
G01*
G37*
G36*
G01*
X231898100Y-104644550D02*
X230698100Y-104644550D01*
G75*
G02*
X230647300Y-104593750I0J50800D01*
G01*
X230647300Y-103393750D01*
G75*
G02*
X230698100Y-103342950I50800J0D01*
G01*
X231898100Y-103342950D01*
G75*
G02*
X231948900Y-103393750I0J-50800D01*
G01*
X231948900Y-104593750D01*
G75*
G02*
X231898100Y-104644550I-50800J0D01*
G01*
G37*
G36*
G01*
X123714750Y-69694550D02*
X122514750Y-69694550D01*
G75*
G02*
X122463950Y-69643750I0J50800D01*
G01*
X122463950Y-68443750D01*
G75*
G02*
X122514750Y-68392950I50800J0D01*
G01*
X123714750Y-68392950D01*
G75*
G02*
X123765550Y-68443750I0J-50800D01*
G01*
X123765550Y-69643750D01*
G75*
G02*
X123714750Y-69694550I-50800J0D01*
G01*
G37*
G36*
G01*
X123714750Y-66544550D02*
X122514750Y-66544550D01*
G75*
G02*
X122463950Y-66493750I0J50800D01*
G01*
X122463950Y-65293750D01*
G75*
G02*
X122514750Y-65242950I50800J0D01*
G01*
X123714750Y-65242950D01*
G75*
G02*
X123765550Y-65293750I0J-50800D01*
G01*
X123765550Y-66493750D01*
G75*
G02*
X123714750Y-66544550I-50800J0D01*
G01*
G37*
G36*
G01*
X52277250Y-31594550D02*
X51077250Y-31594550D01*
G75*
G02*
X51026450Y-31543750I0J50800D01*
G01*
X51026450Y-30343750D01*
G75*
G02*
X51077250Y-30292950I50800J0D01*
G01*
X52277250Y-30292950D01*
G75*
G02*
X52328050Y-30343750I0J-50800D01*
G01*
X52328050Y-31543750D01*
G75*
G02*
X52277250Y-31594550I-50800J0D01*
G01*
G37*
G36*
G01*
X52277250Y-28444550D02*
X51077250Y-28444550D01*
G75*
G02*
X51026450Y-28393750I0J50800D01*
G01*
X51026450Y-27193750D01*
G75*
G02*
X51077250Y-27142950I50800J0D01*
G01*
X52277250Y-27142950D01*
G75*
G02*
X52328050Y-27193750I0J-50800D01*
G01*
X52328050Y-28393750D01*
G75*
G02*
X52277250Y-28444550I-50800J0D01*
G01*
G37*
G36*
G01*
X261827250Y-31594550D02*
X260627250Y-31594550D01*
G75*
G02*
X260576450Y-31543750I0J50800D01*
G01*
X260576450Y-30343750D01*
G75*
G02*
X260627250Y-30292950I50800J0D01*
G01*
X261827250Y-30292950D01*
G75*
G02*
X261878050Y-30343750I0J-50800D01*
G01*
X261878050Y-31543750D01*
G75*
G02*
X261827250Y-31594550I-50800J0D01*
G01*
G37*
G36*
G01*
X261827250Y-28444550D02*
X260627250Y-28444550D01*
G75*
G02*
X260576450Y-28393750I0J50800D01*
G01*
X260576450Y-27193750D01*
G75*
G02*
X260627250Y-27142950I50800J0D01*
G01*
X261827250Y-27142950D01*
G75*
G02*
X261878050Y-27193750I0J-50800D01*
G01*
X261878050Y-28393750D01*
G75*
G02*
X261827250Y-28444550I-50800J0D01*
G01*
G37*
G36*
G01*
X99902250Y-50644550D02*
X98702250Y-50644550D01*
G75*
G02*
X98651450Y-50593750I0J50800D01*
G01*
X98651450Y-49393750D01*
G75*
G02*
X98702250Y-49342950I50800J0D01*
G01*
X99902250Y-49342950D01*
G75*
G02*
X99953050Y-49393750I0J-50800D01*
G01*
X99953050Y-50593750D01*
G75*
G02*
X99902250Y-50644550I-50800J0D01*
G01*
G37*
G36*
G01*
X99902250Y-47494550D02*
X98702250Y-47494550D01*
G75*
G02*
X98651450Y-47443750I0J50800D01*
G01*
X98651450Y-46243750D01*
G75*
G02*
X98702250Y-46192950I50800J0D01*
G01*
X99902250Y-46192950D01*
G75*
G02*
X99953050Y-46243750I0J-50800D01*
G01*
X99953050Y-47443750D01*
G75*
G02*
X99902250Y-47494550I-50800J0D01*
G01*
G37*
G36*
G01*
X299927250Y-107794550D02*
X298727250Y-107794550D01*
G75*
G02*
X298676450Y-107743750I0J50800D01*
G01*
X298676450Y-106543750D01*
G75*
G02*
X298727250Y-106492950I50800J0D01*
G01*
X299927250Y-106492950D01*
G75*
G02*
X299978050Y-106543750I0J-50800D01*
G01*
X299978050Y-107743750D01*
G75*
G02*
X299927250Y-107794550I-50800J0D01*
G01*
G37*
G36*
G01*
X299927250Y-104644550D02*
X298727250Y-104644550D01*
G75*
G02*
X298676450Y-104593750I0J50800D01*
G01*
X298676450Y-103393750D01*
G75*
G02*
X298727250Y-103342950I50800J0D01*
G01*
X299927250Y-103342950D01*
G75*
G02*
X299978050Y-103393750I0J-50800D01*
G01*
X299978050Y-104593750D01*
G75*
G02*
X299927250Y-104644550I-50800J0D01*
G01*
G37*
G36*
G01*
X318976100Y-50644550D02*
X317776100Y-50644550D01*
G75*
G02*
X317725300Y-50593750I0J50800D01*
G01*
X317725300Y-49393750D01*
G75*
G02*
X317776100Y-49342950I50800J0D01*
G01*
X318976100Y-49342950D01*
G75*
G02*
X319026900Y-49393750I0J-50800D01*
G01*
X319026900Y-50593750D01*
G75*
G02*
X318976100Y-50644550I-50800J0D01*
G01*
G37*
G36*
G01*
X318976100Y-47494550D02*
X317776100Y-47494550D01*
G75*
G02*
X317725300Y-47443750I0J50800D01*
G01*
X317725300Y-46243750D01*
G75*
G02*
X317776100Y-46192950I50800J0D01*
G01*
X318976100Y-46192950D01*
G75*
G02*
X319026900Y-46243750I0J-50800D01*
G01*
X319026900Y-47443750D01*
G75*
G02*
X318976100Y-47494550I-50800J0D01*
G01*
G37*
G36*
G01*
X104664750Y-69694550D02*
X103464750Y-69694550D01*
G75*
G02*
X103413950Y-69643750I0J50800D01*
G01*
X103413950Y-68443750D01*
G75*
G02*
X103464750Y-68392950I50800J0D01*
G01*
X104664750Y-68392950D01*
G75*
G02*
X104715550Y-68443750I0J-50800D01*
G01*
X104715550Y-69643750D01*
G75*
G02*
X104664750Y-69694550I-50800J0D01*
G01*
G37*
G36*
G01*
X104664750Y-66544550D02*
X103464750Y-66544550D01*
G75*
G02*
X103413950Y-66493750I0J50800D01*
G01*
X103413950Y-65293750D01*
G75*
G02*
X103464750Y-65242950I50800J0D01*
G01*
X104664750Y-65242950D01*
G75*
G02*
X104715550Y-65293750I0J-50800D01*
G01*
X104715550Y-66493750D01*
G75*
G02*
X104664750Y-66544550I-50800J0D01*
G01*
G37*
G36*
G01*
X35608500Y-107794550D02*
X34408500Y-107794550D01*
G75*
G02*
X34357700Y-107743750I0J50800D01*
G01*
X34357700Y-106543750D01*
G75*
G02*
X34408500Y-106492950I50800J0D01*
G01*
X35608500Y-106492950D01*
G75*
G02*
X35659300Y-106543750I0J-50800D01*
G01*
X35659300Y-107743750D01*
G75*
G02*
X35608500Y-107794550I-50800J0D01*
G01*
G37*
G36*
G01*
X35608500Y-104644550D02*
X34408500Y-104644550D01*
G75*
G02*
X34357700Y-104593750I0J50800D01*
G01*
X34357700Y-103393750D01*
G75*
G02*
X34408500Y-103342950I50800J0D01*
G01*
X35608500Y-103342950D01*
G75*
G02*
X35659300Y-103393750I0J-50800D01*
G01*
X35659300Y-104593750D01*
G75*
G02*
X35608500Y-104644550I-50800J0D01*
G01*
G37*
G36*
G01*
X261827250Y-107794550D02*
X260627250Y-107794550D01*
G75*
G02*
X260576450Y-107743750I0J50800D01*
G01*
X260576450Y-106543750D01*
G75*
G02*
X260627250Y-106492950I50800J0D01*
G01*
X261827250Y-106492950D01*
G75*
G02*
X261878050Y-106543750I0J-50800D01*
G01*
X261878050Y-107743750D01*
G75*
G02*
X261827250Y-107794550I-50800J0D01*
G01*
G37*
G36*
G01*
X261827250Y-104644550D02*
X260627250Y-104644550D01*
G75*
G02*
X260576450Y-104593750I0J50800D01*
G01*
X260576450Y-103393750D01*
G75*
G02*
X260627250Y-103342950I50800J0D01*
G01*
X261827250Y-103342950D01*
G75*
G02*
X261878050Y-103393750I0J-50800D01*
G01*
X261878050Y-104593750D01*
G75*
G02*
X261827250Y-104644550I-50800J0D01*
G01*
G37*
G36*
G01*
X209439750Y-88744550D02*
X208239750Y-88744550D01*
G75*
G02*
X208188950Y-88693750I0J50800D01*
G01*
X208188950Y-87493750D01*
G75*
G02*
X208239750Y-87442950I50800J0D01*
G01*
X209439750Y-87442950D01*
G75*
G02*
X209490550Y-87493750I0J-50800D01*
G01*
X209490550Y-88693750D01*
G75*
G02*
X209439750Y-88744550I-50800J0D01*
G01*
G37*
G36*
G01*
X209439750Y-85594550D02*
X208239750Y-85594550D01*
G75*
G02*
X208188950Y-85543750I0J50800D01*
G01*
X208188950Y-84343750D01*
G75*
G02*
X208239750Y-84292950I50800J0D01*
G01*
X209439750Y-84292950D01*
G75*
G02*
X209490550Y-84343750I0J-50800D01*
G01*
X209490550Y-85543750D01*
G75*
G02*
X209439750Y-85594550I-50800J0D01*
G01*
G37*
G36*
G01*
X25450000Y-69694550D02*
X24250000Y-69694550D01*
G75*
G02*
X24199200Y-69643750I0J50800D01*
G01*
X24199200Y-68443750D01*
G75*
G02*
X24250000Y-68392950I50800J0D01*
G01*
X25450000Y-68392950D01*
G75*
G02*
X25500800Y-68443750I0J-50800D01*
G01*
X25500800Y-69643750D01*
G75*
G02*
X25450000Y-69694550I-50800J0D01*
G01*
G37*
G36*
G01*
X25450000Y-66544550D02*
X24250000Y-66544550D01*
G75*
G02*
X24199200Y-66493750I0J50800D01*
G01*
X24199200Y-65293750D01*
G75*
G02*
X24250000Y-65242950I50800J0D01*
G01*
X25450000Y-65242950D01*
G75*
G02*
X25500800Y-65293750I0J-50800D01*
G01*
X25500800Y-66493750D01*
G75*
G02*
X25450000Y-66544550I-50800J0D01*
G01*
G37*
G36*
G01*
X114189750Y-88744550D02*
X112989750Y-88744550D01*
G75*
G02*
X112938950Y-88693750I0J50800D01*
G01*
X112938950Y-87493750D01*
G75*
G02*
X112989750Y-87442950I50800J0D01*
G01*
X114189750Y-87442950D01*
G75*
G02*
X114240550Y-87493750I0J-50800D01*
G01*
X114240550Y-88693750D01*
G75*
G02*
X114189750Y-88744550I-50800J0D01*
G01*
G37*
G36*
G01*
X114189750Y-85594550D02*
X112989750Y-85594550D01*
G75*
G02*
X112938950Y-85543750I0J50800D01*
G01*
X112938950Y-84343750D01*
G75*
G02*
X112989750Y-84292950I50800J0D01*
G01*
X114189750Y-84292950D01*
G75*
G02*
X114240550Y-84343750I0J-50800D01*
G01*
X114240550Y-85543750D01*
G75*
G02*
X114189750Y-85594550I-50800J0D01*
G01*
G37*
G36*
G01*
X295164750Y-50644550D02*
X293964750Y-50644550D01*
G75*
G02*
X293913950Y-50593750I0J50800D01*
G01*
X293913950Y-49393750D01*
G75*
G02*
X293964750Y-49342950I50800J0D01*
G01*
X295164750Y-49342950D01*
G75*
G02*
X295215550Y-49393750I0J-50800D01*
G01*
X295215550Y-50593750D01*
G75*
G02*
X295164750Y-50644550I-50800J0D01*
G01*
G37*
G36*
G01*
X295164750Y-47494550D02*
X293964750Y-47494550D01*
G75*
G02*
X293913950Y-47443750I0J50800D01*
G01*
X293913950Y-46243750D01*
G75*
G02*
X293964750Y-46192950I50800J0D01*
G01*
X295164750Y-46192950D01*
G75*
G02*
X295215550Y-46243750I0J-50800D01*
G01*
X295215550Y-47443750D01*
G75*
G02*
X295164750Y-47494550I-50800J0D01*
G01*
G37*
G36*
G01*
X290402250Y-31594550D02*
X289202250Y-31594550D01*
G75*
G02*
X289151450Y-31543750I0J50800D01*
G01*
X289151450Y-30343750D01*
G75*
G02*
X289202250Y-30292950I50800J0D01*
G01*
X290402250Y-30292950D01*
G75*
G02*
X290453050Y-30343750I0J-50800D01*
G01*
X290453050Y-31543750D01*
G75*
G02*
X290402250Y-31594550I-50800J0D01*
G01*
G37*
G36*
G01*
X290402250Y-28444550D02*
X289202250Y-28444550D01*
G75*
G02*
X289151450Y-28393750I0J50800D01*
G01*
X289151450Y-27193750D01*
G75*
G02*
X289202250Y-27142950I50800J0D01*
G01*
X290402250Y-27142950D01*
G75*
G02*
X290453050Y-27193750I0J-50800D01*
G01*
X290453050Y-28393750D01*
G75*
G02*
X290402250Y-28444550I-50800J0D01*
G01*
G37*
G36*
G01*
X152289750Y-88744550D02*
X151089750Y-88744550D01*
G75*
G02*
X151038950Y-88693750I0J50800D01*
G01*
X151038950Y-87493750D01*
G75*
G02*
X151089750Y-87442950I50800J0D01*
G01*
X152289750Y-87442950D01*
G75*
G02*
X152340550Y-87493750I0J-50800D01*
G01*
X152340550Y-88693750D01*
G75*
G02*
X152289750Y-88744550I-50800J0D01*
G01*
G37*
G36*
G01*
X152289750Y-85594550D02*
X151089750Y-85594550D01*
G75*
G02*
X151038950Y-85543750I0J50800D01*
G01*
X151038950Y-84343750D01*
G75*
G02*
X151089750Y-84292950I50800J0D01*
G01*
X152289750Y-84292950D01*
G75*
G02*
X152340550Y-84343750I0J-50800D01*
G01*
X152340550Y-85543750D01*
G75*
G02*
X152289750Y-85594550I-50800J0D01*
G01*
G37*
G36*
G01*
X212848100Y-107794550D02*
X211648100Y-107794550D01*
G75*
G02*
X211597300Y-107743750I0J50800D01*
G01*
X211597300Y-106543750D01*
G75*
G02*
X211648100Y-106492950I50800J0D01*
G01*
X212848100Y-106492950D01*
G75*
G02*
X212898900Y-106543750I0J-50800D01*
G01*
X212898900Y-107743750D01*
G75*
G02*
X212848100Y-107794550I-50800J0D01*
G01*
G37*
G36*
G01*
X212848100Y-104644550D02*
X211648100Y-104644550D01*
G75*
G02*
X211597300Y-104593750I0J50800D01*
G01*
X211597300Y-103393750D01*
G75*
G02*
X211648100Y-103342950I50800J0D01*
G01*
X212848100Y-103342950D01*
G75*
G02*
X212898900Y-103393750I0J-50800D01*
G01*
X212898900Y-104593750D01*
G75*
G02*
X212848100Y-104644550I-50800J0D01*
G01*
G37*
G36*
G01*
X66564750Y-69694550D02*
X65364750Y-69694550D01*
G75*
G02*
X65313950Y-69643750I0J50800D01*
G01*
X65313950Y-68443750D01*
G75*
G02*
X65364750Y-68392950I50800J0D01*
G01*
X66564750Y-68392950D01*
G75*
G02*
X66615550Y-68443750I0J-50800D01*
G01*
X66615550Y-69643750D01*
G75*
G02*
X66564750Y-69694550I-50800J0D01*
G01*
G37*
G36*
G01*
X66564750Y-66544550D02*
X65364750Y-66544550D01*
G75*
G02*
X65313950Y-66493750I0J50800D01*
G01*
X65313950Y-65293750D01*
G75*
G02*
X65364750Y-65242950I50800J0D01*
G01*
X66564750Y-65242950D01*
G75*
G02*
X66615550Y-65293750I0J-50800D01*
G01*
X66615550Y-66493750D01*
G75*
G02*
X66564750Y-66544550I-50800J0D01*
G01*
G37*
G36*
G01*
X318976100Y-31594550D02*
X317776100Y-31594550D01*
G75*
G02*
X317725300Y-31543750I0J50800D01*
G01*
X317725300Y-30343750D01*
G75*
G02*
X317776100Y-30292950I50800J0D01*
G01*
X318976100Y-30292950D01*
G75*
G02*
X319026900Y-30343750I0J-50800D01*
G01*
X319026900Y-31543750D01*
G75*
G02*
X318976100Y-31594550I-50800J0D01*
G01*
G37*
G36*
G01*
X318976100Y-28444550D02*
X317776100Y-28444550D01*
G75*
G02*
X317725300Y-28393750I0J50800D01*
G01*
X317725300Y-27193750D01*
G75*
G02*
X317776100Y-27142950I50800J0D01*
G01*
X318976100Y-27142950D01*
G75*
G02*
X319026900Y-27193750I0J-50800D01*
G01*
X319026900Y-28393750D01*
G75*
G02*
X318976100Y-28444550I-50800J0D01*
G01*
G37*
G36*
G01*
X271352250Y-50644550D02*
X270152250Y-50644550D01*
G75*
G02*
X270101450Y-50593750I0J50800D01*
G01*
X270101450Y-49393750D01*
G75*
G02*
X270152250Y-49342950I50800J0D01*
G01*
X271352250Y-49342950D01*
G75*
G02*
X271403050Y-49393750I0J-50800D01*
G01*
X271403050Y-50593750D01*
G75*
G02*
X271352250Y-50644550I-50800J0D01*
G01*
G37*
G36*
G01*
X271352250Y-47494550D02*
X270152250Y-47494550D01*
G75*
G02*
X270101450Y-47443750I0J50800D01*
G01*
X270101450Y-46243750D01*
G75*
G02*
X270152250Y-46192950I50800J0D01*
G01*
X271352250Y-46192950D01*
G75*
G02*
X271403050Y-46243750I0J-50800D01*
G01*
X271403050Y-47443750D01*
G75*
G02*
X271352250Y-47494550I-50800J0D01*
G01*
G37*
G36*
G01*
X252302250Y-50644550D02*
X251102250Y-50644550D01*
G75*
G02*
X251051450Y-50593750I0J50800D01*
G01*
X251051450Y-49393750D01*
G75*
G02*
X251102250Y-49342950I50800J0D01*
G01*
X252302250Y-49342950D01*
G75*
G02*
X252353050Y-49393750I0J-50800D01*
G01*
X252353050Y-50593750D01*
G75*
G02*
X252302250Y-50644550I-50800J0D01*
G01*
G37*
G36*
G01*
X252302250Y-47494550D02*
X251102250Y-47494550D01*
G75*
G02*
X251051450Y-47443750I0J50800D01*
G01*
X251051450Y-46243750D01*
G75*
G02*
X251102250Y-46192950I50800J0D01*
G01*
X252302250Y-46192950D01*
G75*
G02*
X252353050Y-46243750I0J-50800D01*
G01*
X252353050Y-47443750D01*
G75*
G02*
X252302250Y-47494550I-50800J0D01*
G01*
G37*
G36*
G01*
X204677250Y-31594550D02*
X203477250Y-31594550D01*
G75*
G02*
X203426450Y-31543750I0J50800D01*
G01*
X203426450Y-30343750D01*
G75*
G02*
X203477250Y-30292950I50800J0D01*
G01*
X204677250Y-30292950D01*
G75*
G02*
X204728050Y-30343750I0J-50800D01*
G01*
X204728050Y-31543750D01*
G75*
G02*
X204677250Y-31594550I-50800J0D01*
G01*
G37*
G36*
G01*
X204677250Y-28444550D02*
X203477250Y-28444550D01*
G75*
G02*
X203426450Y-28393750I0J50800D01*
G01*
X203426450Y-27193750D01*
G75*
G02*
X203477250Y-27142950I50800J0D01*
G01*
X204677250Y-27142950D01*
G75*
G02*
X204728050Y-27193750I0J-50800D01*
G01*
X204728050Y-28393750D01*
G75*
G02*
X204677250Y-28444550I-50800J0D01*
G01*
G37*
G36*
G01*
X185627250Y-31594550D02*
X184427250Y-31594550D01*
G75*
G02*
X184376450Y-31543750I0J50800D01*
G01*
X184376450Y-30343750D01*
G75*
G02*
X184427250Y-30292950I50800J0D01*
G01*
X185627250Y-30292950D01*
G75*
G02*
X185678050Y-30343750I0J-50800D01*
G01*
X185678050Y-31543750D01*
G75*
G02*
X185627250Y-31594550I-50800J0D01*
G01*
G37*
G36*
G01*
X185627250Y-28444550D02*
X184427250Y-28444550D01*
G75*
G02*
X184376450Y-28393750I0J50800D01*
G01*
X184376450Y-27193750D01*
G75*
G02*
X184427250Y-27142950I50800J0D01*
G01*
X185627250Y-27142950D01*
G75*
G02*
X185678050Y-27193750I0J-50800D01*
G01*
X185678050Y-28393750D01*
G75*
G02*
X185627250Y-28444550I-50800J0D01*
G01*
G37*
G36*
G01*
X166577250Y-31594550D02*
X165377250Y-31594550D01*
G75*
G02*
X165326450Y-31543750I0J50800D01*
G01*
X165326450Y-30343750D01*
G75*
G02*
X165377250Y-30292950I50800J0D01*
G01*
X166577250Y-30292950D01*
G75*
G02*
X166628050Y-30343750I0J-50800D01*
G01*
X166628050Y-31543750D01*
G75*
G02*
X166577250Y-31594550I-50800J0D01*
G01*
G37*
G36*
G01*
X166577250Y-28444550D02*
X165377250Y-28444550D01*
G75*
G02*
X165326450Y-28393750I0J50800D01*
G01*
X165326450Y-27193750D01*
G75*
G02*
X165377250Y-27142950I50800J0D01*
G01*
X166577250Y-27142950D01*
G75*
G02*
X166628050Y-27193750I0J-50800D01*
G01*
X166628050Y-28393750D01*
G75*
G02*
X166577250Y-28444550I-50800J0D01*
G01*
G37*
G36*
G01*
X147527250Y-31594550D02*
X146327250Y-31594550D01*
G75*
G02*
X146276450Y-31543750I0J50800D01*
G01*
X146276450Y-30343750D01*
G75*
G02*
X146327250Y-30292950I50800J0D01*
G01*
X147527250Y-30292950D01*
G75*
G02*
X147578050Y-30343750I0J-50800D01*
G01*
X147578050Y-31543750D01*
G75*
G02*
X147527250Y-31594550I-50800J0D01*
G01*
G37*
G36*
G01*
X147527250Y-28444550D02*
X146327250Y-28444550D01*
G75*
G02*
X146276450Y-28393750I0J50800D01*
G01*
X146276450Y-27193750D01*
G75*
G02*
X146327250Y-27142950I50800J0D01*
G01*
X147527250Y-27142950D01*
G75*
G02*
X147578050Y-27193750I0J-50800D01*
G01*
X147578050Y-28393750D01*
G75*
G02*
X147527250Y-28444550I-50800J0D01*
G01*
G37*
G36*
G01*
X128477250Y-31594550D02*
X127277250Y-31594550D01*
G75*
G02*
X127226450Y-31543750I0J50800D01*
G01*
X127226450Y-30343750D01*
G75*
G02*
X127277250Y-30292950I50800J0D01*
G01*
X128477250Y-30292950D01*
G75*
G02*
X128528050Y-30343750I0J-50800D01*
G01*
X128528050Y-31543750D01*
G75*
G02*
X128477250Y-31594550I-50800J0D01*
G01*
G37*
G36*
G01*
X128477250Y-28444550D02*
X127277250Y-28444550D01*
G75*
G02*
X127226450Y-28393750I0J50800D01*
G01*
X127226450Y-27193750D01*
G75*
G02*
X127277250Y-27142950I50800J0D01*
G01*
X128477250Y-27142950D01*
G75*
G02*
X128528050Y-27193750I0J-50800D01*
G01*
X128528050Y-28393750D01*
G75*
G02*
X128477250Y-28444550I-50800J0D01*
G01*
G37*
G36*
G01*
X109427250Y-31594550D02*
X108227250Y-31594550D01*
G75*
G02*
X108176450Y-31543750I0J50800D01*
G01*
X108176450Y-30343750D01*
G75*
G02*
X108227250Y-30292950I50800J0D01*
G01*
X109427250Y-30292950D01*
G75*
G02*
X109478050Y-30343750I0J-50800D01*
G01*
X109478050Y-31543750D01*
G75*
G02*
X109427250Y-31594550I-50800J0D01*
G01*
G37*
G36*
G01*
X109427250Y-28444550D02*
X108227250Y-28444550D01*
G75*
G02*
X108176450Y-28393750I0J50800D01*
G01*
X108176450Y-27193750D01*
G75*
G02*
X108227250Y-27142950I50800J0D01*
G01*
X109427250Y-27142950D01*
G75*
G02*
X109478050Y-27193750I0J-50800D01*
G01*
X109478050Y-28393750D01*
G75*
G02*
X109427250Y-28444550I-50800J0D01*
G01*
G37*
G36*
G01*
X90377250Y-31594550D02*
X89177250Y-31594550D01*
G75*
G02*
X89126450Y-31543750I0J50800D01*
G01*
X89126450Y-30343750D01*
G75*
G02*
X89177250Y-30292950I50800J0D01*
G01*
X90377250Y-30292950D01*
G75*
G02*
X90428050Y-30343750I0J-50800D01*
G01*
X90428050Y-31543750D01*
G75*
G02*
X90377250Y-31594550I-50800J0D01*
G01*
G37*
G36*
G01*
X90377250Y-28444550D02*
X89177250Y-28444550D01*
G75*
G02*
X89126450Y-28393750I0J50800D01*
G01*
X89126450Y-27193750D01*
G75*
G02*
X89177250Y-27142950I50800J0D01*
G01*
X90377250Y-27142950D01*
G75*
G02*
X90428050Y-27193750I0J-50800D01*
G01*
X90428050Y-28393750D01*
G75*
G02*
X90377250Y-28444550I-50800J0D01*
G01*
G37*
G36*
G01*
X71327250Y-31594550D02*
X70127250Y-31594550D01*
G75*
G02*
X70076450Y-31543750I0J50800D01*
G01*
X70076450Y-30343750D01*
G75*
G02*
X70127250Y-30292950I50800J0D01*
G01*
X71327250Y-30292950D01*
G75*
G02*
X71378050Y-30343750I0J-50800D01*
G01*
X71378050Y-31543750D01*
G75*
G02*
X71327250Y-31594550I-50800J0D01*
G01*
G37*
G36*
G01*
X71327250Y-28444550D02*
X70127250Y-28444550D01*
G75*
G02*
X70076450Y-28393750I0J50800D01*
G01*
X70076450Y-27193750D01*
G75*
G02*
X70127250Y-27142950I50800J0D01*
G01*
X71327250Y-27142950D01*
G75*
G02*
X71378050Y-27193750I0J-50800D01*
G01*
X71378050Y-28393750D01*
G75*
G02*
X71327250Y-28444550I-50800J0D01*
G01*
G37*
G36*
G01*
X56956250Y-31594550D02*
X55756250Y-31594550D01*
G75*
G02*
X55705450Y-31543750I0J50800D01*
G01*
X55705450Y-30343750D01*
G75*
G02*
X55756250Y-30292950I50800J0D01*
G01*
X56956250Y-30292950D01*
G75*
G02*
X57007050Y-30343750I0J-50800D01*
G01*
X57007050Y-31543750D01*
G75*
G02*
X56956250Y-31594550I-50800J0D01*
G01*
G37*
G36*
G01*
X56956250Y-28444550D02*
X55756250Y-28444550D01*
G75*
G02*
X55705450Y-28393750I0J50800D01*
G01*
X55705450Y-27193750D01*
G75*
G02*
X55756250Y-27142950I50800J0D01*
G01*
X56956250Y-27142950D01*
G75*
G02*
X57007050Y-27193750I0J-50800D01*
G01*
X57007050Y-28393750D01*
G75*
G02*
X56956250Y-28444550I-50800J0D01*
G01*
G37*
G36*
G01*
X223727250Y-31594550D02*
X222527250Y-31594550D01*
G75*
G02*
X222476450Y-31543750I0J50800D01*
G01*
X222476450Y-30343750D01*
G75*
G02*
X222527250Y-30292950I50800J0D01*
G01*
X223727250Y-30292950D01*
G75*
G02*
X223778050Y-30343750I0J-50800D01*
G01*
X223778050Y-31543750D01*
G75*
G02*
X223727250Y-31594550I-50800J0D01*
G01*
G37*
G36*
G01*
X223727250Y-28444550D02*
X222527250Y-28444550D01*
G75*
G02*
X222476450Y-28393750I0J50800D01*
G01*
X222476450Y-27193750D01*
G75*
G02*
X222527250Y-27142950I50800J0D01*
G01*
X223727250Y-27142950D01*
G75*
G02*
X223778050Y-27193750I0J-50800D01*
G01*
X223778050Y-28393750D01*
G75*
G02*
X223727250Y-28444550I-50800J0D01*
G01*
G37*
G36*
G01*
X154671000Y-107794550D02*
X153471000Y-107794550D01*
G75*
G02*
X153420200Y-107743750I0J50800D01*
G01*
X153420200Y-106543750D01*
G75*
G02*
X153471000Y-106492950I50800J0D01*
G01*
X154671000Y-106492950D01*
G75*
G02*
X154721800Y-106543750I0J-50800D01*
G01*
X154721800Y-107743750D01*
G75*
G02*
X154671000Y-107794550I-50800J0D01*
G01*
G37*
G36*
G01*
X154671000Y-104644550D02*
X153471000Y-104644550D01*
G75*
G02*
X153420200Y-104593750I0J50800D01*
G01*
X153420200Y-103393750D01*
G75*
G02*
X153471000Y-103342950I50800J0D01*
G01*
X154671000Y-103342950D01*
G75*
G02*
X154721800Y-103393750I0J-50800D01*
G01*
X154721800Y-104593750D01*
G75*
G02*
X154671000Y-104644550I-50800J0D01*
G01*
G37*
X289240000Y-24445000D03*
D12*
X286700000Y-29525000D03*
D11*
X282890000Y-26985000D03*
D10*
X281620000Y-29525000D03*
X291780000Y-29525000D03*
D13*
X274793750Y-22540000D03*
X298606250Y-22540000D03*
D12*
X274793750Y-37780000D03*
X298606250Y-37780000D03*
D11*
X153509588Y-100645000D03*
D12*
X150969588Y-105725000D03*
D11*
X147159588Y-103185000D03*
D10*
X145889588Y-105725000D03*
X156049588Y-105725000D03*
D13*
X100969688Y-112710000D03*
X200969488Y-112710000D03*
D12*
X100969688Y-97470000D03*
X200969488Y-97470000D03*
D11*
X82071250Y-100645000D03*
D12*
X79531250Y-105725000D03*
D11*
X75721250Y-103185000D03*
D10*
X74451250Y-105725000D03*
X84611250Y-105725000D03*
D11*
X58258750Y-100645000D03*
D12*
X55718750Y-105725000D03*
D11*
X51908750Y-103185000D03*
D10*
X50638750Y-105725000D03*
X60798750Y-105725000D03*
D11*
X34446250Y-100645000D03*
D12*
X31906250Y-105725000D03*
D11*
X28096250Y-103185000D03*
D10*
X26826250Y-105725000D03*
X36986250Y-105725000D03*
D11*
X43971250Y-81595000D03*
D12*
X41431250Y-86675000D03*
D11*
X37621250Y-84135000D03*
D10*
X36351250Y-86675000D03*
X46511250Y-86675000D03*
D13*
X29525000Y-79690000D03*
X53337500Y-79690000D03*
D12*
X29525000Y-94930000D03*
X53337500Y-94930000D03*
D11*
X286858750Y-62545000D03*
D12*
X284318750Y-67625000D03*
D11*
X280508750Y-65085000D03*
D10*
X279238750Y-67625000D03*
X289398750Y-67625000D03*
D13*
X272412500Y-60640000D03*
X296225000Y-60640000D03*
D12*
X272412500Y-75880000D03*
X296225000Y-75880000D03*
D11*
X272571250Y-81595000D03*
D12*
X270031250Y-86675000D03*
D11*
X266221250Y-84135000D03*
D10*
X264951250Y-86675000D03*
X275111250Y-86675000D03*
D11*
X294002500Y-43495000D03*
D12*
X291462500Y-48575000D03*
D11*
X287652500Y-46035000D03*
D10*
X286382500Y-48575000D03*
X296542500Y-48575000D03*
D11*
X155890000Y-43495000D03*
D12*
X153350000Y-48575000D03*
D11*
X149540000Y-46035000D03*
D10*
X148270000Y-48575000D03*
X158430000Y-48575000D03*
D11*
X270190000Y-43495000D03*
D12*
X267650000Y-48575000D03*
D11*
X263840000Y-46035000D03*
D10*
X262570000Y-48575000D03*
X272730000Y-48575000D03*
D11*
X93977500Y-81595000D03*
D12*
X91437500Y-86675000D03*
D11*
X87627500Y-84135000D03*
D10*
X86357500Y-86675000D03*
X96517500Y-86675000D03*
D11*
X32065000Y-24445000D03*
D12*
X29525000Y-29525000D03*
D11*
X25715000Y-26985000D03*
D10*
X24445000Y-29525000D03*
X34605000Y-29525000D03*
D11*
X113027500Y-81595000D03*
D12*
X110487500Y-86675000D03*
D11*
X106677500Y-84135000D03*
D10*
X105407500Y-86675000D03*
X115567500Y-86675000D03*
D11*
X79690000Y-43495000D03*
D12*
X77150000Y-48575000D03*
D11*
X73340000Y-46035000D03*
D10*
X72070000Y-48575000D03*
X82230000Y-48575000D03*
D11*
X222565000Y-24445000D03*
D12*
X220025000Y-29525000D03*
D11*
X216215000Y-26985000D03*
D10*
X214945000Y-29525000D03*
X225105000Y-29525000D03*
D11*
X193990000Y-43495000D03*
D12*
X191450000Y-48575000D03*
D11*
X187640000Y-46035000D03*
D10*
X186370000Y-48575000D03*
X196530000Y-48575000D03*
D11*
X74927500Y-81595000D03*
D12*
X72387500Y-86675000D03*
D11*
X68577500Y-84135000D03*
D10*
X67307500Y-86675000D03*
X77467500Y-86675000D03*
D11*
X132077500Y-81595000D03*
D12*
X129537500Y-86675000D03*
D11*
X125727500Y-84135000D03*
D10*
X124457500Y-86675000D03*
X134617500Y-86675000D03*
D11*
X298765000Y-81595000D03*
D12*
X296225000Y-86675000D03*
D11*
X292415000Y-84135000D03*
D10*
X291145000Y-86675000D03*
X301305000Y-86675000D03*
D11*
X174940000Y-43495000D03*
D12*
X172400000Y-48575000D03*
D11*
X168590000Y-46035000D03*
D10*
X167320000Y-48575000D03*
X177480000Y-48575000D03*
D11*
X136840000Y-43495000D03*
D12*
X134300000Y-48575000D03*
D11*
X130490000Y-46035000D03*
D10*
X129220000Y-48575000D03*
X139380000Y-48575000D03*
D11*
X246377500Y-81595000D03*
D12*
X243837500Y-86675000D03*
D11*
X240027500Y-84135000D03*
D10*
X238757500Y-86675000D03*
X248917500Y-86675000D03*
D11*
X236852500Y-62545000D03*
D12*
X234312500Y-67625000D03*
D11*
X230502500Y-65085000D03*
D10*
X229232500Y-67625000D03*
X239392500Y-67625000D03*
D11*
X84452500Y-62545000D03*
D12*
X81912500Y-67625000D03*
D11*
X78102500Y-65085000D03*
D10*
X76832500Y-67625000D03*
X86992500Y-67625000D03*
D11*
X317815000Y-100645000D03*
D12*
X315275000Y-105725000D03*
D11*
X311465000Y-103185000D03*
D10*
X310195000Y-105725000D03*
X320355000Y-105725000D03*
D11*
X117790000Y-43495000D03*
D12*
X115250000Y-48575000D03*
D11*
X111440000Y-46035000D03*
D10*
X110170000Y-48575000D03*
X120330000Y-48575000D03*
D11*
X255902500Y-62545000D03*
D12*
X253362500Y-67625000D03*
D11*
X249552500Y-65085000D03*
D10*
X248282500Y-67625000D03*
X258442500Y-67625000D03*
D11*
X317815000Y-62545000D03*
D12*
X315275000Y-67625000D03*
D11*
X311465000Y-65085000D03*
D10*
X310195000Y-67625000D03*
X320355000Y-67625000D03*
D11*
X317815000Y-81595000D03*
D12*
X315275000Y-86675000D03*
D11*
X311465000Y-84135000D03*
D10*
X310195000Y-86675000D03*
X320355000Y-86675000D03*
D11*
X232090000Y-43495000D03*
D12*
X229550000Y-48575000D03*
D11*
X225740000Y-46035000D03*
D10*
X224470000Y-48575000D03*
X234630000Y-48575000D03*
D11*
X241615000Y-24445000D03*
D12*
X239075000Y-29525000D03*
D11*
X235265000Y-26985000D03*
D10*
X233995000Y-29525000D03*
X244155000Y-29525000D03*
D11*
X189227500Y-81595000D03*
D12*
X186687500Y-86675000D03*
D11*
X182877500Y-84135000D03*
D10*
X181607500Y-86675000D03*
X191767500Y-86675000D03*
D11*
X279715000Y-100645000D03*
D12*
X277175000Y-105725000D03*
D11*
X273365000Y-103185000D03*
D10*
X272095000Y-105725000D03*
X282255000Y-105725000D03*
D11*
X217802500Y-62545000D03*
D12*
X215262500Y-67625000D03*
D11*
X211452500Y-65085000D03*
D10*
X210182500Y-67625000D03*
X220342500Y-67625000D03*
D11*
X198752500Y-62545000D03*
D12*
X196212500Y-67625000D03*
D11*
X192402500Y-65085000D03*
D10*
X191132500Y-67625000D03*
X201292500Y-67625000D03*
D11*
X179702500Y-62545000D03*
D12*
X177162500Y-67625000D03*
D11*
X173352500Y-65085000D03*
D10*
X172082500Y-67625000D03*
X182242500Y-67625000D03*
D11*
X160652500Y-62545000D03*
D12*
X158112500Y-67625000D03*
D11*
X154302500Y-65085000D03*
D10*
X153032500Y-67625000D03*
X163192500Y-67625000D03*
D11*
X141602500Y-62545000D03*
D12*
X139062500Y-67625000D03*
D11*
X135252500Y-65085000D03*
D10*
X133982500Y-67625000D03*
X144142500Y-67625000D03*
D11*
X241615000Y-100645000D03*
D12*
X239075000Y-105725000D03*
D11*
X235265000Y-103185000D03*
D10*
X233995000Y-105725000D03*
X244155000Y-105725000D03*
D11*
X122552500Y-62545000D03*
D12*
X120012500Y-67625000D03*
D11*
X116202500Y-65085000D03*
D10*
X114932500Y-67625000D03*
X125092500Y-67625000D03*
D11*
X260665000Y-24445000D03*
D12*
X258125000Y-29525000D03*
D11*
X254315000Y-26985000D03*
D10*
X253045000Y-29525000D03*
X263205000Y-29525000D03*
D11*
X98740000Y-43495000D03*
D12*
X96200000Y-48575000D03*
D11*
X92390000Y-46035000D03*
D10*
X91120000Y-48575000D03*
X101280000Y-48575000D03*
D11*
X298765000Y-100645000D03*
D12*
X296225000Y-105725000D03*
D11*
X292415000Y-103185000D03*
D10*
X291145000Y-105725000D03*
X301305000Y-105725000D03*
D11*
X227327500Y-81595000D03*
D12*
X224787500Y-86675000D03*
D11*
X220977500Y-84135000D03*
D10*
X219707500Y-86675000D03*
X229867500Y-86675000D03*
D11*
X317815000Y-43495000D03*
D12*
X315275000Y-48575000D03*
D11*
X311465000Y-46035000D03*
D10*
X310195000Y-48575000D03*
X320355000Y-48575000D03*
D11*
X103502500Y-62545000D03*
D12*
X100962500Y-67625000D03*
D11*
X97152500Y-65085000D03*
D10*
X95882500Y-67625000D03*
X106042500Y-67625000D03*
D11*
X260665000Y-100645000D03*
D12*
X258125000Y-105725000D03*
D11*
X254315000Y-103185000D03*
D10*
X253045000Y-105725000D03*
X263205000Y-105725000D03*
D11*
X208277500Y-81595000D03*
D12*
X205737500Y-86675000D03*
D11*
X201927500Y-84135000D03*
D10*
X200657500Y-86675000D03*
X210817500Y-86675000D03*
D11*
X151127500Y-81595000D03*
D12*
X148587500Y-86675000D03*
D11*
X144777500Y-84135000D03*
D10*
X143507500Y-86675000D03*
X153667500Y-86675000D03*
D11*
X222565000Y-100645000D03*
D12*
X220025000Y-105725000D03*
D11*
X216215000Y-103185000D03*
D10*
X214945000Y-105725000D03*
X225105000Y-105725000D03*
D11*
X317815000Y-24445000D03*
D12*
X315275000Y-29525000D03*
D11*
X311465000Y-26985000D03*
D10*
X310195000Y-29525000D03*
X320355000Y-29525000D03*
D11*
X251140000Y-43495000D03*
D12*
X248600000Y-48575000D03*
D11*
X244790000Y-46035000D03*
D10*
X243520000Y-48575000D03*
X253680000Y-48575000D03*
D11*
X203515000Y-24445000D03*
D12*
X200975000Y-29525000D03*
D11*
X197165000Y-26985000D03*
D10*
X195895000Y-29525000D03*
X206055000Y-29525000D03*
D11*
X184465000Y-24445000D03*
D12*
X181925000Y-29525000D03*
D11*
X178115000Y-26985000D03*
D10*
X176845000Y-29525000D03*
X187005000Y-29525000D03*
D11*
X165415000Y-24445000D03*
D12*
X162875000Y-29525000D03*
D11*
X159065000Y-26985000D03*
D10*
X157795000Y-29525000D03*
X167955000Y-29525000D03*
D11*
X146365000Y-24445000D03*
D12*
X143825000Y-29525000D03*
D11*
X140015000Y-26985000D03*
D10*
X138745000Y-29525000D03*
X148905000Y-29525000D03*
D11*
X127315000Y-24445000D03*
D12*
X124775000Y-29525000D03*
D11*
X120965000Y-26985000D03*
D10*
X119695000Y-29525000D03*
X129855000Y-29525000D03*
D11*
X108265000Y-24445000D03*
D12*
X105725000Y-29525000D03*
D11*
X101915000Y-26985000D03*
D10*
X100645000Y-29525000D03*
X110805000Y-29525000D03*
D11*
X89215000Y-24445000D03*
D12*
X86675000Y-29525000D03*
D11*
X82865000Y-26985000D03*
D10*
X81595000Y-29525000D03*
X91755000Y-29525000D03*
D11*
X70165000Y-24445000D03*
D12*
X67625000Y-29525000D03*
D11*
X63815000Y-26985000D03*
D10*
X62545000Y-29525000D03*
X72705000Y-29525000D03*
D11*
X51115000Y-24445000D03*
D12*
X48575000Y-29525000D03*
D11*
X44765000Y-26985000D03*
D10*
X43495000Y-29525000D03*
X53655000Y-29525000D03*
G36*
G01*
X44104200Y-72758715D02*
X44104200Y-71801285D01*
G75*
G02*
X44376285Y-71529200I272085J0D01*
G01*
X45083715Y-71529200D01*
G75*
G02*
X45355800Y-71801285I0J-272085D01*
G01*
X45355800Y-72758715D01*
G75*
G02*
X45083715Y-73030800I-272085J0D01*
G01*
X44376285Y-73030800D01*
G75*
G02*
X44104200Y-72758715I0J272085D01*
G01*
G37*
G36*
G01*
X46154200Y-72758715D02*
X46154200Y-71801285D01*
G75*
G02*
X46426285Y-71529200I272085J0D01*
G01*
X47133715Y-71529200D01*
G75*
G02*
X47405800Y-71801285I0J-272085D01*
G01*
X47405800Y-72758715D01*
G75*
G02*
X47133715Y-73030800I-272085J0D01*
G01*
X46426285Y-73030800D01*
G75*
G02*
X46154200Y-72758715I0J272085D01*
G01*
G37*
G36*
G01*
X37925715Y-39310800D02*
X36968285Y-39310800D01*
G75*
G02*
X36696200Y-39038715I0J272085D01*
G01*
X36696200Y-38331285D01*
G75*
G02*
X36968285Y-38059200I272085J0D01*
G01*
X37925715Y-38059200D01*
G75*
G02*
X38197800Y-38331285I0J-272085D01*
G01*
X38197800Y-39038715D01*
G75*
G02*
X37925715Y-39310800I-272085J0D01*
G01*
G37*
G36*
G01*
X37925715Y-37260800D02*
X36968285Y-37260800D01*
G75*
G02*
X36696200Y-36988715I0J272085D01*
G01*
X36696200Y-36281285D01*
G75*
G02*
X36968285Y-36009200I272085J0D01*
G01*
X37925715Y-36009200D01*
G75*
G02*
X38197800Y-36281285I0J-272085D01*
G01*
X38197800Y-36988715D01*
G75*
G02*
X37925715Y-37260800I-272085J0D01*
G01*
G37*
G36*
G01*
X40375715Y-37260800D02*
X39418285Y-37260800D01*
G75*
G02*
X39146200Y-36988715I0J272085D01*
G01*
X39146200Y-36281285D01*
G75*
G02*
X39418285Y-36009200I272085J0D01*
G01*
X40375715Y-36009200D01*
G75*
G02*
X40647800Y-36281285I0J-272085D01*
G01*
X40647800Y-36988715D01*
G75*
G02*
X40375715Y-37260800I-272085J0D01*
G01*
G37*
G36*
G01*
X40375715Y-39310800D02*
X39418285Y-39310800D01*
G75*
G02*
X39146200Y-39038715I0J272085D01*
G01*
X39146200Y-38331285D01*
G75*
G02*
X39418285Y-38059200I272085J0D01*
G01*
X40375715Y-38059200D01*
G75*
G02*
X40647800Y-38331285I0J-272085D01*
G01*
X40647800Y-39038715D01*
G75*
G02*
X40375715Y-39310800I-272085J0D01*
G01*
G37*
D14*
X45000000Y-48575000D03*
X45000000Y-105715000D03*
X148582499Y-67600000D03*
X207972500Y-105722500D03*
X280400000Y-48600000D03*
X286712500Y-105722500D03*
D11*
X224946646Y-100645001D03*
D12*
X222406646Y-105725001D03*
D11*
X218596646Y-103185001D03*
D10*
X217326646Y-105725001D03*
X227486646Y-105725001D03*
X36986250Y-67625000D03*
X26826250Y-67625000D03*
D11*
X28096250Y-65085000D03*
D12*
X31906250Y-67625000D03*
D11*
X34446250Y-62545000D03*
G36*
G01*
X35257976Y-36310800D02*
X33942024Y-36310800D01*
G75*
G02*
X33674200Y-36042976I0J267824D01*
G01*
X33674200Y-35052024D01*
G75*
G02*
X33942024Y-34784200I267824J0D01*
G01*
X35257976Y-34784200D01*
G75*
G02*
X35525800Y-35052024I0J-267824D01*
G01*
X35525800Y-36042976D01*
G75*
G02*
X35257976Y-36310800I-267824J0D01*
G01*
G37*
G36*
G01*
X35257976Y-33335800D02*
X33942024Y-33335800D01*
G75*
G02*
X33674200Y-33067976I0J267824D01*
G01*
X33674200Y-32077024D01*
G75*
G02*
X33942024Y-31809200I267824J0D01*
G01*
X35257976Y-31809200D01*
G75*
G02*
X35525800Y-32077024I0J-267824D01*
G01*
X35525800Y-33067976D01*
G75*
G02*
X35257976Y-33335800I-267824J0D01*
G01*
G37*
G36*
G01*
X32139285Y-29924200D02*
X33096715Y-29924200D01*
G75*
G02*
X33368800Y-30196285I0J-272085D01*
G01*
X33368800Y-30903715D01*
G75*
G02*
X33096715Y-31175800I-272085J0D01*
G01*
X32139285Y-31175800D01*
G75*
G02*
X31867200Y-30903715I0J272085D01*
G01*
X31867200Y-30196285D01*
G75*
G02*
X32139285Y-29924200I272085J0D01*
G01*
G37*
G36*
G01*
X32139285Y-27874200D02*
X33096715Y-27874200D01*
G75*
G02*
X33368800Y-28146285I0J-272085D01*
G01*
X33368800Y-28853715D01*
G75*
G02*
X33096715Y-29125800I-272085J0D01*
G01*
X32139285Y-29125800D01*
G75*
G02*
X31867200Y-28853715I0J272085D01*
G01*
X31867200Y-28146285D01*
G75*
G02*
X32139285Y-27874200I272085J0D01*
G01*
G37*
G36*
G01*
X42271285Y-32409200D02*
X43228715Y-32409200D01*
G75*
G02*
X43500800Y-32681285I0J-272085D01*
G01*
X43500800Y-33388715D01*
G75*
G02*
X43228715Y-33660800I-272085J0D01*
G01*
X42271285Y-33660800D01*
G75*
G02*
X41999200Y-33388715I0J272085D01*
G01*
X41999200Y-32681285D01*
G75*
G02*
X42271285Y-32409200I272085J0D01*
G01*
G37*
G36*
G01*
X42271285Y-34459200D02*
X43228715Y-34459200D01*
G75*
G02*
X43500800Y-34731285I0J-272085D01*
G01*
X43500800Y-35438715D01*
G75*
G02*
X43228715Y-35710800I-272085J0D01*
G01*
X42271285Y-35710800D01*
G75*
G02*
X41999200Y-35438715I0J272085D01*
G01*
X41999200Y-34731285D01*
G75*
G02*
X42271285Y-34459200I272085J0D01*
G01*
G37*
G36*
G01*
X46634200Y-66174666D02*
X46634200Y-61382834D01*
G75*
G02*
X46889084Y-61127950I254884J0D01*
G01*
X51680916Y-61127950D01*
G75*
G02*
X51935800Y-61382834I0J-254884D01*
G01*
X51935800Y-66174666D01*
G75*
G02*
X51680916Y-66429550I-254884J0D01*
G01*
X46889084Y-66429550D01*
G75*
G02*
X46634200Y-66174666I0J254884D01*
G01*
G37*
G36*
G01*
X45359200Y-66366650D02*
X45359200Y-66190850D01*
G75*
G02*
X45447100Y-66102950I87900J0D01*
G01*
X46447900Y-66102950D01*
G75*
G02*
X46535800Y-66190850I0J-87900D01*
G01*
X46535800Y-66366650D01*
G75*
G02*
X46447900Y-66454550I-87900J0D01*
G01*
X45447100Y-66454550D01*
G75*
G02*
X45359200Y-66366650I0J87900D01*
G01*
G37*
G36*
G01*
X45359200Y-65866650D02*
X45359200Y-65690850D01*
G75*
G02*
X45447100Y-65602950I87900J0D01*
G01*
X46447900Y-65602950D01*
G75*
G02*
X46535800Y-65690850I0J-87900D01*
G01*
X46535800Y-65866650D01*
G75*
G02*
X46447900Y-65954550I-87900J0D01*
G01*
X45447100Y-65954550D01*
G75*
G02*
X45359200Y-65866650I0J87900D01*
G01*
G37*
G36*
G01*
X45359200Y-65366650D02*
X45359200Y-65190850D01*
G75*
G02*
X45447100Y-65102950I87900J0D01*
G01*
X46447900Y-65102950D01*
G75*
G02*
X46535800Y-65190850I0J-87900D01*
G01*
X46535800Y-65366650D01*
G75*
G02*
X46447900Y-65454550I-87900J0D01*
G01*
X45447100Y-65454550D01*
G75*
G02*
X45359200Y-65366650I0J87900D01*
G01*
G37*
G36*
G01*
X45359200Y-64866650D02*
X45359200Y-64690850D01*
G75*
G02*
X45447100Y-64602950I87900J0D01*
G01*
X46447900Y-64602950D01*
G75*
G02*
X46535800Y-64690850I0J-87900D01*
G01*
X46535800Y-64866650D01*
G75*
G02*
X46447900Y-64954550I-87900J0D01*
G01*
X45447100Y-64954550D01*
G75*
G02*
X45359200Y-64866650I0J87900D01*
G01*
G37*
G36*
G01*
X45359200Y-64366650D02*
X45359200Y-64190850D01*
G75*
G02*
X45447100Y-64102950I87900J0D01*
G01*
X46447900Y-64102950D01*
G75*
G02*
X46535800Y-64190850I0J-87900D01*
G01*
X46535800Y-64366650D01*
G75*
G02*
X46447900Y-64454550I-87900J0D01*
G01*
X45447100Y-64454550D01*
G75*
G02*
X45359200Y-64366650I0J87900D01*
G01*
G37*
G36*
G01*
X45359200Y-63866650D02*
X45359200Y-63690850D01*
G75*
G02*
X45447100Y-63602950I87900J0D01*
G01*
X46447900Y-63602950D01*
G75*
G02*
X46535800Y-63690850I0J-87900D01*
G01*
X46535800Y-63866650D01*
G75*
G02*
X46447900Y-63954550I-87900J0D01*
G01*
X45447100Y-63954550D01*
G75*
G02*
X45359200Y-63866650I0J87900D01*
G01*
G37*
G36*
G01*
X45359200Y-63366650D02*
X45359200Y-63190850D01*
G75*
G02*
X45447100Y-63102950I87900J0D01*
G01*
X46447900Y-63102950D01*
G75*
G02*
X46535800Y-63190850I0J-87900D01*
G01*
X46535800Y-63366650D01*
G75*
G02*
X46447900Y-63454550I-87900J0D01*
G01*
X45447100Y-63454550D01*
G75*
G02*
X45359200Y-63366650I0J87900D01*
G01*
G37*
G36*
G01*
X45359200Y-62866650D02*
X45359200Y-62690850D01*
G75*
G02*
X45447100Y-62602950I87900J0D01*
G01*
X46447900Y-62602950D01*
G75*
G02*
X46535800Y-62690850I0J-87900D01*
G01*
X46535800Y-62866650D01*
G75*
G02*
X46447900Y-62954550I-87900J0D01*
G01*
X45447100Y-62954550D01*
G75*
G02*
X45359200Y-62866650I0J87900D01*
G01*
G37*
G36*
G01*
X45359200Y-62366650D02*
X45359200Y-62190850D01*
G75*
G02*
X45447100Y-62102950I87900J0D01*
G01*
X46447900Y-62102950D01*
G75*
G02*
X46535800Y-62190850I0J-87900D01*
G01*
X46535800Y-62366650D01*
G75*
G02*
X46447900Y-62454550I-87900J0D01*
G01*
X45447100Y-62454550D01*
G75*
G02*
X45359200Y-62366650I0J87900D01*
G01*
G37*
G36*
G01*
X45359200Y-61866650D02*
X45359200Y-61690850D01*
G75*
G02*
X45447100Y-61602950I87900J0D01*
G01*
X46447900Y-61602950D01*
G75*
G02*
X46535800Y-61690850I0J-87900D01*
G01*
X46535800Y-61866650D01*
G75*
G02*
X46447900Y-61954550I-87900J0D01*
G01*
X45447100Y-61954550D01*
G75*
G02*
X45359200Y-61866650I0J87900D01*
G01*
G37*
G36*
G01*
X45359200Y-61366650D02*
X45359200Y-61190850D01*
G75*
G02*
X45447100Y-61102950I87900J0D01*
G01*
X46447900Y-61102950D01*
G75*
G02*
X46535800Y-61190850I0J-87900D01*
G01*
X46535800Y-61366650D01*
G75*
G02*
X46447900Y-61454550I-87900J0D01*
G01*
X45447100Y-61454550D01*
G75*
G02*
X45359200Y-61366650I0J87900D01*
G01*
G37*
G36*
G01*
X46609200Y-60941650D02*
X46609200Y-59940850D01*
G75*
G02*
X46697100Y-59852950I87900J0D01*
G01*
X46872900Y-59852950D01*
G75*
G02*
X46960800Y-59940850I0J-87900D01*
G01*
X46960800Y-60941650D01*
G75*
G02*
X46872900Y-61029550I-87900J0D01*
G01*
X46697100Y-61029550D01*
G75*
G02*
X46609200Y-60941650I0J87900D01*
G01*
G37*
G36*
G01*
X47109200Y-60941650D02*
X47109200Y-59940850D01*
G75*
G02*
X47197100Y-59852950I87900J0D01*
G01*
X47372900Y-59852950D01*
G75*
G02*
X47460800Y-59940850I0J-87900D01*
G01*
X47460800Y-60941650D01*
G75*
G02*
X47372900Y-61029550I-87900J0D01*
G01*
X47197100Y-61029550D01*
G75*
G02*
X47109200Y-60941650I0J87900D01*
G01*
G37*
G36*
G01*
X47609200Y-60941650D02*
X47609200Y-59940850D01*
G75*
G02*
X47697100Y-59852950I87900J0D01*
G01*
X47872900Y-59852950D01*
G75*
G02*
X47960800Y-59940850I0J-87900D01*
G01*
X47960800Y-60941650D01*
G75*
G02*
X47872900Y-61029550I-87900J0D01*
G01*
X47697100Y-61029550D01*
G75*
G02*
X47609200Y-60941650I0J87900D01*
G01*
G37*
G36*
G01*
X48109200Y-60941650D02*
X48109200Y-59940850D01*
G75*
G02*
X48197100Y-59852950I87900J0D01*
G01*
X48372900Y-59852950D01*
G75*
G02*
X48460800Y-59940850I0J-87900D01*
G01*
X48460800Y-60941650D01*
G75*
G02*
X48372900Y-61029550I-87900J0D01*
G01*
X48197100Y-61029550D01*
G75*
G02*
X48109200Y-60941650I0J87900D01*
G01*
G37*
G36*
G01*
X48609200Y-60941650D02*
X48609200Y-59940850D01*
G75*
G02*
X48697100Y-59852950I87900J0D01*
G01*
X48872900Y-59852950D01*
G75*
G02*
X48960800Y-59940850I0J-87900D01*
G01*
X48960800Y-60941650D01*
G75*
G02*
X48872900Y-61029550I-87900J0D01*
G01*
X48697100Y-61029550D01*
G75*
G02*
X48609200Y-60941650I0J87900D01*
G01*
G37*
G36*
G01*
X49109200Y-60941650D02*
X49109200Y-59940850D01*
G75*
G02*
X49197100Y-59852950I87900J0D01*
G01*
X49372900Y-59852950D01*
G75*
G02*
X49460800Y-59940850I0J-87900D01*
G01*
X49460800Y-60941650D01*
G75*
G02*
X49372900Y-61029550I-87900J0D01*
G01*
X49197100Y-61029550D01*
G75*
G02*
X49109200Y-60941650I0J87900D01*
G01*
G37*
G36*
G01*
X49609200Y-60941650D02*
X49609200Y-59940850D01*
G75*
G02*
X49697100Y-59852950I87900J0D01*
G01*
X49872900Y-59852950D01*
G75*
G02*
X49960800Y-59940850I0J-87900D01*
G01*
X49960800Y-60941650D01*
G75*
G02*
X49872900Y-61029550I-87900J0D01*
G01*
X49697100Y-61029550D01*
G75*
G02*
X49609200Y-60941650I0J87900D01*
G01*
G37*
G36*
G01*
X50109200Y-60941650D02*
X50109200Y-59940850D01*
G75*
G02*
X50197100Y-59852950I87900J0D01*
G01*
X50372900Y-59852950D01*
G75*
G02*
X50460800Y-59940850I0J-87900D01*
G01*
X50460800Y-60941650D01*
G75*
G02*
X50372900Y-61029550I-87900J0D01*
G01*
X50197100Y-61029550D01*
G75*
G02*
X50109200Y-60941650I0J87900D01*
G01*
G37*
G36*
G01*
X50609200Y-60941650D02*
X50609200Y-59940850D01*
G75*
G02*
X50697100Y-59852950I87900J0D01*
G01*
X50872900Y-59852950D01*
G75*
G02*
X50960800Y-59940850I0J-87900D01*
G01*
X50960800Y-60941650D01*
G75*
G02*
X50872900Y-61029550I-87900J0D01*
G01*
X50697100Y-61029550D01*
G75*
G02*
X50609200Y-60941650I0J87900D01*
G01*
G37*
G36*
G01*
X51109200Y-60941650D02*
X51109200Y-59940850D01*
G75*
G02*
X51197100Y-59852950I87900J0D01*
G01*
X51372900Y-59852950D01*
G75*
G02*
X51460800Y-59940850I0J-87900D01*
G01*
X51460800Y-60941650D01*
G75*
G02*
X51372900Y-61029550I-87900J0D01*
G01*
X51197100Y-61029550D01*
G75*
G02*
X51109200Y-60941650I0J87900D01*
G01*
G37*
G36*
G01*
X51609200Y-60941650D02*
X51609200Y-59940850D01*
G75*
G02*
X51697100Y-59852950I87900J0D01*
G01*
X51872900Y-59852950D01*
G75*
G02*
X51960800Y-59940850I0J-87900D01*
G01*
X51960800Y-60941650D01*
G75*
G02*
X51872900Y-61029550I-87900J0D01*
G01*
X51697100Y-61029550D01*
G75*
G02*
X51609200Y-60941650I0J87900D01*
G01*
G37*
G36*
G01*
X52034200Y-61366650D02*
X52034200Y-61190850D01*
G75*
G02*
X52122100Y-61102950I87900J0D01*
G01*
X53122900Y-61102950D01*
G75*
G02*
X53210800Y-61190850I0J-87900D01*
G01*
X53210800Y-61366650D01*
G75*
G02*
X53122900Y-61454550I-87900J0D01*
G01*
X52122100Y-61454550D01*
G75*
G02*
X52034200Y-61366650I0J87900D01*
G01*
G37*
G36*
G01*
X52034200Y-61866650D02*
X52034200Y-61690850D01*
G75*
G02*
X52122100Y-61602950I87900J0D01*
G01*
X53122900Y-61602950D01*
G75*
G02*
X53210800Y-61690850I0J-87900D01*
G01*
X53210800Y-61866650D01*
G75*
G02*
X53122900Y-61954550I-87900J0D01*
G01*
X52122100Y-61954550D01*
G75*
G02*
X52034200Y-61866650I0J87900D01*
G01*
G37*
G36*
G01*
X52034200Y-62366650D02*
X52034200Y-62190850D01*
G75*
G02*
X52122100Y-62102950I87900J0D01*
G01*
X53122900Y-62102950D01*
G75*
G02*
X53210800Y-62190850I0J-87900D01*
G01*
X53210800Y-62366650D01*
G75*
G02*
X53122900Y-62454550I-87900J0D01*
G01*
X52122100Y-62454550D01*
G75*
G02*
X52034200Y-62366650I0J87900D01*
G01*
G37*
G36*
G01*
X52034200Y-62866650D02*
X52034200Y-62690850D01*
G75*
G02*
X52122100Y-62602950I87900J0D01*
G01*
X53122900Y-62602950D01*
G75*
G02*
X53210800Y-62690850I0J-87900D01*
G01*
X53210800Y-62866650D01*
G75*
G02*
X53122900Y-62954550I-87900J0D01*
G01*
X52122100Y-62954550D01*
G75*
G02*
X52034200Y-62866650I0J87900D01*
G01*
G37*
G36*
G01*
X52034200Y-63366650D02*
X52034200Y-63190850D01*
G75*
G02*
X52122100Y-63102950I87900J0D01*
G01*
X53122900Y-63102950D01*
G75*
G02*
X53210800Y-63190850I0J-87900D01*
G01*
X53210800Y-63366650D01*
G75*
G02*
X53122900Y-63454550I-87900J0D01*
G01*
X52122100Y-63454550D01*
G75*
G02*
X52034200Y-63366650I0J87900D01*
G01*
G37*
G36*
G01*
X52034200Y-63866650D02*
X52034200Y-63690850D01*
G75*
G02*
X52122100Y-63602950I87900J0D01*
G01*
X53122900Y-63602950D01*
G75*
G02*
X53210800Y-63690850I0J-87900D01*
G01*
X53210800Y-63866650D01*
G75*
G02*
X53122900Y-63954550I-87900J0D01*
G01*
X52122100Y-63954550D01*
G75*
G02*
X52034200Y-63866650I0J87900D01*
G01*
G37*
G36*
G01*
X52034200Y-64366650D02*
X52034200Y-64190850D01*
G75*
G02*
X52122100Y-64102950I87900J0D01*
G01*
X53122900Y-64102950D01*
G75*
G02*
X53210800Y-64190850I0J-87900D01*
G01*
X53210800Y-64366650D01*
G75*
G02*
X53122900Y-64454550I-87900J0D01*
G01*
X52122100Y-64454550D01*
G75*
G02*
X52034200Y-64366650I0J87900D01*
G01*
G37*
G36*
G01*
X52034200Y-64866650D02*
X52034200Y-64690850D01*
G75*
G02*
X52122100Y-64602950I87900J0D01*
G01*
X53122900Y-64602950D01*
G75*
G02*
X53210800Y-64690850I0J-87900D01*
G01*
X53210800Y-64866650D01*
G75*
G02*
X53122900Y-64954550I-87900J0D01*
G01*
X52122100Y-64954550D01*
G75*
G02*
X52034200Y-64866650I0J87900D01*
G01*
G37*
G36*
G01*
X52034200Y-65366650D02*
X52034200Y-65190850D01*
G75*
G02*
X52122100Y-65102950I87900J0D01*
G01*
X53122900Y-65102950D01*
G75*
G02*
X53210800Y-65190850I0J-87900D01*
G01*
X53210800Y-65366650D01*
G75*
G02*
X53122900Y-65454550I-87900J0D01*
G01*
X52122100Y-65454550D01*
G75*
G02*
X52034200Y-65366650I0J87900D01*
G01*
G37*
G36*
G01*
X52034200Y-65866650D02*
X52034200Y-65690850D01*
G75*
G02*
X52122100Y-65602950I87900J0D01*
G01*
X53122900Y-65602950D01*
G75*
G02*
X53210800Y-65690850I0J-87900D01*
G01*
X53210800Y-65866650D01*
G75*
G02*
X53122900Y-65954550I-87900J0D01*
G01*
X52122100Y-65954550D01*
G75*
G02*
X52034200Y-65866650I0J87900D01*
G01*
G37*
G36*
G01*
X52034200Y-66366650D02*
X52034200Y-66190850D01*
G75*
G02*
X52122100Y-66102950I87900J0D01*
G01*
X53122900Y-66102950D01*
G75*
G02*
X53210800Y-66190850I0J-87900D01*
G01*
X53210800Y-66366650D01*
G75*
G02*
X53122900Y-66454550I-87900J0D01*
G01*
X52122100Y-66454550D01*
G75*
G02*
X52034200Y-66366650I0J87900D01*
G01*
G37*
G36*
G01*
X51609200Y-67616650D02*
X51609200Y-66615850D01*
G75*
G02*
X51697100Y-66527950I87900J0D01*
G01*
X51872900Y-66527950D01*
G75*
G02*
X51960800Y-66615850I0J-87900D01*
G01*
X51960800Y-67616650D01*
G75*
G02*
X51872900Y-67704550I-87900J0D01*
G01*
X51697100Y-67704550D01*
G75*
G02*
X51609200Y-67616650I0J87900D01*
G01*
G37*
G36*
G01*
X51109200Y-67616650D02*
X51109200Y-66615850D01*
G75*
G02*
X51197100Y-66527950I87900J0D01*
G01*
X51372900Y-66527950D01*
G75*
G02*
X51460800Y-66615850I0J-87900D01*
G01*
X51460800Y-67616650D01*
G75*
G02*
X51372900Y-67704550I-87900J0D01*
G01*
X51197100Y-67704550D01*
G75*
G02*
X51109200Y-67616650I0J87900D01*
G01*
G37*
G36*
G01*
X50609200Y-67616650D02*
X50609200Y-66615850D01*
G75*
G02*
X50697100Y-66527950I87900J0D01*
G01*
X50872900Y-66527950D01*
G75*
G02*
X50960800Y-66615850I0J-87900D01*
G01*
X50960800Y-67616650D01*
G75*
G02*
X50872900Y-67704550I-87900J0D01*
G01*
X50697100Y-67704550D01*
G75*
G02*
X50609200Y-67616650I0J87900D01*
G01*
G37*
G36*
G01*
X50109200Y-67616650D02*
X50109200Y-66615850D01*
G75*
G02*
X50197100Y-66527950I87900J0D01*
G01*
X50372900Y-66527950D01*
G75*
G02*
X50460800Y-66615850I0J-87900D01*
G01*
X50460800Y-67616650D01*
G75*
G02*
X50372900Y-67704550I-87900J0D01*
G01*
X50197100Y-67704550D01*
G75*
G02*
X50109200Y-67616650I0J87900D01*
G01*
G37*
G36*
G01*
X49609200Y-67616650D02*
X49609200Y-66615850D01*
G75*
G02*
X49697100Y-66527950I87900J0D01*
G01*
X49872900Y-66527950D01*
G75*
G02*
X49960800Y-66615850I0J-87900D01*
G01*
X49960800Y-67616650D01*
G75*
G02*
X49872900Y-67704550I-87900J0D01*
G01*
X49697100Y-67704550D01*
G75*
G02*
X49609200Y-67616650I0J87900D01*
G01*
G37*
G36*
G01*
X49109200Y-67616650D02*
X49109200Y-66615850D01*
G75*
G02*
X49197100Y-66527950I87900J0D01*
G01*
X49372900Y-66527950D01*
G75*
G02*
X49460800Y-66615850I0J-87900D01*
G01*
X49460800Y-67616650D01*
G75*
G02*
X49372900Y-67704550I-87900J0D01*
G01*
X49197100Y-67704550D01*
G75*
G02*
X49109200Y-67616650I0J87900D01*
G01*
G37*
G36*
G01*
X48609200Y-67616650D02*
X48609200Y-66615850D01*
G75*
G02*
X48697100Y-66527950I87900J0D01*
G01*
X48872900Y-66527950D01*
G75*
G02*
X48960800Y-66615850I0J-87900D01*
G01*
X48960800Y-67616650D01*
G75*
G02*
X48872900Y-67704550I-87900J0D01*
G01*
X48697100Y-67704550D01*
G75*
G02*
X48609200Y-67616650I0J87900D01*
G01*
G37*
G36*
G01*
X48109200Y-67616650D02*
X48109200Y-66615850D01*
G75*
G02*
X48197100Y-66527950I87900J0D01*
G01*
X48372900Y-66527950D01*
G75*
G02*
X48460800Y-66615850I0J-87900D01*
G01*
X48460800Y-67616650D01*
G75*
G02*
X48372900Y-67704550I-87900J0D01*
G01*
X48197100Y-67704550D01*
G75*
G02*
X48109200Y-67616650I0J87900D01*
G01*
G37*
G36*
G01*
X47609200Y-67616650D02*
X47609200Y-66615850D01*
G75*
G02*
X47697100Y-66527950I87900J0D01*
G01*
X47872900Y-66527950D01*
G75*
G02*
X47960800Y-66615850I0J-87900D01*
G01*
X47960800Y-67616650D01*
G75*
G02*
X47872900Y-67704550I-87900J0D01*
G01*
X47697100Y-67704550D01*
G75*
G02*
X47609200Y-67616650I0J87900D01*
G01*
G37*
G36*
G01*
X47109200Y-67616650D02*
X47109200Y-66615850D01*
G75*
G02*
X47197100Y-66527950I87900J0D01*
G01*
X47372900Y-66527950D01*
G75*
G02*
X47460800Y-66615850I0J-87900D01*
G01*
X47460800Y-67616650D01*
G75*
G02*
X47372900Y-67704550I-87900J0D01*
G01*
X47197100Y-67704550D01*
G75*
G02*
X47109200Y-67616650I0J87900D01*
G01*
G37*
G36*
G01*
X46609200Y-67616650D02*
X46609200Y-66615850D01*
G75*
G02*
X46697100Y-66527950I87900J0D01*
G01*
X46872900Y-66527950D01*
G75*
G02*
X46960800Y-66615850I0J-87900D01*
G01*
X46960800Y-67616650D01*
G75*
G02*
X46872900Y-67704550I-87900J0D01*
G01*
X46697100Y-67704550D01*
G75*
G02*
X46609200Y-67616650I0J87900D01*
G01*
G37*
D15*
X35822000Y-23625000D03*
X41602000Y-23625000D03*
G36*
G01*
X38261200Y-26795000D02*
X38261200Y-24345000D01*
G75*
G02*
X38312000Y-24294200I50800J0D01*
G01*
X38612000Y-24294200D01*
G75*
G02*
X38662800Y-24345000I0J-50800D01*
G01*
X38662800Y-26795000D01*
G75*
G02*
X38612000Y-26845800I-50800J0D01*
G01*
X38312000Y-26845800D01*
G75*
G02*
X38261200Y-26795000I0J50800D01*
G01*
G37*
G36*
G01*
X38761200Y-26795000D02*
X38761200Y-24345000D01*
G75*
G02*
X38812000Y-24294200I50800J0D01*
G01*
X39112000Y-24294200D01*
G75*
G02*
X39162800Y-24345000I0J-50800D01*
G01*
X39162800Y-26795000D01*
G75*
G02*
X39112000Y-26845800I-50800J0D01*
G01*
X38812000Y-26845800D01*
G75*
G02*
X38761200Y-26795000I0J50800D01*
G01*
G37*
G36*
G01*
X39261200Y-26795000D02*
X39261200Y-24345000D01*
G75*
G02*
X39312000Y-24294200I50800J0D01*
G01*
X39612000Y-24294200D01*
G75*
G02*
X39662800Y-24345000I0J-50800D01*
G01*
X39662800Y-26795000D01*
G75*
G02*
X39612000Y-26845800I-50800J0D01*
G01*
X39312000Y-26845800D01*
G75*
G02*
X39261200Y-26795000I0J50800D01*
G01*
G37*
G36*
G01*
X37761200Y-26795000D02*
X37761200Y-24345000D01*
G75*
G02*
X37812000Y-24294200I50800J0D01*
G01*
X38112000Y-24294200D01*
G75*
G02*
X38162800Y-24345000I0J-50800D01*
G01*
X38162800Y-26795000D01*
G75*
G02*
X38112000Y-26845800I-50800J0D01*
G01*
X37812000Y-26845800D01*
G75*
G02*
X37761200Y-26795000I0J50800D01*
G01*
G37*
G36*
G01*
X39761200Y-26795000D02*
X39761200Y-24345000D01*
G75*
G02*
X39812000Y-24294200I50800J0D01*
G01*
X40112000Y-24294200D01*
G75*
G02*
X40162800Y-24345000I0J-50800D01*
G01*
X40162800Y-26795000D01*
G75*
G02*
X40112000Y-26845800I-50800J0D01*
G01*
X39812000Y-26845800D01*
G75*
G02*
X39761200Y-26795000I0J50800D01*
G01*
G37*
G36*
G01*
X37261200Y-26795000D02*
X37261200Y-24345000D01*
G75*
G02*
X37312000Y-24294200I50800J0D01*
G01*
X37612000Y-24294200D01*
G75*
G02*
X37662800Y-24345000I0J-50800D01*
G01*
X37662800Y-26795000D01*
G75*
G02*
X37612000Y-26845800I-50800J0D01*
G01*
X37312000Y-26845800D01*
G75*
G02*
X37261200Y-26795000I0J50800D01*
G01*
G37*
G36*
G01*
X40261200Y-26795000D02*
X40261200Y-24345000D01*
G75*
G02*
X40312000Y-24294200I50800J0D01*
G01*
X40612000Y-24294200D01*
G75*
G02*
X40662800Y-24345000I0J-50800D01*
G01*
X40662800Y-26795000D01*
G75*
G02*
X40612000Y-26845800I-50800J0D01*
G01*
X40312000Y-26845800D01*
G75*
G02*
X40261200Y-26795000I0J50800D01*
G01*
G37*
G36*
G01*
X36761200Y-26795000D02*
X36761200Y-24345000D01*
G75*
G02*
X36812000Y-24294200I50800J0D01*
G01*
X37112000Y-24294200D01*
G75*
G02*
X37162800Y-24345000I0J-50800D01*
G01*
X37162800Y-26795000D01*
G75*
G02*
X37112000Y-26845800I-50800J0D01*
G01*
X36812000Y-26845800D01*
G75*
G02*
X36761200Y-26795000I0J50800D01*
G01*
G37*
G36*
G01*
X35911200Y-26795000D02*
X35911200Y-24345000D01*
G75*
G02*
X35962000Y-24294200I50800J0D01*
G01*
X36562000Y-24294200D01*
G75*
G02*
X36612800Y-24345000I0J-50800D01*
G01*
X36612800Y-26795000D01*
G75*
G02*
X36562000Y-26845800I-50800J0D01*
G01*
X35962000Y-26845800D01*
G75*
G02*
X35911200Y-26795000I0J50800D01*
G01*
G37*
G36*
G01*
X40811200Y-26795000D02*
X40811200Y-24345000D01*
G75*
G02*
X40862000Y-24294200I50800J0D01*
G01*
X41462000Y-24294200D01*
G75*
G02*
X41512800Y-24345000I0J-50800D01*
G01*
X41512800Y-26795000D01*
G75*
G02*
X41462000Y-26845800I-50800J0D01*
G01*
X40862000Y-26845800D01*
G75*
G02*
X40811200Y-26795000I0J50800D01*
G01*
G37*
G36*
G01*
X35136200Y-26795000D02*
X35136200Y-24345000D01*
G75*
G02*
X35187000Y-24294200I50800J0D01*
G01*
X35787000Y-24294200D01*
G75*
G02*
X35837800Y-24345000I0J-50800D01*
G01*
X35837800Y-26795000D01*
G75*
G02*
X35787000Y-26845800I-50800J0D01*
G01*
X35187000Y-26845800D01*
G75*
G02*
X35136200Y-26795000I0J50800D01*
G01*
G37*
G36*
G01*
X41586200Y-26795000D02*
X41586200Y-24345000D01*
G75*
G02*
X41637000Y-24294200I50800J0D01*
G01*
X42237000Y-24294200D01*
G75*
G02*
X42287800Y-24345000I0J-50800D01*
G01*
X42287800Y-26795000D01*
G75*
G02*
X42237000Y-26845800I-50800J0D01*
G01*
X41637000Y-26845800D01*
G75*
G02*
X41586200Y-26795000I0J50800D01*
G01*
G37*
G36*
G01*
X37340000Y-32679200D02*
X38040000Y-32679200D01*
G75*
G02*
X38090800Y-32730000I0J-50800D01*
G01*
X38090800Y-33330000D01*
G75*
G02*
X38040000Y-33380800I-50800J0D01*
G01*
X37340000Y-33380800D01*
G75*
G02*
X37289200Y-33330000I0J50800D01*
G01*
X37289200Y-32730000D01*
G75*
G02*
X37340000Y-32679200I50800J0D01*
G01*
G37*
G36*
G01*
X39340000Y-32679200D02*
X40040000Y-32679200D01*
G75*
G02*
X40090800Y-32730000I0J-50800D01*
G01*
X40090800Y-33330000D01*
G75*
G02*
X40040000Y-33380800I-50800J0D01*
G01*
X39340000Y-33380800D01*
G75*
G02*
X39289200Y-33330000I0J50800D01*
G01*
X39289200Y-32730000D01*
G75*
G02*
X39340000Y-32679200I50800J0D01*
G01*
G37*
G36*
G01*
X37340000Y-30779200D02*
X38040000Y-30779200D01*
G75*
G02*
X38090800Y-30830000I0J-50800D01*
G01*
X38090800Y-31430000D01*
G75*
G02*
X38040000Y-31480800I-50800J0D01*
G01*
X37340000Y-31480800D01*
G75*
G02*
X37289200Y-31430000I0J50800D01*
G01*
X37289200Y-30830000D01*
G75*
G02*
X37340000Y-30779200I50800J0D01*
G01*
G37*
G36*
G01*
X39339999Y-30779200D02*
X40040001Y-30779200D01*
G75*
G02*
X40090800Y-30829999I0J-50799D01*
G01*
X40090800Y-31830001D01*
G75*
G02*
X40040001Y-31880800I-50799J0D01*
G01*
X39339999Y-31880800D01*
G75*
G02*
X39289200Y-31830001I0J50799D01*
G01*
X39289200Y-30829999D01*
G75*
G02*
X39339999Y-30779200I50799J0D01*
G01*
G37*
G36*
G01*
X35080000Y-58100800D02*
X33380000Y-58100800D01*
G75*
G02*
X33329200Y-58050000I0J50800D01*
G01*
X33329200Y-56350000D01*
G75*
G02*
X33380000Y-56299200I50800J0D01*
G01*
X35080000Y-56299200D01*
G75*
G02*
X35130800Y-56350000I0J-50800D01*
G01*
X35130800Y-58050000D01*
G75*
G02*
X35080000Y-58100800I-50800J0D01*
G01*
G37*
D16*
X34230000Y-54660000D03*
X31690000Y-57200000D03*
X31690000Y-54660000D03*
X29150000Y-57200000D03*
X29150000Y-54660000D03*
M02*
