G04 #@! TF.GenerationSoftware,KiCad,Pcbnew,(5.1.9-1-g591a07d2d9)-1*
G04 #@! TF.CreationDate,2021-05-31T00:50:00-06:00*
G04 #@! TF.ProjectId,keyboard-layout,6b657962-6f61-4726-942d-6c61796f7574,rev?*
G04 #@! TF.SameCoordinates,Original*
G04 #@! TF.FileFunction,Paste,Bot*
G04 #@! TF.FilePolarity,Positive*
%FSLAX46Y46*%
G04 Gerber Fmt 4.6, Leading zero omitted, Abs format (unit mm)*
G04 Created by KiCad (PCBNEW (5.1.9-1-g591a07d2d9)-1) date 2021-05-31 00:50:00*
%MOMM*%
%LPD*%
G01*
G04 APERTURE LIST*
%ADD10R,1.200000X1.200000*%
%ADD11R,1.700000X1.000000*%
%ADD12R,1.400000X1.200000*%
%ADD13R,0.300000X2.450000*%
%ADD14R,0.600000X2.450000*%
%ADD15R,0.700000X0.600000*%
%ADD16R,0.700000X1.000000*%
G04 APERTURE END LIST*
G36*
G01*
X43262500Y-67900000D02*
X43737500Y-67900000D01*
G75*
G02*
X43975000Y-68137500I0J-237500D01*
G01*
X43975000Y-68712500D01*
G75*
G02*
X43737500Y-68950000I-237500J0D01*
G01*
X43262500Y-68950000D01*
G75*
G02*
X43025000Y-68712500I0J237500D01*
G01*
X43025000Y-68137500D01*
G75*
G02*
X43262500Y-67900000I237500J0D01*
G01*
G37*
G36*
G01*
X43262500Y-66150000D02*
X43737500Y-66150000D01*
G75*
G02*
X43975000Y-66387500I0J-237500D01*
G01*
X43975000Y-66962500D01*
G75*
G02*
X43737500Y-67200000I-237500J0D01*
G01*
X43262500Y-67200000D01*
G75*
G02*
X43025000Y-66962500I0J237500D01*
G01*
X43025000Y-66387500D01*
G75*
G02*
X43262500Y-66150000I237500J0D01*
G01*
G37*
G36*
G01*
X55337500Y-58600000D02*
X54862500Y-58600000D01*
G75*
G02*
X54625000Y-58362500I0J237500D01*
G01*
X54625000Y-57787500D01*
G75*
G02*
X54862500Y-57550000I237500J0D01*
G01*
X55337500Y-57550000D01*
G75*
G02*
X55575000Y-57787500I0J-237500D01*
G01*
X55575000Y-58362500D01*
G75*
G02*
X55337500Y-58600000I-237500J0D01*
G01*
G37*
G36*
G01*
X55337500Y-60350000D02*
X54862500Y-60350000D01*
G75*
G02*
X54625000Y-60112500I0J237500D01*
G01*
X54625000Y-59537500D01*
G75*
G02*
X54862500Y-59300000I237500J0D01*
G01*
X55337500Y-59300000D01*
G75*
G02*
X55575000Y-59537500I0J-237500D01*
G01*
X55575000Y-60112500D01*
G75*
G02*
X55337500Y-60350000I-237500J0D01*
G01*
G37*
G36*
G01*
X52425000Y-69112500D02*
X52425000Y-69587500D01*
G75*
G02*
X52187500Y-69825000I-237500J0D01*
G01*
X51612500Y-69825000D01*
G75*
G02*
X51375000Y-69587500I0J237500D01*
G01*
X51375000Y-69112500D01*
G75*
G02*
X51612500Y-68875000I237500J0D01*
G01*
X52187500Y-68875000D01*
G75*
G02*
X52425000Y-69112500I0J-237500D01*
G01*
G37*
G36*
G01*
X54175000Y-69112500D02*
X54175000Y-69587500D01*
G75*
G02*
X53937500Y-69825000I-237500J0D01*
G01*
X53362500Y-69825000D01*
G75*
G02*
X53125000Y-69587500I0J237500D01*
G01*
X53125000Y-69112500D01*
G75*
G02*
X53362500Y-68875000I237500J0D01*
G01*
X53937500Y-68875000D01*
G75*
G02*
X54175000Y-69112500I0J-237500D01*
G01*
G37*
G36*
G01*
X53112500Y-53700000D02*
X52637500Y-53700000D01*
G75*
G02*
X52400000Y-53462500I0J237500D01*
G01*
X52400000Y-52887500D01*
G75*
G02*
X52637500Y-52650000I237500J0D01*
G01*
X53112500Y-52650000D01*
G75*
G02*
X53350000Y-52887500I0J-237500D01*
G01*
X53350000Y-53462500D01*
G75*
G02*
X53112500Y-53700000I-237500J0D01*
G01*
G37*
G36*
G01*
X53112500Y-55450000D02*
X52637500Y-55450000D01*
G75*
G02*
X52400000Y-55212500I0J237500D01*
G01*
X52400000Y-54637500D01*
G75*
G02*
X52637500Y-54400000I237500J0D01*
G01*
X53112500Y-54400000D01*
G75*
G02*
X53350000Y-54637500I0J-237500D01*
G01*
X53350000Y-55212500D01*
G75*
G02*
X53112500Y-55450000I-237500J0D01*
G01*
G37*
G36*
G01*
X42537500Y-63200000D02*
X43012500Y-63200000D01*
G75*
G02*
X43250000Y-63437500I0J-237500D01*
G01*
X43250000Y-64012500D01*
G75*
G02*
X43012500Y-64250000I-237500J0D01*
G01*
X42537500Y-64250000D01*
G75*
G02*
X42300000Y-64012500I0J237500D01*
G01*
X42300000Y-63437500D01*
G75*
G02*
X42537500Y-63200000I237500J0D01*
G01*
G37*
G36*
G01*
X42537500Y-61450000D02*
X43012500Y-61450000D01*
G75*
G02*
X43250000Y-61687500I0J-237500D01*
G01*
X43250000Y-62262500D01*
G75*
G02*
X43012500Y-62500000I-237500J0D01*
G01*
X42537500Y-62500000D01*
G75*
G02*
X42300000Y-62262500I0J237500D01*
G01*
X42300000Y-61687500D01*
G75*
G02*
X42537500Y-61450000I237500J0D01*
G01*
G37*
G36*
G01*
X44887500Y-54400000D02*
X45362500Y-54400000D01*
G75*
G02*
X45600000Y-54637500I0J-237500D01*
G01*
X45600000Y-55212500D01*
G75*
G02*
X45362500Y-55450000I-237500J0D01*
G01*
X44887500Y-55450000D01*
G75*
G02*
X44650000Y-55212500I0J237500D01*
G01*
X44650000Y-54637500D01*
G75*
G02*
X44887500Y-54400000I237500J0D01*
G01*
G37*
G36*
G01*
X44887500Y-52650000D02*
X45362500Y-52650000D01*
G75*
G02*
X45600000Y-52887500I0J-237500D01*
G01*
X45600000Y-53462500D01*
G75*
G02*
X45362500Y-53700000I-237500J0D01*
G01*
X44887500Y-53700000D01*
G75*
G02*
X44650000Y-53462500I0J237500D01*
G01*
X44650000Y-52887500D01*
G75*
G02*
X44887500Y-52650000I237500J0D01*
G01*
G37*
G36*
G01*
X43727500Y-59470000D02*
X43252500Y-59470000D01*
G75*
G02*
X43015000Y-59232500I0J237500D01*
G01*
X43015000Y-58657500D01*
G75*
G02*
X43252500Y-58420000I237500J0D01*
G01*
X43727500Y-58420000D01*
G75*
G02*
X43965000Y-58657500I0J-237500D01*
G01*
X43965000Y-59232500D01*
G75*
G02*
X43727500Y-59470000I-237500J0D01*
G01*
G37*
G36*
G01*
X43727500Y-57720000D02*
X43252500Y-57720000D01*
G75*
G02*
X43015000Y-57482500I0J237500D01*
G01*
X43015000Y-56907500D01*
G75*
G02*
X43252500Y-56670000I237500J0D01*
G01*
X43727500Y-56670000D01*
G75*
G02*
X43965000Y-56907500I0J-237500D01*
G01*
X43965000Y-57482500D01*
G75*
G02*
X43727500Y-57720000I-237500J0D01*
G01*
G37*
G36*
G01*
X58625000Y-69799999D02*
X58625000Y-70700001D01*
G75*
G02*
X58375001Y-70950000I-249999J0D01*
G01*
X57724999Y-70950000D01*
G75*
G02*
X57475000Y-70700001I0J249999D01*
G01*
X57475000Y-69799999D01*
G75*
G02*
X57724999Y-69550000I249999J0D01*
G01*
X58375001Y-69550000D01*
G75*
G02*
X58625000Y-69799999I0J-249999D01*
G01*
G37*
G36*
G01*
X60675000Y-69799999D02*
X60675000Y-70700001D01*
G75*
G02*
X60425001Y-70950000I-249999J0D01*
G01*
X59774999Y-70950000D01*
G75*
G02*
X59525000Y-70700001I0J249999D01*
G01*
X59525000Y-69799999D01*
G75*
G02*
X59774999Y-69550000I249999J0D01*
G01*
X60425001Y-69550000D01*
G75*
G02*
X60675000Y-69799999I0J-249999D01*
G01*
G37*
D10*
X142163600Y-69043750D03*
X142163600Y-65893750D03*
X227889750Y-88093750D03*
X227889750Y-84943750D03*
X273133500Y-88093750D03*
X273133500Y-84943750D03*
X246939750Y-88093750D03*
X246939750Y-84943750D03*
X299327250Y-88093750D03*
X299327250Y-84943750D03*
X199314750Y-69043750D03*
X199314750Y-65893750D03*
X256464750Y-69043750D03*
X256464750Y-65893750D03*
X180264750Y-69043750D03*
X180264750Y-65893750D03*
X161214750Y-69043750D03*
X161214750Y-65893750D03*
X218364750Y-69043750D03*
X218364750Y-65893750D03*
X287421000Y-69043750D03*
X287421000Y-65893750D03*
X237414750Y-69043750D03*
X237414750Y-65893750D03*
D11*
X39830000Y-72280000D03*
X33530000Y-72280000D03*
X39830000Y-76080000D03*
X33530000Y-76080000D03*
D12*
X47952500Y-53245000D03*
X50152500Y-53245000D03*
X47952500Y-54845000D03*
X50152500Y-54845000D03*
D10*
X82633500Y-107143750D03*
X82633500Y-103993750D03*
X75489750Y-88093750D03*
X75489750Y-84943750D03*
X156452250Y-49993750D03*
X156452250Y-46843750D03*
X94539750Y-88093750D03*
X94539750Y-84943750D03*
X58821000Y-107143750D03*
X58821000Y-103993750D03*
X80252250Y-49993750D03*
X80252250Y-46843750D03*
X132639750Y-88093750D03*
X132639750Y-84943750D03*
X175502250Y-49993750D03*
X175502250Y-46843750D03*
X27230000Y-49993750D03*
X27230000Y-46843750D03*
X137402250Y-49993750D03*
X137402250Y-46843750D03*
X44533500Y-88093750D03*
X44533500Y-84943750D03*
X85014750Y-69043750D03*
X85014750Y-65893750D03*
X318376100Y-107143750D03*
X318376100Y-103993750D03*
X118352250Y-49993750D03*
X118352250Y-46843750D03*
X61202250Y-49993750D03*
X61202250Y-46843750D03*
X318376100Y-69043750D03*
X318376100Y-65893750D03*
X318376100Y-88093750D03*
X318376100Y-84943750D03*
X232652250Y-49993750D03*
X232652250Y-46843750D03*
X213602250Y-49993750D03*
X213602250Y-46843750D03*
X170739750Y-88093750D03*
X170739750Y-84943750D03*
X242177250Y-30943750D03*
X242177250Y-27793750D03*
X189789750Y-88093750D03*
X189789750Y-84943750D03*
X280276100Y-107143750D03*
X280276100Y-103993750D03*
X194552250Y-49993750D03*
X194552250Y-46843750D03*
X231298100Y-107143750D03*
X231298100Y-103993750D03*
X123114750Y-69043750D03*
X123114750Y-65893750D03*
X51677250Y-30943750D03*
X51677250Y-27793750D03*
X261227250Y-30943750D03*
X261227250Y-27793750D03*
X99302250Y-49993750D03*
X99302250Y-46843750D03*
X299327250Y-107143750D03*
X299327250Y-103993750D03*
X318376100Y-49993750D03*
X318376100Y-46843750D03*
X104064750Y-69043750D03*
X104064750Y-65893750D03*
X35008500Y-107143750D03*
X35008500Y-103993750D03*
X261227250Y-107143750D03*
X261227250Y-103993750D03*
X208839750Y-88093750D03*
X208839750Y-84943750D03*
X24850000Y-69043750D03*
X24850000Y-65893750D03*
X113589750Y-88093750D03*
X113589750Y-84943750D03*
X294564750Y-49993750D03*
X294564750Y-46843750D03*
X289802250Y-30943750D03*
X289802250Y-27793750D03*
X151689750Y-88093750D03*
X151689750Y-84943750D03*
X212248100Y-107143750D03*
X212248100Y-103993750D03*
X65964750Y-69043750D03*
X65964750Y-65893750D03*
X318376100Y-30943750D03*
X318376100Y-27793750D03*
X270752250Y-49993750D03*
X270752250Y-46843750D03*
X251702250Y-49993750D03*
X251702250Y-46843750D03*
X204077250Y-30943750D03*
X204077250Y-27793750D03*
X185027250Y-30943750D03*
X185027250Y-27793750D03*
X165977250Y-30943750D03*
X165977250Y-27793750D03*
X146927250Y-30943750D03*
X146927250Y-27793750D03*
X127877250Y-30943750D03*
X127877250Y-27793750D03*
X108827250Y-30943750D03*
X108827250Y-27793750D03*
X89777250Y-30943750D03*
X89777250Y-27793750D03*
X70727250Y-30943750D03*
X70727250Y-27793750D03*
X56356250Y-30943750D03*
X56356250Y-27793750D03*
X223127250Y-30943750D03*
X223127250Y-27793750D03*
X154071000Y-107143750D03*
X154071000Y-103993750D03*
G36*
G01*
X44155000Y-72730001D02*
X44155000Y-71829999D01*
G75*
G02*
X44404999Y-71580000I249999J0D01*
G01*
X45055001Y-71580000D01*
G75*
G02*
X45305000Y-71829999I0J-249999D01*
G01*
X45305000Y-72730001D01*
G75*
G02*
X45055001Y-72980000I-249999J0D01*
G01*
X44404999Y-72980000D01*
G75*
G02*
X44155000Y-72730001I0J249999D01*
G01*
G37*
G36*
G01*
X46205000Y-72730001D02*
X46205000Y-71829999D01*
G75*
G02*
X46454999Y-71580000I249999J0D01*
G01*
X47105001Y-71580000D01*
G75*
G02*
X47355000Y-71829999I0J-249999D01*
G01*
X47355000Y-72730001D01*
G75*
G02*
X47105001Y-72980000I-249999J0D01*
G01*
X46454999Y-72980000D01*
G75*
G02*
X46205000Y-72730001I0J249999D01*
G01*
G37*
G36*
G01*
X37897001Y-39260000D02*
X36996999Y-39260000D01*
G75*
G02*
X36747000Y-39010001I0J249999D01*
G01*
X36747000Y-38359999D01*
G75*
G02*
X36996999Y-38110000I249999J0D01*
G01*
X37897001Y-38110000D01*
G75*
G02*
X38147000Y-38359999I0J-249999D01*
G01*
X38147000Y-39010001D01*
G75*
G02*
X37897001Y-39260000I-249999J0D01*
G01*
G37*
G36*
G01*
X37897001Y-37210000D02*
X36996999Y-37210000D01*
G75*
G02*
X36747000Y-36960001I0J249999D01*
G01*
X36747000Y-36309999D01*
G75*
G02*
X36996999Y-36060000I249999J0D01*
G01*
X37897001Y-36060000D01*
G75*
G02*
X38147000Y-36309999I0J-249999D01*
G01*
X38147000Y-36960001D01*
G75*
G02*
X37897001Y-37210000I-249999J0D01*
G01*
G37*
G36*
G01*
X40347001Y-37210000D02*
X39446999Y-37210000D01*
G75*
G02*
X39197000Y-36960001I0J249999D01*
G01*
X39197000Y-36309999D01*
G75*
G02*
X39446999Y-36060000I249999J0D01*
G01*
X40347001Y-36060000D01*
G75*
G02*
X40597000Y-36309999I0J-249999D01*
G01*
X40597000Y-36960001D01*
G75*
G02*
X40347001Y-37210000I-249999J0D01*
G01*
G37*
G36*
G01*
X40347001Y-39260000D02*
X39446999Y-39260000D01*
G75*
G02*
X39197000Y-39010001I0J249999D01*
G01*
X39197000Y-38359999D01*
G75*
G02*
X39446999Y-38110000I249999J0D01*
G01*
X40347001Y-38110000D01*
G75*
G02*
X40597000Y-38359999I0J-249999D01*
G01*
X40597000Y-39010001D01*
G75*
G02*
X40347001Y-39260000I-249999J0D01*
G01*
G37*
G36*
G01*
X35225000Y-36260000D02*
X33975000Y-36260000D01*
G75*
G02*
X33725000Y-36010000I0J250000D01*
G01*
X33725000Y-35085000D01*
G75*
G02*
X33975000Y-34835000I250000J0D01*
G01*
X35225000Y-34835000D01*
G75*
G02*
X35475000Y-35085000I0J-250000D01*
G01*
X35475000Y-36010000D01*
G75*
G02*
X35225000Y-36260000I-250000J0D01*
G01*
G37*
G36*
G01*
X35225000Y-33285000D02*
X33975000Y-33285000D01*
G75*
G02*
X33725000Y-33035000I0J250000D01*
G01*
X33725000Y-32110000D01*
G75*
G02*
X33975000Y-31860000I250000J0D01*
G01*
X35225000Y-31860000D01*
G75*
G02*
X35475000Y-32110000I0J-250000D01*
G01*
X35475000Y-33035000D01*
G75*
G02*
X35225000Y-33285000I-250000J0D01*
G01*
G37*
G36*
G01*
X32167999Y-29975000D02*
X33068001Y-29975000D01*
G75*
G02*
X33318000Y-30224999I0J-249999D01*
G01*
X33318000Y-30875001D01*
G75*
G02*
X33068001Y-31125000I-249999J0D01*
G01*
X32167999Y-31125000D01*
G75*
G02*
X31918000Y-30875001I0J249999D01*
G01*
X31918000Y-30224999D01*
G75*
G02*
X32167999Y-29975000I249999J0D01*
G01*
G37*
G36*
G01*
X32167999Y-27925000D02*
X33068001Y-27925000D01*
G75*
G02*
X33318000Y-28174999I0J-249999D01*
G01*
X33318000Y-28825001D01*
G75*
G02*
X33068001Y-29075000I-249999J0D01*
G01*
X32167999Y-29075000D01*
G75*
G02*
X31918000Y-28825001I0J249999D01*
G01*
X31918000Y-28174999D01*
G75*
G02*
X32167999Y-27925000I249999J0D01*
G01*
G37*
G36*
G01*
X42299999Y-32460000D02*
X43200001Y-32460000D01*
G75*
G02*
X43450000Y-32709999I0J-249999D01*
G01*
X43450000Y-33360001D01*
G75*
G02*
X43200001Y-33610000I-249999J0D01*
G01*
X42299999Y-33610000D01*
G75*
G02*
X42050000Y-33360001I0J249999D01*
G01*
X42050000Y-32709999D01*
G75*
G02*
X42299999Y-32460000I249999J0D01*
G01*
G37*
G36*
G01*
X42299999Y-34510000D02*
X43200001Y-34510000D01*
G75*
G02*
X43450000Y-34759999I0J-249999D01*
G01*
X43450000Y-35410001D01*
G75*
G02*
X43200001Y-35660000I-249999J0D01*
G01*
X42299999Y-35660000D01*
G75*
G02*
X42050000Y-35410001I0J249999D01*
G01*
X42050000Y-34759999D01*
G75*
G02*
X42299999Y-34510000I249999J0D01*
G01*
G37*
G36*
G01*
X46810000Y-66003751D02*
X46810000Y-65453749D01*
G75*
G02*
X47059999Y-65203750I249999J0D01*
G01*
X47610001Y-65203750D01*
G75*
G02*
X47860000Y-65453749I0J-249999D01*
G01*
X47860000Y-66003751D01*
G75*
G02*
X47610001Y-66253750I-249999J0D01*
G01*
X47059999Y-66253750D01*
G75*
G02*
X46810000Y-66003751I0J249999D01*
G01*
G37*
G36*
G01*
X46810000Y-64703751D02*
X46810000Y-64153749D01*
G75*
G02*
X47059999Y-63903750I249999J0D01*
G01*
X47610001Y-63903750D01*
G75*
G02*
X47860000Y-64153749I0J-249999D01*
G01*
X47860000Y-64703751D01*
G75*
G02*
X47610001Y-64953750I-249999J0D01*
G01*
X47059999Y-64953750D01*
G75*
G02*
X46810000Y-64703751I0J249999D01*
G01*
G37*
G36*
G01*
X46810000Y-63403751D02*
X46810000Y-62853749D01*
G75*
G02*
X47059999Y-62603750I249999J0D01*
G01*
X47610001Y-62603750D01*
G75*
G02*
X47860000Y-62853749I0J-249999D01*
G01*
X47860000Y-63403751D01*
G75*
G02*
X47610001Y-63653750I-249999J0D01*
G01*
X47059999Y-63653750D01*
G75*
G02*
X46810000Y-63403751I0J249999D01*
G01*
G37*
G36*
G01*
X46810000Y-62103751D02*
X46810000Y-61553749D01*
G75*
G02*
X47059999Y-61303750I249999J0D01*
G01*
X47610001Y-61303750D01*
G75*
G02*
X47860000Y-61553749I0J-249999D01*
G01*
X47860000Y-62103751D01*
G75*
G02*
X47610001Y-62353750I-249999J0D01*
G01*
X47059999Y-62353750D01*
G75*
G02*
X46810000Y-62103751I0J249999D01*
G01*
G37*
G36*
G01*
X48110000Y-66003751D02*
X48110000Y-65453749D01*
G75*
G02*
X48359999Y-65203750I249999J0D01*
G01*
X48910001Y-65203750D01*
G75*
G02*
X49160000Y-65453749I0J-249999D01*
G01*
X49160000Y-66003751D01*
G75*
G02*
X48910001Y-66253750I-249999J0D01*
G01*
X48359999Y-66253750D01*
G75*
G02*
X48110000Y-66003751I0J249999D01*
G01*
G37*
G36*
G01*
X48110000Y-64703751D02*
X48110000Y-64153749D01*
G75*
G02*
X48359999Y-63903750I249999J0D01*
G01*
X48910001Y-63903750D01*
G75*
G02*
X49160000Y-64153749I0J-249999D01*
G01*
X49160000Y-64703751D01*
G75*
G02*
X48910001Y-64953750I-249999J0D01*
G01*
X48359999Y-64953750D01*
G75*
G02*
X48110000Y-64703751I0J249999D01*
G01*
G37*
G36*
G01*
X48110000Y-63403751D02*
X48110000Y-62853749D01*
G75*
G02*
X48359999Y-62603750I249999J0D01*
G01*
X48910001Y-62603750D01*
G75*
G02*
X49160000Y-62853749I0J-249999D01*
G01*
X49160000Y-63403751D01*
G75*
G02*
X48910001Y-63653750I-249999J0D01*
G01*
X48359999Y-63653750D01*
G75*
G02*
X48110000Y-63403751I0J249999D01*
G01*
G37*
G36*
G01*
X48110000Y-62103751D02*
X48110000Y-61553749D01*
G75*
G02*
X48359999Y-61303750I249999J0D01*
G01*
X48910001Y-61303750D01*
G75*
G02*
X49160000Y-61553749I0J-249999D01*
G01*
X49160000Y-62103751D01*
G75*
G02*
X48910001Y-62353750I-249999J0D01*
G01*
X48359999Y-62353750D01*
G75*
G02*
X48110000Y-62103751I0J249999D01*
G01*
G37*
G36*
G01*
X49410000Y-66003751D02*
X49410000Y-65453749D01*
G75*
G02*
X49659999Y-65203750I249999J0D01*
G01*
X50210001Y-65203750D01*
G75*
G02*
X50460000Y-65453749I0J-249999D01*
G01*
X50460000Y-66003751D01*
G75*
G02*
X50210001Y-66253750I-249999J0D01*
G01*
X49659999Y-66253750D01*
G75*
G02*
X49410000Y-66003751I0J249999D01*
G01*
G37*
G36*
G01*
X49410000Y-64703751D02*
X49410000Y-64153749D01*
G75*
G02*
X49659999Y-63903750I249999J0D01*
G01*
X50210001Y-63903750D01*
G75*
G02*
X50460000Y-64153749I0J-249999D01*
G01*
X50460000Y-64703751D01*
G75*
G02*
X50210001Y-64953750I-249999J0D01*
G01*
X49659999Y-64953750D01*
G75*
G02*
X49410000Y-64703751I0J249999D01*
G01*
G37*
G36*
G01*
X49410000Y-63403751D02*
X49410000Y-62853749D01*
G75*
G02*
X49659999Y-62603750I249999J0D01*
G01*
X50210001Y-62603750D01*
G75*
G02*
X50460000Y-62853749I0J-249999D01*
G01*
X50460000Y-63403751D01*
G75*
G02*
X50210001Y-63653750I-249999J0D01*
G01*
X49659999Y-63653750D01*
G75*
G02*
X49410000Y-63403751I0J249999D01*
G01*
G37*
G36*
G01*
X49410000Y-62103751D02*
X49410000Y-61553749D01*
G75*
G02*
X49659999Y-61303750I249999J0D01*
G01*
X50210001Y-61303750D01*
G75*
G02*
X50460000Y-61553749I0J-249999D01*
G01*
X50460000Y-62103751D01*
G75*
G02*
X50210001Y-62353750I-249999J0D01*
G01*
X49659999Y-62353750D01*
G75*
G02*
X49410000Y-62103751I0J249999D01*
G01*
G37*
G36*
G01*
X50710000Y-66003751D02*
X50710000Y-65453749D01*
G75*
G02*
X50959999Y-65203750I249999J0D01*
G01*
X51510001Y-65203750D01*
G75*
G02*
X51760000Y-65453749I0J-249999D01*
G01*
X51760000Y-66003751D01*
G75*
G02*
X51510001Y-66253750I-249999J0D01*
G01*
X50959999Y-66253750D01*
G75*
G02*
X50710000Y-66003751I0J249999D01*
G01*
G37*
G36*
G01*
X50710000Y-64703751D02*
X50710000Y-64153749D01*
G75*
G02*
X50959999Y-63903750I249999J0D01*
G01*
X51510001Y-63903750D01*
G75*
G02*
X51760000Y-64153749I0J-249999D01*
G01*
X51760000Y-64703751D01*
G75*
G02*
X51510001Y-64953750I-249999J0D01*
G01*
X50959999Y-64953750D01*
G75*
G02*
X50710000Y-64703751I0J249999D01*
G01*
G37*
G36*
G01*
X50710000Y-63403751D02*
X50710000Y-62853749D01*
G75*
G02*
X50959999Y-62603750I249999J0D01*
G01*
X51510001Y-62603750D01*
G75*
G02*
X51760000Y-62853749I0J-249999D01*
G01*
X51760000Y-63403751D01*
G75*
G02*
X51510001Y-63653750I-249999J0D01*
G01*
X50959999Y-63653750D01*
G75*
G02*
X50710000Y-63403751I0J249999D01*
G01*
G37*
G36*
G01*
X50710000Y-62103751D02*
X50710000Y-61553749D01*
G75*
G02*
X50959999Y-61303750I249999J0D01*
G01*
X51510001Y-61303750D01*
G75*
G02*
X51760000Y-61553749I0J-249999D01*
G01*
X51760000Y-62103751D01*
G75*
G02*
X51510001Y-62353750I-249999J0D01*
G01*
X50959999Y-62353750D01*
G75*
G02*
X50710000Y-62103751I0J249999D01*
G01*
G37*
G36*
G01*
X45410000Y-66341250D02*
X45410000Y-66216250D01*
G75*
G02*
X45472500Y-66153750I62500J0D01*
G01*
X46422500Y-66153750D01*
G75*
G02*
X46485000Y-66216250I0J-62500D01*
G01*
X46485000Y-66341250D01*
G75*
G02*
X46422500Y-66403750I-62500J0D01*
G01*
X45472500Y-66403750D01*
G75*
G02*
X45410000Y-66341250I0J62500D01*
G01*
G37*
G36*
G01*
X45410000Y-65841250D02*
X45410000Y-65716250D01*
G75*
G02*
X45472500Y-65653750I62500J0D01*
G01*
X46422500Y-65653750D01*
G75*
G02*
X46485000Y-65716250I0J-62500D01*
G01*
X46485000Y-65841250D01*
G75*
G02*
X46422500Y-65903750I-62500J0D01*
G01*
X45472500Y-65903750D01*
G75*
G02*
X45410000Y-65841250I0J62500D01*
G01*
G37*
G36*
G01*
X45410000Y-65341250D02*
X45410000Y-65216250D01*
G75*
G02*
X45472500Y-65153750I62500J0D01*
G01*
X46422500Y-65153750D01*
G75*
G02*
X46485000Y-65216250I0J-62500D01*
G01*
X46485000Y-65341250D01*
G75*
G02*
X46422500Y-65403750I-62500J0D01*
G01*
X45472500Y-65403750D01*
G75*
G02*
X45410000Y-65341250I0J62500D01*
G01*
G37*
G36*
G01*
X45410000Y-64841250D02*
X45410000Y-64716250D01*
G75*
G02*
X45472500Y-64653750I62500J0D01*
G01*
X46422500Y-64653750D01*
G75*
G02*
X46485000Y-64716250I0J-62500D01*
G01*
X46485000Y-64841250D01*
G75*
G02*
X46422500Y-64903750I-62500J0D01*
G01*
X45472500Y-64903750D01*
G75*
G02*
X45410000Y-64841250I0J62500D01*
G01*
G37*
G36*
G01*
X45410000Y-64341250D02*
X45410000Y-64216250D01*
G75*
G02*
X45472500Y-64153750I62500J0D01*
G01*
X46422500Y-64153750D01*
G75*
G02*
X46485000Y-64216250I0J-62500D01*
G01*
X46485000Y-64341250D01*
G75*
G02*
X46422500Y-64403750I-62500J0D01*
G01*
X45472500Y-64403750D01*
G75*
G02*
X45410000Y-64341250I0J62500D01*
G01*
G37*
G36*
G01*
X45410000Y-63841250D02*
X45410000Y-63716250D01*
G75*
G02*
X45472500Y-63653750I62500J0D01*
G01*
X46422500Y-63653750D01*
G75*
G02*
X46485000Y-63716250I0J-62500D01*
G01*
X46485000Y-63841250D01*
G75*
G02*
X46422500Y-63903750I-62500J0D01*
G01*
X45472500Y-63903750D01*
G75*
G02*
X45410000Y-63841250I0J62500D01*
G01*
G37*
G36*
G01*
X45410000Y-63341250D02*
X45410000Y-63216250D01*
G75*
G02*
X45472500Y-63153750I62500J0D01*
G01*
X46422500Y-63153750D01*
G75*
G02*
X46485000Y-63216250I0J-62500D01*
G01*
X46485000Y-63341250D01*
G75*
G02*
X46422500Y-63403750I-62500J0D01*
G01*
X45472500Y-63403750D01*
G75*
G02*
X45410000Y-63341250I0J62500D01*
G01*
G37*
G36*
G01*
X45410000Y-62841250D02*
X45410000Y-62716250D01*
G75*
G02*
X45472500Y-62653750I62500J0D01*
G01*
X46422500Y-62653750D01*
G75*
G02*
X46485000Y-62716250I0J-62500D01*
G01*
X46485000Y-62841250D01*
G75*
G02*
X46422500Y-62903750I-62500J0D01*
G01*
X45472500Y-62903750D01*
G75*
G02*
X45410000Y-62841250I0J62500D01*
G01*
G37*
G36*
G01*
X45410000Y-62341250D02*
X45410000Y-62216250D01*
G75*
G02*
X45472500Y-62153750I62500J0D01*
G01*
X46422500Y-62153750D01*
G75*
G02*
X46485000Y-62216250I0J-62500D01*
G01*
X46485000Y-62341250D01*
G75*
G02*
X46422500Y-62403750I-62500J0D01*
G01*
X45472500Y-62403750D01*
G75*
G02*
X45410000Y-62341250I0J62500D01*
G01*
G37*
G36*
G01*
X45410000Y-61841250D02*
X45410000Y-61716250D01*
G75*
G02*
X45472500Y-61653750I62500J0D01*
G01*
X46422500Y-61653750D01*
G75*
G02*
X46485000Y-61716250I0J-62500D01*
G01*
X46485000Y-61841250D01*
G75*
G02*
X46422500Y-61903750I-62500J0D01*
G01*
X45472500Y-61903750D01*
G75*
G02*
X45410000Y-61841250I0J62500D01*
G01*
G37*
G36*
G01*
X45410000Y-61341250D02*
X45410000Y-61216250D01*
G75*
G02*
X45472500Y-61153750I62500J0D01*
G01*
X46422500Y-61153750D01*
G75*
G02*
X46485000Y-61216250I0J-62500D01*
G01*
X46485000Y-61341250D01*
G75*
G02*
X46422500Y-61403750I-62500J0D01*
G01*
X45472500Y-61403750D01*
G75*
G02*
X45410000Y-61341250I0J62500D01*
G01*
G37*
G36*
G01*
X46660000Y-60916250D02*
X46660000Y-59966250D01*
G75*
G02*
X46722500Y-59903750I62500J0D01*
G01*
X46847500Y-59903750D01*
G75*
G02*
X46910000Y-59966250I0J-62500D01*
G01*
X46910000Y-60916250D01*
G75*
G02*
X46847500Y-60978750I-62500J0D01*
G01*
X46722500Y-60978750D01*
G75*
G02*
X46660000Y-60916250I0J62500D01*
G01*
G37*
G36*
G01*
X47160000Y-60916250D02*
X47160000Y-59966250D01*
G75*
G02*
X47222500Y-59903750I62500J0D01*
G01*
X47347500Y-59903750D01*
G75*
G02*
X47410000Y-59966250I0J-62500D01*
G01*
X47410000Y-60916250D01*
G75*
G02*
X47347500Y-60978750I-62500J0D01*
G01*
X47222500Y-60978750D01*
G75*
G02*
X47160000Y-60916250I0J62500D01*
G01*
G37*
G36*
G01*
X47660000Y-60916250D02*
X47660000Y-59966250D01*
G75*
G02*
X47722500Y-59903750I62500J0D01*
G01*
X47847500Y-59903750D01*
G75*
G02*
X47910000Y-59966250I0J-62500D01*
G01*
X47910000Y-60916250D01*
G75*
G02*
X47847500Y-60978750I-62500J0D01*
G01*
X47722500Y-60978750D01*
G75*
G02*
X47660000Y-60916250I0J62500D01*
G01*
G37*
G36*
G01*
X48160000Y-60916250D02*
X48160000Y-59966250D01*
G75*
G02*
X48222500Y-59903750I62500J0D01*
G01*
X48347500Y-59903750D01*
G75*
G02*
X48410000Y-59966250I0J-62500D01*
G01*
X48410000Y-60916250D01*
G75*
G02*
X48347500Y-60978750I-62500J0D01*
G01*
X48222500Y-60978750D01*
G75*
G02*
X48160000Y-60916250I0J62500D01*
G01*
G37*
G36*
G01*
X48660000Y-60916250D02*
X48660000Y-59966250D01*
G75*
G02*
X48722500Y-59903750I62500J0D01*
G01*
X48847500Y-59903750D01*
G75*
G02*
X48910000Y-59966250I0J-62500D01*
G01*
X48910000Y-60916250D01*
G75*
G02*
X48847500Y-60978750I-62500J0D01*
G01*
X48722500Y-60978750D01*
G75*
G02*
X48660000Y-60916250I0J62500D01*
G01*
G37*
G36*
G01*
X49160000Y-60916250D02*
X49160000Y-59966250D01*
G75*
G02*
X49222500Y-59903750I62500J0D01*
G01*
X49347500Y-59903750D01*
G75*
G02*
X49410000Y-59966250I0J-62500D01*
G01*
X49410000Y-60916250D01*
G75*
G02*
X49347500Y-60978750I-62500J0D01*
G01*
X49222500Y-60978750D01*
G75*
G02*
X49160000Y-60916250I0J62500D01*
G01*
G37*
G36*
G01*
X49660000Y-60916250D02*
X49660000Y-59966250D01*
G75*
G02*
X49722500Y-59903750I62500J0D01*
G01*
X49847500Y-59903750D01*
G75*
G02*
X49910000Y-59966250I0J-62500D01*
G01*
X49910000Y-60916250D01*
G75*
G02*
X49847500Y-60978750I-62500J0D01*
G01*
X49722500Y-60978750D01*
G75*
G02*
X49660000Y-60916250I0J62500D01*
G01*
G37*
G36*
G01*
X50160000Y-60916250D02*
X50160000Y-59966250D01*
G75*
G02*
X50222500Y-59903750I62500J0D01*
G01*
X50347500Y-59903750D01*
G75*
G02*
X50410000Y-59966250I0J-62500D01*
G01*
X50410000Y-60916250D01*
G75*
G02*
X50347500Y-60978750I-62500J0D01*
G01*
X50222500Y-60978750D01*
G75*
G02*
X50160000Y-60916250I0J62500D01*
G01*
G37*
G36*
G01*
X50660000Y-60916250D02*
X50660000Y-59966250D01*
G75*
G02*
X50722500Y-59903750I62500J0D01*
G01*
X50847500Y-59903750D01*
G75*
G02*
X50910000Y-59966250I0J-62500D01*
G01*
X50910000Y-60916250D01*
G75*
G02*
X50847500Y-60978750I-62500J0D01*
G01*
X50722500Y-60978750D01*
G75*
G02*
X50660000Y-60916250I0J62500D01*
G01*
G37*
G36*
G01*
X51160000Y-60916250D02*
X51160000Y-59966250D01*
G75*
G02*
X51222500Y-59903750I62500J0D01*
G01*
X51347500Y-59903750D01*
G75*
G02*
X51410000Y-59966250I0J-62500D01*
G01*
X51410000Y-60916250D01*
G75*
G02*
X51347500Y-60978750I-62500J0D01*
G01*
X51222500Y-60978750D01*
G75*
G02*
X51160000Y-60916250I0J62500D01*
G01*
G37*
G36*
G01*
X51660000Y-60916250D02*
X51660000Y-59966250D01*
G75*
G02*
X51722500Y-59903750I62500J0D01*
G01*
X51847500Y-59903750D01*
G75*
G02*
X51910000Y-59966250I0J-62500D01*
G01*
X51910000Y-60916250D01*
G75*
G02*
X51847500Y-60978750I-62500J0D01*
G01*
X51722500Y-60978750D01*
G75*
G02*
X51660000Y-60916250I0J62500D01*
G01*
G37*
G36*
G01*
X52085000Y-61341250D02*
X52085000Y-61216250D01*
G75*
G02*
X52147500Y-61153750I62500J0D01*
G01*
X53097500Y-61153750D01*
G75*
G02*
X53160000Y-61216250I0J-62500D01*
G01*
X53160000Y-61341250D01*
G75*
G02*
X53097500Y-61403750I-62500J0D01*
G01*
X52147500Y-61403750D01*
G75*
G02*
X52085000Y-61341250I0J62500D01*
G01*
G37*
G36*
G01*
X52085000Y-61841250D02*
X52085000Y-61716250D01*
G75*
G02*
X52147500Y-61653750I62500J0D01*
G01*
X53097500Y-61653750D01*
G75*
G02*
X53160000Y-61716250I0J-62500D01*
G01*
X53160000Y-61841250D01*
G75*
G02*
X53097500Y-61903750I-62500J0D01*
G01*
X52147500Y-61903750D01*
G75*
G02*
X52085000Y-61841250I0J62500D01*
G01*
G37*
G36*
G01*
X52085000Y-62341250D02*
X52085000Y-62216250D01*
G75*
G02*
X52147500Y-62153750I62500J0D01*
G01*
X53097500Y-62153750D01*
G75*
G02*
X53160000Y-62216250I0J-62500D01*
G01*
X53160000Y-62341250D01*
G75*
G02*
X53097500Y-62403750I-62500J0D01*
G01*
X52147500Y-62403750D01*
G75*
G02*
X52085000Y-62341250I0J62500D01*
G01*
G37*
G36*
G01*
X52085000Y-62841250D02*
X52085000Y-62716250D01*
G75*
G02*
X52147500Y-62653750I62500J0D01*
G01*
X53097500Y-62653750D01*
G75*
G02*
X53160000Y-62716250I0J-62500D01*
G01*
X53160000Y-62841250D01*
G75*
G02*
X53097500Y-62903750I-62500J0D01*
G01*
X52147500Y-62903750D01*
G75*
G02*
X52085000Y-62841250I0J62500D01*
G01*
G37*
G36*
G01*
X52085000Y-63341250D02*
X52085000Y-63216250D01*
G75*
G02*
X52147500Y-63153750I62500J0D01*
G01*
X53097500Y-63153750D01*
G75*
G02*
X53160000Y-63216250I0J-62500D01*
G01*
X53160000Y-63341250D01*
G75*
G02*
X53097500Y-63403750I-62500J0D01*
G01*
X52147500Y-63403750D01*
G75*
G02*
X52085000Y-63341250I0J62500D01*
G01*
G37*
G36*
G01*
X52085000Y-63841250D02*
X52085000Y-63716250D01*
G75*
G02*
X52147500Y-63653750I62500J0D01*
G01*
X53097500Y-63653750D01*
G75*
G02*
X53160000Y-63716250I0J-62500D01*
G01*
X53160000Y-63841250D01*
G75*
G02*
X53097500Y-63903750I-62500J0D01*
G01*
X52147500Y-63903750D01*
G75*
G02*
X52085000Y-63841250I0J62500D01*
G01*
G37*
G36*
G01*
X52085000Y-64341250D02*
X52085000Y-64216250D01*
G75*
G02*
X52147500Y-64153750I62500J0D01*
G01*
X53097500Y-64153750D01*
G75*
G02*
X53160000Y-64216250I0J-62500D01*
G01*
X53160000Y-64341250D01*
G75*
G02*
X53097500Y-64403750I-62500J0D01*
G01*
X52147500Y-64403750D01*
G75*
G02*
X52085000Y-64341250I0J62500D01*
G01*
G37*
G36*
G01*
X52085000Y-64841250D02*
X52085000Y-64716250D01*
G75*
G02*
X52147500Y-64653750I62500J0D01*
G01*
X53097500Y-64653750D01*
G75*
G02*
X53160000Y-64716250I0J-62500D01*
G01*
X53160000Y-64841250D01*
G75*
G02*
X53097500Y-64903750I-62500J0D01*
G01*
X52147500Y-64903750D01*
G75*
G02*
X52085000Y-64841250I0J62500D01*
G01*
G37*
G36*
G01*
X52085000Y-65341250D02*
X52085000Y-65216250D01*
G75*
G02*
X52147500Y-65153750I62500J0D01*
G01*
X53097500Y-65153750D01*
G75*
G02*
X53160000Y-65216250I0J-62500D01*
G01*
X53160000Y-65341250D01*
G75*
G02*
X53097500Y-65403750I-62500J0D01*
G01*
X52147500Y-65403750D01*
G75*
G02*
X52085000Y-65341250I0J62500D01*
G01*
G37*
G36*
G01*
X52085000Y-65841250D02*
X52085000Y-65716250D01*
G75*
G02*
X52147500Y-65653750I62500J0D01*
G01*
X53097500Y-65653750D01*
G75*
G02*
X53160000Y-65716250I0J-62500D01*
G01*
X53160000Y-65841250D01*
G75*
G02*
X53097500Y-65903750I-62500J0D01*
G01*
X52147500Y-65903750D01*
G75*
G02*
X52085000Y-65841250I0J62500D01*
G01*
G37*
G36*
G01*
X52085000Y-66341250D02*
X52085000Y-66216250D01*
G75*
G02*
X52147500Y-66153750I62500J0D01*
G01*
X53097500Y-66153750D01*
G75*
G02*
X53160000Y-66216250I0J-62500D01*
G01*
X53160000Y-66341250D01*
G75*
G02*
X53097500Y-66403750I-62500J0D01*
G01*
X52147500Y-66403750D01*
G75*
G02*
X52085000Y-66341250I0J62500D01*
G01*
G37*
G36*
G01*
X51660000Y-67591250D02*
X51660000Y-66641250D01*
G75*
G02*
X51722500Y-66578750I62500J0D01*
G01*
X51847500Y-66578750D01*
G75*
G02*
X51910000Y-66641250I0J-62500D01*
G01*
X51910000Y-67591250D01*
G75*
G02*
X51847500Y-67653750I-62500J0D01*
G01*
X51722500Y-67653750D01*
G75*
G02*
X51660000Y-67591250I0J62500D01*
G01*
G37*
G36*
G01*
X51160000Y-67591250D02*
X51160000Y-66641250D01*
G75*
G02*
X51222500Y-66578750I62500J0D01*
G01*
X51347500Y-66578750D01*
G75*
G02*
X51410000Y-66641250I0J-62500D01*
G01*
X51410000Y-67591250D01*
G75*
G02*
X51347500Y-67653750I-62500J0D01*
G01*
X51222500Y-67653750D01*
G75*
G02*
X51160000Y-67591250I0J62500D01*
G01*
G37*
G36*
G01*
X50660000Y-67591250D02*
X50660000Y-66641250D01*
G75*
G02*
X50722500Y-66578750I62500J0D01*
G01*
X50847500Y-66578750D01*
G75*
G02*
X50910000Y-66641250I0J-62500D01*
G01*
X50910000Y-67591250D01*
G75*
G02*
X50847500Y-67653750I-62500J0D01*
G01*
X50722500Y-67653750D01*
G75*
G02*
X50660000Y-67591250I0J62500D01*
G01*
G37*
G36*
G01*
X50160000Y-67591250D02*
X50160000Y-66641250D01*
G75*
G02*
X50222500Y-66578750I62500J0D01*
G01*
X50347500Y-66578750D01*
G75*
G02*
X50410000Y-66641250I0J-62500D01*
G01*
X50410000Y-67591250D01*
G75*
G02*
X50347500Y-67653750I-62500J0D01*
G01*
X50222500Y-67653750D01*
G75*
G02*
X50160000Y-67591250I0J62500D01*
G01*
G37*
G36*
G01*
X49660000Y-67591250D02*
X49660000Y-66641250D01*
G75*
G02*
X49722500Y-66578750I62500J0D01*
G01*
X49847500Y-66578750D01*
G75*
G02*
X49910000Y-66641250I0J-62500D01*
G01*
X49910000Y-67591250D01*
G75*
G02*
X49847500Y-67653750I-62500J0D01*
G01*
X49722500Y-67653750D01*
G75*
G02*
X49660000Y-67591250I0J62500D01*
G01*
G37*
G36*
G01*
X49160000Y-67591250D02*
X49160000Y-66641250D01*
G75*
G02*
X49222500Y-66578750I62500J0D01*
G01*
X49347500Y-66578750D01*
G75*
G02*
X49410000Y-66641250I0J-62500D01*
G01*
X49410000Y-67591250D01*
G75*
G02*
X49347500Y-67653750I-62500J0D01*
G01*
X49222500Y-67653750D01*
G75*
G02*
X49160000Y-67591250I0J62500D01*
G01*
G37*
G36*
G01*
X48660000Y-67591250D02*
X48660000Y-66641250D01*
G75*
G02*
X48722500Y-66578750I62500J0D01*
G01*
X48847500Y-66578750D01*
G75*
G02*
X48910000Y-66641250I0J-62500D01*
G01*
X48910000Y-67591250D01*
G75*
G02*
X48847500Y-67653750I-62500J0D01*
G01*
X48722500Y-67653750D01*
G75*
G02*
X48660000Y-67591250I0J62500D01*
G01*
G37*
G36*
G01*
X48160000Y-67591250D02*
X48160000Y-66641250D01*
G75*
G02*
X48222500Y-66578750I62500J0D01*
G01*
X48347500Y-66578750D01*
G75*
G02*
X48410000Y-66641250I0J-62500D01*
G01*
X48410000Y-67591250D01*
G75*
G02*
X48347500Y-67653750I-62500J0D01*
G01*
X48222500Y-67653750D01*
G75*
G02*
X48160000Y-67591250I0J62500D01*
G01*
G37*
G36*
G01*
X47660000Y-67591250D02*
X47660000Y-66641250D01*
G75*
G02*
X47722500Y-66578750I62500J0D01*
G01*
X47847500Y-66578750D01*
G75*
G02*
X47910000Y-66641250I0J-62500D01*
G01*
X47910000Y-67591250D01*
G75*
G02*
X47847500Y-67653750I-62500J0D01*
G01*
X47722500Y-67653750D01*
G75*
G02*
X47660000Y-67591250I0J62500D01*
G01*
G37*
G36*
G01*
X47160000Y-67591250D02*
X47160000Y-66641250D01*
G75*
G02*
X47222500Y-66578750I62500J0D01*
G01*
X47347500Y-66578750D01*
G75*
G02*
X47410000Y-66641250I0J-62500D01*
G01*
X47410000Y-67591250D01*
G75*
G02*
X47347500Y-67653750I-62500J0D01*
G01*
X47222500Y-67653750D01*
G75*
G02*
X47160000Y-67591250I0J62500D01*
G01*
G37*
G36*
G01*
X46660000Y-67591250D02*
X46660000Y-66641250D01*
G75*
G02*
X46722500Y-66578750I62500J0D01*
G01*
X46847500Y-66578750D01*
G75*
G02*
X46910000Y-66641250I0J-62500D01*
G01*
X46910000Y-67591250D01*
G75*
G02*
X46847500Y-67653750I-62500J0D01*
G01*
X46722500Y-67653750D01*
G75*
G02*
X46660000Y-67591250I0J62500D01*
G01*
G37*
D13*
X38462000Y-25570000D03*
X38962000Y-25570000D03*
X39462000Y-25570000D03*
X37962000Y-25570000D03*
X39962000Y-25570000D03*
X37462000Y-25570000D03*
X40462000Y-25570000D03*
X36962000Y-25570000D03*
D14*
X36262000Y-25570000D03*
X41162000Y-25570000D03*
X35487000Y-25570000D03*
X41937000Y-25570000D03*
D15*
X37690000Y-33030000D03*
X39690000Y-33030000D03*
X37690000Y-31130000D03*
D16*
X39690000Y-31330000D03*
M02*
