M48
; DRILL file {KiCad (5.1.9-1-g591a07d2d9)-1} date 05/31/21 00:50:04
; FORMAT={-:-/ absolute / metric / decimal}
; #@! TF.CreationDate,2021-05-31T00:50:04-06:00
; #@! TF.GenerationSoftware,Kicad,Pcbnew,(5.1.9-1-g591a07d2d9)-1
; #@! TF.FileFunction,NonPlated,1,2,NPTH
FMAT,2
METRIC
T1C0.650
T2C1.750
T3C3.048
T4C3.988
%
G90
G05
T1
X35.822Y-23.625
X41.602Y-23.625
T2
X24.445Y-29.525
X26.826Y-67.625
X26.826Y-105.725
X29.207Y-48.575
X31.589Y-67.625
X34.605Y-29.525
X36.351Y-86.675
X36.986Y-67.625
X36.986Y-105.725
X39.367Y-48.575
X41.749Y-67.625
X43.495Y-29.525
X46.511Y-86.675
X50.639Y-105.725
X53.02Y-48.575
X53.655Y-29.525
X57.782Y-67.625
X60.799Y-105.725
X62.545Y-29.525
X63.18Y-48.575
X67.307Y-86.675
X67.942Y-67.625
X72.07Y-48.575
X72.705Y-29.525
X74.451Y-105.725
X76.832Y-67.625
X77.468Y-86.675
X81.595Y-29.525
X82.23Y-48.575
X84.611Y-105.725
X86.358Y-86.675
X86.992Y-67.625
X91.12Y-48.575
X91.755Y-29.525
X95.882Y-67.625
X96.517Y-86.675
X100.645Y-29.525
X101.28Y-48.575
X105.407Y-86.675
X106.042Y-67.625
X110.17Y-48.575
X110.805Y-29.525
X114.932Y-67.625
X115.567Y-86.675
X119.695Y-29.525
X120.33Y-48.575
X124.457Y-86.675
X125.093Y-67.625
X129.22Y-48.575
X129.855Y-29.525
X133.982Y-67.625
X134.618Y-86.675
X138.745Y-29.525
X139.38Y-48.575
X143.507Y-86.675
X144.142Y-67.625
X145.89Y-105.725
X148.27Y-48.575
X148.905Y-29.525
X153.032Y-67.625
X153.667Y-86.675
X156.05Y-105.725
X157.795Y-29.525
X158.43Y-48.575
X162.558Y-86.675
X163.192Y-67.625
X167.32Y-48.575
X167.955Y-29.525
X172.082Y-67.625
X172.718Y-86.675
X176.845Y-29.525
X177.48Y-48.575
X181.607Y-86.675
X182.242Y-67.625
X186.37Y-48.575
X187.005Y-29.525
X191.132Y-67.625
X191.767Y-86.675
X195.895Y-29.525
X196.53Y-48.575
X200.657Y-86.675
X201.292Y-67.625
X205.42Y-48.575
X206.055Y-29.525
X210.183Y-67.625
X210.817Y-86.675
X214.945Y-29.525
X214.945Y-105.725
X215.58Y-48.575
X217.327Y-105.725
X219.707Y-86.675
X220.343Y-67.625
X224.47Y-48.575
X225.105Y-29.525
X225.105Y-105.725
X227.487Y-105.725
X229.232Y-67.625
X229.867Y-86.675
X233.995Y-29.525
X233.995Y-105.725
X234.63Y-48.575
X238.757Y-86.675
X239.392Y-67.625
X241.139Y-105.725
X243.52Y-48.575
X244.155Y-29.525
X244.155Y-105.725
X248.282Y-67.625
X248.917Y-86.675
X251.299Y-105.725
X253.045Y-29.525
X253.045Y-105.725
X253.68Y-48.575
X258.442Y-67.625
X262.57Y-48.575
X263.205Y-29.525
X263.205Y-105.725
X264.951Y-86.675
X272.095Y-105.725
X272.73Y-48.575
X275.111Y-86.675
X279.239Y-67.625
X281.62Y-29.525
X282.255Y-105.725
X286.382Y-48.575
X289.399Y-67.625
X291.145Y-86.675
X291.145Y-105.725
X291.78Y-29.525
X296.542Y-48.575
X301.305Y-86.675
X301.305Y-105.725
X310.195Y-29.525
X310.195Y-48.575
X310.195Y-67.625
X310.195Y-86.675
X310.195Y-105.725
X320.355Y-29.525
X320.355Y-48.575
X320.355Y-67.625
X320.355Y-86.675
X320.355Y-105.725
T3
X29.525Y-79.69
X53.337Y-79.69
X100.97Y-112.71
X200.969Y-112.71
X272.412Y-60.64
X274.794Y-22.54
X296.225Y-60.64
X298.606Y-22.54
T4
X29.525Y-29.525
X29.525Y-94.93
X31.906Y-67.625
X31.906Y-105.725
X34.288Y-48.575
X36.669Y-67.625
X41.431Y-86.675
X48.575Y-29.525
X53.337Y-94.93
X55.719Y-105.725
X58.1Y-48.575
X62.862Y-67.625
X67.625Y-29.525
X72.388Y-86.675
X77.15Y-48.575
X79.531Y-105.725
X81.912Y-67.625
X86.675Y-29.525
X91.438Y-86.675
X96.2Y-48.575
X100.962Y-67.625
X100.97Y-97.47
X105.725Y-29.525
X110.487Y-86.675
X115.25Y-48.575
X120.012Y-67.625
X124.775Y-29.525
X129.537Y-86.675
X134.3Y-48.575
X139.062Y-67.625
X143.825Y-29.525
X148.588Y-86.675
X150.97Y-105.725
X153.35Y-48.575
X158.112Y-67.625
X162.875Y-29.525
X167.637Y-86.675
X172.4Y-48.575
X177.162Y-67.625
X181.925Y-29.525
X186.688Y-86.675
X191.45Y-48.575
X196.212Y-67.625
X200.969Y-97.47
X200.975Y-29.525
X205.737Y-86.675
X210.5Y-48.575
X215.262Y-67.625
X220.025Y-29.525
X220.025Y-105.725
X222.407Y-105.725
X224.787Y-86.675
X229.55Y-48.575
X234.312Y-67.625
X239.075Y-29.525
X239.075Y-105.725
X243.837Y-86.675
X246.219Y-105.725
X248.6Y-48.575
X253.362Y-67.625
X258.125Y-29.525
X258.125Y-105.725
X267.65Y-48.575
X270.031Y-86.675
X272.412Y-75.88
X274.794Y-37.78
X277.175Y-105.725
X284.319Y-67.625
X286.7Y-29.525
X291.462Y-48.575
X296.225Y-75.88
X296.225Y-86.675
X296.225Y-105.725
X298.606Y-37.78
X315.275Y-29.525
X315.275Y-48.575
X315.275Y-67.625
X315.275Y-86.675
X315.275Y-105.725
T0
M30
