M48
; DRILL file {KiCad (5.1.9-1-g591a07d2d9)-1} date 05/31/21 00:50:04
; FORMAT={-:-/ absolute / metric / decimal}
; #@! TF.CreationDate,2021-05-31T00:50:04-06:00
; #@! TF.GenerationSoftware,Kicad,Pcbnew,(5.1.9-1-g591a07d2d9)-1
; #@! TF.FileFunction,Plated,1,2,PTH
FMAT,2
METRIC
T1C0.400
T2C0.600
T3C0.850
T4C1.470
T5C2.500
%
G90
G05
T1
X32.618Y-31.928
X34.27Y-51.98
X35.21Y-37.96
X36.863Y-59.389
X37.68Y-28.86
X37.69Y-29.83
X39.23Y-70.17
X39.9Y-106.85
X40.025Y-65.925
X40.457Y-58.758
X41.16Y-29.02
X41.262Y-59.389
X41.357Y-65.925
X42.138Y-57.972
X42.347Y-59.827
X44.1Y-69.9
X44.29Y-62.54
X44.73Y-70.9
X45.125Y-57.195
X46.075Y-69.9
X46.375Y-59.2
X48.675Y-75.525
X48.875Y-87.8
X49.125Y-74.725
X53.55Y-59.83
X54.179Y-72.846
X54.8Y-68.0
X54.837Y-69.35
X56.45Y-70.9
X56.625Y-58.075
X59.77Y-67.63
X59.917Y-74.158
X62.0Y-73.425
X72.39Y-67.63
X75.0Y-73.75
X81.91Y-86.68
X91.44Y-67.63
X95.0Y-73.75
X100.96Y-86.68
X110.49Y-67.63
X116.91Y-67.63
X120.01Y-86.68
X129.54Y-67.63
X139.06Y-86.68
X158.11Y-86.68
X167.64Y-67.63
X177.16Y-86.68
X186.69Y-67.63
X196.21Y-86.68
X205.74Y-67.63
X215.26Y-86.68
X224.79Y-67.63
X233.5Y-73.75
X234.31Y-86.68
X240.75Y-86.68
X243.84Y-67.63
X250.75Y-73.75
X262.89Y-67.63
X263.537Y-57.053
X305.75Y-67.63
T3
X29.15Y-54.66
X29.15Y-57.2
X31.69Y-54.66
X31.69Y-57.2
X34.23Y-54.66
X34.23Y-57.2
T4
X25.715Y-26.985
X28.096Y-65.085
X28.096Y-103.185
X30.477Y-46.035
X32.065Y-24.445
X32.859Y-65.085
X34.446Y-62.545
X34.446Y-100.645
X36.828Y-43.495
X37.621Y-84.135
X39.209Y-62.545
X43.971Y-81.595
X44.765Y-26.985
X51.115Y-24.445
X51.909Y-103.185
X54.29Y-46.035
X58.259Y-100.645
X59.052Y-65.085
X60.64Y-43.495
X63.815Y-26.985
X65.403Y-62.545
X68.578Y-84.135
X70.165Y-24.445
X73.34Y-46.035
X74.927Y-81.595
X75.721Y-103.185
X78.102Y-65.085
X79.69Y-43.495
X82.071Y-100.645
X82.865Y-26.985
X84.453Y-62.545
X87.627Y-84.135
X89.215Y-24.445
X92.39Y-46.035
X93.977Y-81.595
X97.152Y-65.085
X98.74Y-43.495
X101.915Y-26.985
X103.502Y-62.545
X106.677Y-84.135
X108.265Y-24.445
X111.44Y-46.035
X113.027Y-81.595
X116.203Y-65.085
X117.79Y-43.495
X120.965Y-26.985
X122.552Y-62.545
X125.727Y-84.135
X127.315Y-24.445
X130.49Y-46.035
X132.077Y-81.595
X135.252Y-65.085
X136.84Y-43.495
X140.015Y-26.985
X141.602Y-62.545
X144.778Y-84.135
X146.365Y-24.445
X147.16Y-103.185
X149.54Y-46.035
X151.127Y-81.595
X153.51Y-100.645
X154.302Y-65.085
X155.89Y-43.495
X159.065Y-26.985
X160.653Y-62.545
X163.827Y-84.135
X165.415Y-24.445
X168.59Y-46.035
X170.177Y-81.595
X173.352Y-65.085
X174.94Y-43.495
X178.115Y-26.985
X179.702Y-62.545
X182.877Y-84.135
X184.465Y-24.445
X187.64Y-46.035
X189.227Y-81.595
X192.403Y-65.085
X193.99Y-43.495
X197.165Y-26.985
X198.752Y-62.545
X201.927Y-84.135
X203.515Y-24.445
X206.69Y-46.035
X208.278Y-81.595
X211.452Y-65.085
X213.04Y-43.495
X216.215Y-26.985
X216.215Y-103.185
X217.802Y-62.545
X218.597Y-103.185
X220.977Y-84.135
X222.565Y-24.445
X222.565Y-100.645
X224.947Y-100.645
X225.74Y-46.035
X227.327Y-81.595
X230.502Y-65.085
X232.09Y-43.495
X235.265Y-26.985
X235.265Y-103.185
X236.852Y-62.545
X240.027Y-84.135
X241.615Y-24.445
X241.615Y-100.645
X242.409Y-103.185
X244.79Y-46.035
X246.377Y-81.595
X248.759Y-100.645
X249.552Y-65.085
X251.14Y-43.495
X254.315Y-26.985
X254.315Y-103.185
X255.902Y-62.545
X260.665Y-24.445
X260.665Y-100.645
X263.84Y-46.035
X266.221Y-84.135
X270.19Y-43.495
X272.571Y-81.595
X273.365Y-103.185
X279.715Y-100.645
X280.509Y-65.085
X282.89Y-26.985
X286.859Y-62.545
X287.652Y-46.035
X289.24Y-24.445
X292.415Y-84.135
X292.415Y-103.185
X294.002Y-43.495
X298.765Y-81.595
X298.765Y-100.645
X311.465Y-26.985
X311.465Y-46.035
X311.465Y-65.085
X311.465Y-84.135
X311.465Y-103.185
X317.815Y-24.445
X317.815Y-43.495
X317.815Y-62.545
X317.815Y-81.595
X317.815Y-100.645
T2
G00X34.392Y-19.675
M15
G01X34.392Y-20.275
M16
G05
G00X34.392Y-23.605
M15
G01X34.392Y-24.705
M16
G05
G00X43.032Y-19.675
M15
G01X43.032Y-20.275
M16
G05
G00X43.032Y-23.605
M15
G01X43.032Y-24.705
M16
G05
T5
G00X43.75Y-48.575
M15
G01X46.25Y-48.575
M16
G05
G00X43.75Y-105.715
M15
G01X46.25Y-105.715
M16
G05
G00X147.332Y-67.6
M15
G01X149.832Y-67.6
M16
G05
G00X206.722Y-105.722
M15
G01X209.222Y-105.722
M16
G05
G00X279.15Y-48.6
M15
G01X281.65Y-48.6
M16
G05
G00X285.462Y-105.722
M15
G01X287.962Y-105.722
M16
G05
T0
M30
