G04 #@! TF.GenerationSoftware,KiCad,Pcbnew,(5.1.9-1-g591a07d2d9)-1*
G04 #@! TF.CreationDate,2021-05-31T00:50:00-06:00*
G04 #@! TF.ProjectId,keyboard-layout,6b657962-6f61-4726-942d-6c61796f7574,rev?*
G04 #@! TF.SameCoordinates,Original*
G04 #@! TF.FileFunction,Profile,NP*
%FSLAX46Y46*%
G04 Gerber Fmt 4.6, Leading zero omitted, Abs format (unit mm)*
G04 Created by KiCad (PCBNEW (5.1.9-1-g591a07d2d9)-1) date 2021-05-31 00:50:00*
%MOMM*%
%LPD*%
G01*
G04 APERTURE LIST*
G04 #@! TA.AperFunction,Profile*
%ADD10C,0.100000*%
G04 #@! TD*
G04 #@! TA.AperFunction,Profile*
%ADD11C,0.200000*%
G04 #@! TD*
G04 APERTURE END LIST*
D10*
X43671500Y-18755450D02*
X33752500Y-18755450D01*
X33552500Y-18955450D02*
G75*
G02*
X33752500Y-18755450I200000J0D01*
G01*
X43671500Y-18755450D02*
G75*
G02*
X43871500Y-18955450I0J-200000D01*
G01*
X33552500Y-19955450D02*
X33552500Y-18955450D01*
X43871500Y-18955450D02*
X43871500Y-19955450D01*
X44666050Y-20750000D02*
X321925000Y-20750000D01*
X32757950Y-20750000D02*
X22925000Y-20750000D01*
X323925000Y-22750000D02*
X323925000Y-112550000D01*
X20925000Y-112550000D02*
X20925000Y-22750000D01*
X44666050Y-20750000D02*
G75*
G02*
X43871500Y-19955450I0J794550D01*
G01*
X33552500Y-19955450D02*
G75*
G02*
X32757950Y-20750000I-794550J0D01*
G01*
D11*
X63655000Y-76356000D02*
X257330000Y-76356000D01*
X63655000Y-77944000D02*
X257330000Y-77944000D01*
D10*
X20925000Y-22750000D02*
G75*
G02*
X22925000Y-20750000I2000000J0D01*
G01*
X321925000Y-20750000D02*
G75*
G02*
X323925000Y-22750000I0J-2000000D01*
G01*
X321925000Y-114550000D02*
X22925000Y-114550000D01*
X323925000Y-112550000D02*
G75*
G02*
X321925000Y-114550000I-2000000J0D01*
G01*
D11*
X257330000Y-76356000D02*
G75*
G02*
X257330000Y-77944000I0J-794000D01*
G01*
X63655000Y-77944000D02*
G75*
G02*
X63655000Y-76356000I0J794000D01*
G01*
D10*
X22925000Y-114550000D02*
G75*
G02*
X20925000Y-112550000I0J2000000D01*
G01*
M02*
