G04 #@! TF.GenerationSoftware,KiCad,Pcbnew,(5.1.9-1-g591a07d2d9)-1*
G04 #@! TF.CreationDate,2021-05-31T00:50:00-06:00*
G04 #@! TF.ProjectId,keyboard-layout,6b657962-6f61-4726-942d-6c61796f7574,rev?*
G04 #@! TF.SameCoordinates,Original*
G04 #@! TF.FileFunction,Soldermask,Top*
G04 #@! TF.FilePolarity,Negative*
%FSLAX46Y46*%
G04 Gerber Fmt 4.6, Leading zero omitted, Abs format (unit mm)*
G04 Created by KiCad (PCBNEW (5.1.9-1-g591a07d2d9)-1) date 2021-05-31 00:50:00*
%MOMM*%
%LPD*%
G01*
G04 APERTURE LIST*
%ADD10C,1.851600*%
%ADD11C,4.089400*%
%ADD12C,3.149600*%
%ADD13C,5.601600*%
%ADD14O,1.101600X1.701600*%
%ADD15O,1.101600X2.201600*%
%ADD16C,0.751600*%
%ADD17O,1.801600X1.801600*%
G04 APERTURE END LIST*
D10*
X41748750Y-67625000D03*
X31588750Y-67625000D03*
D11*
X36668750Y-67625000D03*
X58100000Y-48575000D03*
D10*
X53020000Y-48575000D03*
X63180000Y-48575000D03*
D11*
X34287500Y-48575000D03*
D10*
X29207500Y-48575000D03*
X39367500Y-48575000D03*
D11*
X62862500Y-67625000D03*
D10*
X57782500Y-67625000D03*
X67942500Y-67625000D03*
D11*
X167637500Y-86675000D03*
D10*
X162557500Y-86675000D03*
X172717500Y-86675000D03*
D11*
X210500000Y-48575000D03*
D10*
X205420000Y-48575000D03*
X215580000Y-48575000D03*
X251299146Y-105725001D03*
X241139146Y-105725001D03*
D11*
X246219146Y-105725001D03*
X286700000Y-29525000D03*
D10*
X281620000Y-29525000D03*
X291780000Y-29525000D03*
D12*
X274793750Y-22540000D03*
X298606250Y-22540000D03*
D11*
X274793750Y-37780000D03*
X298606250Y-37780000D03*
X150969588Y-105725000D03*
D10*
X145889588Y-105725000D03*
X156049588Y-105725000D03*
D12*
X100969688Y-112710000D03*
X200969488Y-112710000D03*
D11*
X100969688Y-97470000D03*
X200969488Y-97470000D03*
X79531250Y-105725000D03*
D10*
X74451250Y-105725000D03*
X84611250Y-105725000D03*
D11*
X55718750Y-105725000D03*
D10*
X50638750Y-105725000D03*
X60798750Y-105725000D03*
D11*
X31906250Y-105725000D03*
D10*
X26826250Y-105725000D03*
X36986250Y-105725000D03*
D11*
X41431250Y-86675000D03*
D10*
X36351250Y-86675000D03*
X46511250Y-86675000D03*
D12*
X29525000Y-79690000D03*
X53337500Y-79690000D03*
D11*
X29525000Y-94930000D03*
X53337500Y-94930000D03*
X284318750Y-67625000D03*
D10*
X279238750Y-67625000D03*
X289398750Y-67625000D03*
D12*
X272412500Y-60640000D03*
X296225000Y-60640000D03*
D11*
X272412500Y-75880000D03*
X296225000Y-75880000D03*
X270031250Y-86675000D03*
D10*
X264951250Y-86675000D03*
X275111250Y-86675000D03*
D11*
X291462500Y-48575000D03*
D10*
X286382500Y-48575000D03*
X296542500Y-48575000D03*
D11*
X153350000Y-48575000D03*
D10*
X148270000Y-48575000D03*
X158430000Y-48575000D03*
D11*
X267650000Y-48575000D03*
D10*
X262570000Y-48575000D03*
X272730000Y-48575000D03*
D11*
X91437500Y-86675000D03*
D10*
X86357500Y-86675000D03*
X96517500Y-86675000D03*
D11*
X29525000Y-29525000D03*
D10*
X24445000Y-29525000D03*
X34605000Y-29525000D03*
D11*
X110487500Y-86675000D03*
D10*
X105407500Y-86675000D03*
X115567500Y-86675000D03*
D11*
X77150000Y-48575000D03*
D10*
X72070000Y-48575000D03*
X82230000Y-48575000D03*
D11*
X220025000Y-29525000D03*
D10*
X214945000Y-29525000D03*
X225105000Y-29525000D03*
D11*
X191450000Y-48575000D03*
D10*
X186370000Y-48575000D03*
X196530000Y-48575000D03*
D11*
X72387500Y-86675000D03*
D10*
X67307500Y-86675000D03*
X77467500Y-86675000D03*
D11*
X129537500Y-86675000D03*
D10*
X124457500Y-86675000D03*
X134617500Y-86675000D03*
D11*
X296225000Y-86675000D03*
D10*
X291145000Y-86675000D03*
X301305000Y-86675000D03*
D11*
X172400000Y-48575000D03*
D10*
X167320000Y-48575000D03*
X177480000Y-48575000D03*
D11*
X134300000Y-48575000D03*
D10*
X129220000Y-48575000D03*
X139380000Y-48575000D03*
D11*
X243837500Y-86675000D03*
D10*
X238757500Y-86675000D03*
X248917500Y-86675000D03*
D11*
X234312500Y-67625000D03*
D10*
X229232500Y-67625000D03*
X239392500Y-67625000D03*
D11*
X81912500Y-67625000D03*
D10*
X76832500Y-67625000D03*
X86992500Y-67625000D03*
D11*
X315275000Y-105725000D03*
D10*
X310195000Y-105725000D03*
X320355000Y-105725000D03*
D11*
X115250000Y-48575000D03*
D10*
X110170000Y-48575000D03*
X120330000Y-48575000D03*
D11*
X253362500Y-67625000D03*
D10*
X248282500Y-67625000D03*
X258442500Y-67625000D03*
D11*
X315275000Y-67625000D03*
D10*
X310195000Y-67625000D03*
X320355000Y-67625000D03*
D11*
X315275000Y-86675000D03*
D10*
X310195000Y-86675000D03*
X320355000Y-86675000D03*
D11*
X229550000Y-48575000D03*
D10*
X224470000Y-48575000D03*
X234630000Y-48575000D03*
D11*
X239075000Y-29525000D03*
D10*
X233995000Y-29525000D03*
X244155000Y-29525000D03*
D11*
X186687500Y-86675000D03*
D10*
X181607500Y-86675000D03*
X191767500Y-86675000D03*
D11*
X277175000Y-105725000D03*
D10*
X272095000Y-105725000D03*
X282255000Y-105725000D03*
D11*
X215262500Y-67625000D03*
D10*
X210182500Y-67625000D03*
X220342500Y-67625000D03*
D11*
X196212500Y-67625000D03*
D10*
X191132500Y-67625000D03*
X201292500Y-67625000D03*
D11*
X177162500Y-67625000D03*
D10*
X172082500Y-67625000D03*
X182242500Y-67625000D03*
D11*
X158112500Y-67625000D03*
D10*
X153032500Y-67625000D03*
X163192500Y-67625000D03*
D11*
X139062500Y-67625000D03*
D10*
X133982500Y-67625000D03*
X144142500Y-67625000D03*
D11*
X239075000Y-105725000D03*
D10*
X233995000Y-105725000D03*
X244155000Y-105725000D03*
D11*
X120012500Y-67625000D03*
D10*
X114932500Y-67625000D03*
X125092500Y-67625000D03*
D11*
X258125000Y-29525000D03*
D10*
X253045000Y-29525000D03*
X263205000Y-29525000D03*
D11*
X96200000Y-48575000D03*
D10*
X91120000Y-48575000D03*
X101280000Y-48575000D03*
D11*
X296225000Y-105725000D03*
D10*
X291145000Y-105725000D03*
X301305000Y-105725000D03*
D11*
X224787500Y-86675000D03*
D10*
X219707500Y-86675000D03*
X229867500Y-86675000D03*
D11*
X315275000Y-48575000D03*
D10*
X310195000Y-48575000D03*
X320355000Y-48575000D03*
D11*
X100962500Y-67625000D03*
D10*
X95882500Y-67625000D03*
X106042500Y-67625000D03*
D11*
X258125000Y-105725000D03*
D10*
X253045000Y-105725000D03*
X263205000Y-105725000D03*
D11*
X205737500Y-86675000D03*
D10*
X200657500Y-86675000D03*
X210817500Y-86675000D03*
D11*
X148587500Y-86675000D03*
D10*
X143507500Y-86675000D03*
X153667500Y-86675000D03*
D11*
X220025000Y-105725000D03*
D10*
X214945000Y-105725000D03*
X225105000Y-105725000D03*
D11*
X315275000Y-29525000D03*
D10*
X310195000Y-29525000D03*
X320355000Y-29525000D03*
D11*
X248600000Y-48575000D03*
D10*
X243520000Y-48575000D03*
X253680000Y-48575000D03*
D11*
X200975000Y-29525000D03*
D10*
X195895000Y-29525000D03*
X206055000Y-29525000D03*
D11*
X181925000Y-29525000D03*
D10*
X176845000Y-29525000D03*
X187005000Y-29525000D03*
D11*
X162875000Y-29525000D03*
D10*
X157795000Y-29525000D03*
X167955000Y-29525000D03*
D11*
X143825000Y-29525000D03*
D10*
X138745000Y-29525000D03*
X148905000Y-29525000D03*
D11*
X124775000Y-29525000D03*
D10*
X119695000Y-29525000D03*
X129855000Y-29525000D03*
D11*
X105725000Y-29525000D03*
D10*
X100645000Y-29525000D03*
X110805000Y-29525000D03*
D11*
X86675000Y-29525000D03*
D10*
X81595000Y-29525000D03*
X91755000Y-29525000D03*
D11*
X67625000Y-29525000D03*
D10*
X62545000Y-29525000D03*
X72705000Y-29525000D03*
D11*
X48575000Y-29525000D03*
D10*
X43495000Y-29525000D03*
X53655000Y-29525000D03*
D13*
X45000000Y-48575000D03*
X45000000Y-105715000D03*
X148582499Y-67600000D03*
X207972500Y-105722500D03*
X280400000Y-48600000D03*
X286712500Y-105722500D03*
D11*
X222406646Y-105725001D03*
D10*
X217326646Y-105725001D03*
X227486646Y-105725001D03*
X36986250Y-67625000D03*
X26826250Y-67625000D03*
D11*
X31906250Y-67625000D03*
D14*
X43032000Y-19975000D03*
X34392000Y-19975000D03*
D15*
X43032000Y-24155000D03*
X34392000Y-24155000D03*
D16*
X35822000Y-23625000D03*
X41602000Y-23625000D03*
G36*
G01*
X35080000Y-58100800D02*
X33380000Y-58100800D01*
G75*
G02*
X33329200Y-58050000I0J50800D01*
G01*
X33329200Y-56350000D01*
G75*
G02*
X33380000Y-56299200I50800J0D01*
G01*
X35080000Y-56299200D01*
G75*
G02*
X35130800Y-56350000I0J-50800D01*
G01*
X35130800Y-58050000D01*
G75*
G02*
X35080000Y-58100800I-50800J0D01*
G01*
G37*
D17*
X34230000Y-54660000D03*
X31690000Y-57200000D03*
X31690000Y-54660000D03*
X29150000Y-57200000D03*
X29150000Y-54660000D03*
M02*
